<svg width="20" height="21" viewBox="0 0 20 21" fill="none" xmlns="http://www.w3.org/2000/svg">
<path fill-rule="evenodd" clip-rule="evenodd" d="M3.75 3.56543C3.05964 3.56543 2.5 4.12507 2.5 4.81543V17.3154C2.5 18.0058 3.05964 18.5654 3.75 18.5654H16.25C16.9403 18.5654 17.5 18.0058 17.5 17.3154V4.81543C17.5 4.12507 16.9403 3.56543 16.25 3.56543H3.75ZM7.10063 6.90103C7.10532 7.6979 6.50884 8.18892 5.80102 8.1854C5.13422 8.18189 4.55297 7.65103 4.55649 6.9022C4.56001 6.1979 5.11665 5.63189 5.8397 5.6483C6.57329 5.6647 7.10532 6.2026 7.10063 6.90103ZM10.2331 9.20023H8.13309H8.13192V16.3334H10.3514V16.167C10.3514 15.8504 10.3512 15.5338 10.3509 15.217C10.3502 14.3722 10.3495 13.5264 10.3538 12.6818C10.355 12.4768 10.3643 12.2635 10.4171 12.0678C10.6151 11.3365 11.2726 10.8643 12.0062 10.9803C12.4772 11.0541 12.7889 11.3272 12.9202 11.7713C13.0011 12.049 13.0374 12.3478 13.0409 12.6373C13.0504 13.5103 13.0491 14.3833 13.0477 15.2564C13.0472 15.5646 13.0467 15.8729 13.0467 16.1811V16.3323H15.2733V16.1612C15.2733 15.7845 15.2732 15.4079 15.2729 15.0313C15.2725 14.0901 15.272 13.1488 15.2745 12.2073C15.2757 11.7818 15.23 11.3623 15.1257 10.951C14.9698 10.3393 14.6476 9.83301 14.1237 9.46743C13.7522 9.20725 13.3444 9.03968 12.8886 9.02093C12.8367 9.01877 12.7843 9.01595 12.7317 9.0131C12.4987 9.0005 12.2617 8.9877 12.0389 9.03265C11.4014 9.16038 10.8413 9.45218 10.4182 9.9666C10.3691 10.0256 10.321 10.0855 10.2492 10.1749L10.2331 10.1952V9.20023ZM4.7347 16.3358H6.94368V9.20487H4.7347V16.3358Z" fill="#8F98A8"/>
</svg>
