<svg width="220" height="41" viewBox="0 0 220 41" fill="none" xmlns="http://www.w3.org/2000/svg">
<g id="Logo" clip-path="url(#clip0_5929_192)">
<path id="Vector" d="M66.1458 14.211C65.7088 13.5663 65.1287 13.0915 64.4016 12.7903C63.6746 12.4892 62.9061 12.3386 62.0999 12.3386C61.6215 12.3386 61.1582 12.3927 60.7137 12.5046C60.2691 12.6166 59.8661 12.7942 59.5082 13.0413C59.1503 13.2884 58.8603 13.6049 58.6418 13.9948C58.4233 14.3848 58.314 14.8481 58.314 15.3808C58.314 16.1838 58.5853 16.7977 59.1277 17.2185C59.6702 17.6432 60.3445 18.0099 61.1506 18.3226C61.9568 18.6353 62.8345 18.9365 63.7913 19.226C64.7482 19.5156 65.6297 19.9171 66.4321 20.4305C67.2382 20.944 67.9125 21.6235 68.455 22.469C68.9974 23.3144 69.2687 24.4417 69.2687 25.847C69.2687 27.1172 69.0389 28.2252 68.583 29.1749C68.1272 30.1207 67.5132 30.9083 66.741 31.5337C65.9687 32.1592 65.0721 32.6263 64.0513 32.939C63.0304 33.2517 61.953 33.4061 60.8229 33.4061C59.3877 33.4061 58.0051 33.1591 56.6791 32.6688C55.3531 32.1785 54.2117 31.3523 53.2549 30.1941L56.3552 27.1172C56.8562 27.897 57.5117 28.5031 58.3291 28.9394C59.1428 29.3756 60.0092 29.5918 60.9246 29.5918C61.403 29.5918 61.8814 29.5262 62.3599 29.3911C62.8383 29.256 63.2715 29.0552 63.6633 28.7888C64.055 28.5224 64.3715 28.1827 64.6088 27.7696C64.8461 27.3565 64.9667 26.8817 64.9667 26.3489C64.9667 25.4803 64.6954 24.8124 64.153 24.3414C63.6105 23.8742 62.9362 23.4766 62.1301 23.1561C61.3239 22.8319 60.4424 22.5269 59.4856 22.2373C58.5288 21.9478 57.6473 21.5501 56.8449 21.0521C56.0387 20.5502 55.3644 19.8823 54.822 19.0446C54.2795 18.2068 54.0083 17.0872 54.0083 15.6858C54.0083 14.4581 54.2532 13.4003 54.7429 12.5085C55.2326 11.6167 55.873 10.8755 56.6678 10.2848C57.4627 9.6941 58.3706 9.25398 59.3914 8.96443C60.4123 8.67489 61.4558 8.53204 62.5218 8.53204C63.7386 8.53204 64.9215 8.72121 66.0629 9.09956C67.2043 9.4779 68.2327 10.1033 69.1443 10.972L66.142 14.2149L66.1458 14.211Z" fill="white"/>
<path id="Vector_2" d="M72.4104 24.7737C72.4104 23.5036 72.6327 22.3492 73.0809 21.3146C73.5254 20.2799 74.1282 19.392 74.8929 18.6546C75.6538 17.9172 76.5579 17.3497 77.6014 16.9482C78.6449 16.5467 79.7562 16.3459 80.9277 16.3459C82.0993 16.3459 83.2106 16.5467 84.254 16.9482C85.2975 17.3497 86.2016 17.9172 86.9626 18.6546C87.7235 19.392 88.3262 20.2761 88.7745 21.3146C89.219 22.3492 89.445 23.5036 89.445 24.7737C89.445 26.0439 89.2228 27.1982 88.7745 28.2329C88.33 29.2675 87.7235 30.1555 86.9626 30.8928C86.2016 31.6302 85.2975 32.1977 84.254 32.5992C83.2106 33.0008 82.0993 33.2015 80.9277 33.2015C79.7562 33.2015 78.6449 33.0008 77.6014 32.5992C76.5579 32.1977 75.6538 31.6302 74.8929 30.8928C74.1319 30.1555 73.5292 29.2714 73.0809 28.2329C72.6364 27.1982 72.4104 26.0439 72.4104 24.7737ZM76.3244 24.7737C76.3244 25.3991 76.4261 26.0014 76.6333 26.5805C76.8405 27.1596 77.1456 27.6731 77.5449 28.117C77.948 28.5649 78.4302 28.9201 78.9952 29.1864C79.5603 29.4528 80.2007 29.5879 80.9202 29.5879C81.6397 29.5879 82.2801 29.4528 82.8452 29.1864C83.4102 28.9201 83.8924 28.561 84.2955 28.117C84.6986 27.6731 85.0037 27.1596 85.2071 26.5805C85.4143 26.0014 85.516 25.3991 85.516 24.7737C85.516 24.1483 85.4143 23.5499 85.2071 22.9669C84.9999 22.3879 84.6948 21.8744 84.2955 21.4304C83.8924 20.9864 83.4102 20.6274 82.8452 20.361C82.2801 20.0946 81.6397 19.9595 80.9202 19.9595C80.2007 19.9595 79.5603 20.0946 78.9952 20.361C78.4302 20.6274 77.9442 20.9864 77.5449 21.4304C77.1418 21.8782 76.8367 22.3879 76.6333 22.9669C76.4261 23.546 76.3244 24.1483 76.3244 24.7737Z" fill="white"/>
<path id="Vector_3" d="M93.0916 16.7513H96.8096V19.3264H96.8737C97.2429 18.5234 97.8079 17.8285 98.5689 17.2378C99.3298 16.6471 100.362 16.3537 101.669 16.3537C102.713 16.3537 103.598 16.5313 104.329 16.8903C105.056 17.2455 105.651 17.7165 106.107 18.2956C106.563 18.8747 106.89 19.5426 107.086 20.3031C107.282 21.0598 107.38 21.8513 107.38 22.6774V32.8077H103.466V24.685C103.466 24.241 103.443 23.743 103.402 23.1986C103.357 22.6543 103.244 22.1408 103.059 21.6621C102.875 21.1834 102.585 20.7819 102.193 20.4576C101.801 20.1333 101.27 19.9711 100.596 19.9711C99.9212 19.9711 99.3938 20.0831 98.9493 20.307C98.5048 20.5309 98.1357 20.832 97.8418 21.2104C97.548 21.5887 97.337 22.025 97.2052 22.5153C97.0733 23.0056 97.0093 23.519 97.0093 24.0518V32.8116H93.0953V16.7629L93.0916 16.7513Z" fill="white"/>
<path id="Vector_4" d="M111.328 11.3001C111.328 10.6553 111.561 10.0917 112.029 9.61298C112.496 9.13426 113.087 8.8949 113.807 8.8949C114.526 8.8949 115.129 9.12267 115.619 9.58209C116.108 10.0376 116.353 10.6129 116.353 11.3039C116.353 11.995 116.108 12.5702 115.619 13.0258C115.129 13.4813 114.526 13.7091 113.807 13.7091C113.087 13.7091 112.496 13.4698 112.029 12.991C111.561 12.5123 111.328 11.9487 111.328 11.3039V11.3001ZM111.882 16.7513H115.796V32.8H111.882V16.7513Z" fill="white"/>
<path id="Vector_5" d="M131 21.5655C130.544 21.0752 130.065 20.6853 129.564 20.3958C129.063 20.1062 128.555 19.9595 128.031 19.9595C127.312 19.9595 126.671 20.0946 126.106 20.361C125.541 20.6274 125.055 20.9865 124.656 21.4304C124.253 21.8783 123.948 22.3879 123.744 22.967C123.537 23.5461 123.435 24.1483 123.435 24.7737C123.435 25.3992 123.537 26.0014 123.744 26.5805C123.951 27.1596 124.257 27.6731 124.656 28.1171C125.059 28.5649 125.541 28.9201 126.106 29.1865C126.671 29.4528 127.312 29.588 128.031 29.588C128.641 29.588 129.206 29.4606 129.726 29.2019C130.25 28.9471 130.694 28.5726 131.064 28.0823L133.674 30.9585C133.282 31.36 132.83 31.7075 132.322 31.9931C131.809 32.2827 131.293 32.5182 130.774 32.6958C130.25 32.8734 129.753 33.0008 129.274 33.0818C128.796 33.1591 128.381 33.1977 128.035 33.1977C126.86 33.1977 125.752 32.9969 124.709 32.5954C123.665 32.1939 122.761 31.6264 122 30.889C121.239 30.1516 120.636 29.2675 120.188 28.229C119.744 27.1944 119.518 26.04 119.518 24.7699C119.518 23.4997 119.74 22.3454 120.188 21.3107C120.633 20.2761 121.235 19.3881 122 18.6508C122.761 17.9134 123.665 17.3459 124.709 16.9444C125.752 16.5429 126.863 16.3421 128.035 16.3421C129.033 16.3421 130.043 16.539 131.052 16.9289C132.062 17.3188 132.951 17.9365 133.712 18.7859L131.003 21.5617L131 21.5655Z" fill="white"/>
<path id="Vector_6" d="M144.376 21.1988C143.615 20.1062 142.591 19.5618 141.31 19.5618C140.786 19.5618 140.278 19.697 139.777 19.9634C139.276 20.2297 139.027 20.666 139.027 21.2682C139.027 21.7586 139.234 22.1137 139.649 22.3376C140.063 22.5616 140.583 22.7507 141.216 22.9052C141.845 23.0634 142.527 23.2217 143.254 23.3916C143.981 23.5576 144.663 23.8163 145.292 24.1599C145.921 24.5073 146.444 24.9783 146.859 25.5806C147.273 26.1828 147.48 27.009 147.48 28.0553C147.48 29.0127 147.281 29.8234 146.878 30.4797C146.475 31.136 145.955 31.665 145.311 32.0665C144.67 32.468 143.947 32.7575 143.141 32.9351C142.335 33.1127 141.532 33.2015 140.726 33.2015C139.509 33.2015 138.387 33.0239 137.366 32.6649C136.345 32.3097 135.43 31.6611 134.627 30.7268L137.238 28.2213C137.739 28.8004 138.277 29.2752 138.854 29.642C139.43 30.0087 140.131 30.194 140.96 30.194C141.242 30.194 141.536 30.1593 141.841 30.0937C142.146 30.028 142.429 29.9161 142.689 29.7578C142.949 29.6034 143.163 29.4065 143.325 29.171C143.487 28.9355 143.57 28.6652 143.57 28.3525C143.57 27.7966 143.363 27.3835 142.949 27.1171C142.534 26.8507 142.014 26.6307 141.382 26.4647C140.749 26.2987 140.071 26.1404 139.344 25.9975C138.613 25.8547 137.935 25.6192 137.306 25.2949C136.673 24.9706 136.153 24.5189 135.738 23.9398C135.324 23.3607 135.117 22.5577 135.117 21.5308C135.117 20.639 135.298 19.863 135.656 19.2067C136.013 18.5504 136.488 18.0099 137.076 17.5852C137.663 17.1605 138.338 16.8478 139.099 16.6509C139.86 16.4502 140.632 16.3498 141.415 16.3498C142.459 16.3498 143.491 16.5351 144.516 16.9019C145.537 17.2686 146.365 17.8979 146.994 18.7897L144.384 21.1988H144.376Z" fill="white"/>
<path id="Vector_7" d="M148.682 20.1602V16.7513H151.91V12.1031H155.824V16.7513H160.13V20.1602H155.824V27.1828C155.824 27.9858 155.971 28.6189 156.265 29.0899C156.559 29.5609 157.139 29.7925 158.009 29.7925C158.356 29.7925 158.736 29.7539 159.151 29.6767C159.565 29.5995 159.889 29.4721 160.13 29.2907V32.6687C159.716 32.8695 159.211 33.0085 158.612 33.0857C158.013 33.1629 157.486 33.2015 157.03 33.2015C155.986 33.2015 155.131 33.0857 154.468 32.8502C153.805 32.6147 153.282 32.2595 152.901 31.7808C152.521 31.3021 152.261 30.7075 152.118 29.9933C151.974 29.2791 151.907 28.4568 151.907 27.5186V20.1641H148.678L148.682 20.1602Z" fill="white"/>
<path id="Vector_8" d="M163.2 16.7513H167.114V19.2916H167.178C167.612 18.3573 168.233 17.6315 169.039 17.1181C169.845 16.6046 170.768 16.3498 171.812 16.3498C172.049 16.3498 172.286 16.373 172.512 16.4154C172.742 16.4618 172.976 16.5158 173.213 16.5814V20.4614C172.885 20.3726 172.565 20.2992 172.253 20.2452C171.936 20.1911 171.627 20.1602 171.322 20.1602C170.41 20.1602 169.676 20.334 169.118 20.6776C168.565 21.025 168.139 21.4188 167.845 21.8628C167.551 22.3106 167.355 22.7546 167.257 23.1986C167.159 23.6464 167.111 23.9784 167.111 24.2023V32.7961H163.197V16.7474L163.2 16.7513Z" fill="white"/>
<path id="Vector_9" d="M175.402 11.3001C175.402 10.6553 175.635 10.0917 176.103 9.61298C176.57 9.13426 177.161 8.8949 177.881 8.8949C178.6 8.8949 179.203 9.12267 179.693 9.58209C180.182 10.0376 180.427 10.6129 180.427 11.3039C180.427 11.995 180.182 12.5702 179.693 13.0258C179.203 13.4813 178.6 13.7091 177.881 13.7091C177.161 13.7091 176.57 13.4698 176.103 12.991C175.635 12.5123 175.402 11.9487 175.402 11.3039V11.3001ZM175.956 16.7513H179.87V32.8H175.956V16.7513Z" fill="white"/>
<path id="Vector_10" d="M196.772 30.391H196.708C196.143 31.3716 195.382 32.0858 194.425 32.5298C193.469 32.9738 192.436 33.1977 191.325 33.1977C190.108 33.1977 189.023 32.9815 188.078 32.5452C187.132 32.109 186.322 31.5144 185.648 30.7577C184.974 30.0011 184.462 29.1093 184.115 28.0823C183.768 27.0554 183.591 25.9551 183.591 24.7738C183.591 23.5924 183.776 22.4883 184.145 21.4652C184.514 20.4383 185.03 19.5503 185.693 18.7898C186.356 18.0331 187.155 17.4347 188.093 17.0023C189.027 16.566 190.052 16.3498 191.159 16.3498C191.898 16.3498 192.549 16.4271 193.118 16.5853C193.683 16.7436 194.184 16.9405 194.617 17.1876C195.051 17.4347 195.424 17.6933 195.725 17.9752C196.03 18.2531 196.279 18.5272 196.475 18.7936H196.573V7.52441H200.487V32.8H196.768V30.391H196.772ZM187.505 24.7738C187.505 25.3992 187.607 26.0014 187.814 26.5805C188.021 27.1596 188.327 27.6731 188.726 28.1171C189.129 28.5649 189.611 28.9201 190.176 29.1865C190.741 29.4529 191.382 29.588 192.101 29.588C192.821 29.588 193.461 29.4529 194.026 29.1865C194.591 28.9201 195.073 28.561 195.476 28.1171C195.879 27.6731 196.185 27.1596 196.388 26.5805C196.595 26.0014 196.697 25.3992 196.697 24.7738C196.697 24.1483 196.595 23.5499 196.388 22.967C196.181 22.3879 195.876 21.8744 195.476 21.4304C195.073 20.9865 194.591 20.6274 194.026 20.361C193.461 20.0947 192.821 19.9595 192.101 19.9595C191.382 19.9595 190.741 20.0947 190.176 20.361C189.611 20.6274 189.125 20.9865 188.726 21.4304C188.323 21.8783 188.018 22.3879 187.814 22.967C187.607 23.5461 187.505 24.1483 187.505 24.7738Z" fill="white"/>
<path id="Vector_11" d="M208.058 26.179C208.19 27.3835 208.646 28.3178 209.43 28.9895C210.213 29.6574 211.159 29.9933 212.266 29.9933C213.246 29.9933 214.067 29.7887 214.73 29.3756C215.393 28.9625 215.973 28.4452 216.474 27.8198L219.28 29.9933C218.369 31.1515 217.344 31.9777 216.214 32.468C215.084 32.9583 213.897 33.2053 212.658 33.2053C211.483 33.2053 210.375 33.0046 209.332 32.6031C208.288 32.2016 207.384 31.6341 206.623 30.8967C205.862 30.1593 205.259 29.2752 204.811 28.2367C204.367 27.2021 204.141 26.0477 204.141 24.7776C204.141 23.5074 204.363 22.3531 204.811 21.3184C205.256 20.2838 205.858 19.3958 206.623 18.6585C207.384 17.9211 208.288 17.3536 209.332 16.9521C210.375 16.5505 211.486 16.3498 212.658 16.3498C213.747 16.3498 214.741 16.5467 215.641 16.9366C216.546 17.3265 217.318 17.8902 217.958 18.6237C218.599 19.3611 219.1 20.2683 219.457 21.3493C219.815 22.4303 219.996 23.6734 219.996 25.0787V26.1828H208.055L208.058 26.179ZM216.086 23.1715C216.063 21.9902 215.706 21.0598 215.009 20.3803C214.312 19.7008 213.344 19.3611 212.104 19.3611C210.929 19.3611 209.998 19.7086 209.313 20.3957C208.627 21.0868 208.209 22.0134 208.058 23.1715H216.086Z" fill="white"/>
<path id="Vector_12" d="M17.9199 22.6967C18.6357 23.5422 18.9973 24.627 18.9408 25.7505C18.8353 27.8738 17.2456 29.5879 15.2415 29.7346C15.072 29.7462 14.9025 29.7462 14.733 29.7346C13.6518 29.669 12.695 29.1826 11.968 28.3255C11.482 27.7541 11.1656 27.0901 11.0224 26.3643C10.6608 24.4957 9.62862 22.8473 8.1444 21.7624C6.64888 20.6699 5.81636 18.8824 5.91053 16.9868C6.04615 14.265 8.08036 12.0761 10.6457 11.8908C10.8604 11.8753 11.0789 11.8715 11.2974 11.8908C14.0662 12.0606 16.2436 14.5816 16.1456 17.5157C16.0816 19.419 16.7182 21.2798 17.9199 22.7044V22.6967Z" fill="white"/>
<path id="Vector_13" d="M23.9133 7.76761C23.0205 9.01074 21.5852 9.75198 20.0784 9.75198C19.0425 9.75198 18.0969 9.43154 17.2606 8.80226C15.1473 7.20782 14.6953 4.15019 16.2511 1.98437C17.1439 0.741243 18.5791 0 20.0859 0C21.1219 0 22.0712 0.320433 22.9037 0.949718C25.017 2.54416 25.4691 5.60179 23.9133 7.76761Z" fill="white"/>
<path id="Vector_14" d="M8.5927 39.0157C7.69991 40.2588 6.26466 41 4.75784 41C3.7219 41 2.77637 40.6796 1.94008 40.0503C-0.173241 38.4559 -0.625288 35.3982 0.930507 33.2324C1.8233 31.9893 3.25855 31.248 4.76537 31.248C5.80131 31.248 6.74685 31.5685 7.58313 32.1978C9.69645 33.7922 10.1485 36.8498 8.5927 39.0157Z" fill="white"/>
</g>
<defs>
<clipPath id="clip0_5929_192">
<rect width="220" height="41" fill="white"/>
</clipPath>
</defs>
</svg>
