<svg width="126" height="23" viewBox="0 0 126 23" fill="none" xmlns="http://www.w3.org/2000/svg">
<g id="Logo" clip-path="url(#clip0_5850_931)">
<path id="Vector" d="M37.8834 7.97204C37.6332 7.61036 37.3009 7.34398 36.8845 7.17505C36.4681 7.00612 36.028 6.92166 35.5663 6.92166C35.2923 6.92166 35.0269 6.95198 34.7723 7.01479C34.5177 7.07759 34.2869 7.17721 34.0819 7.31582C33.877 7.45443 33.7108 7.63202 33.5857 7.85076C33.4606 8.06949 33.398 8.32938 33.398 8.62825C33.398 9.07872 33.5533 9.42307 33.864 9.65914C34.1747 9.89737 34.5609 10.1031 35.0226 10.2785C35.4843 10.454 35.987 10.6229 36.535 10.7853C37.083 10.9477 37.5879 11.173 38.0474 11.461C38.5091 11.7491 38.8953 12.1302 39.206 12.6045C39.5167 13.0788 39.672 13.7112 39.672 14.4995C39.672 15.2121 39.5404 15.8336 39.2793 16.3664C39.0183 16.897 38.6666 17.3388 38.2243 17.6896C37.782 18.0405 37.2686 18.3025 36.6839 18.478C36.0992 18.6534 35.4822 18.74 34.8349 18.74C34.0129 18.74 33.2211 18.6014 32.4617 18.3264C31.7022 18.0513 31.0485 17.5879 30.5005 16.9381L32.2761 15.2121C32.5631 15.6495 32.9385 15.9895 33.4066 16.2343C33.8727 16.479 34.3689 16.6003 34.8932 16.6003C35.1672 16.6003 35.4412 16.5635 35.7152 16.4877C35.9892 16.4119 36.2373 16.2992 36.4617 16.1498C36.686 16.0004 36.8673 15.8098 37.0032 15.5781C37.1391 15.3463 37.2081 15.0799 37.2081 14.7811C37.2081 14.2938 37.0528 13.9191 36.7421 13.6549C36.4314 13.3928 36.0453 13.1698 35.5836 12.99C35.1218 12.8081 34.617 12.637 34.069 12.4746C33.521 12.3121 33.0161 12.0891 32.5566 11.8097C32.0949 11.5282 31.7087 11.1535 31.398 10.6835C31.0873 10.2136 30.932 9.5855 30.932 8.79934C30.932 8.11064 31.0722 7.51723 31.3527 7.01695C31.6332 6.51667 31.9999 6.10085 32.4552 5.76949C32.9104 5.43814 33.4304 5.19125 34.0151 5.02882C34.5997 4.86639 35.1974 4.78625 35.8079 4.78625C36.5048 4.78625 37.1823 4.89238 37.836 5.10462C38.4897 5.31686 39.0787 5.6677 39.6008 6.15499L37.8813 7.9742L37.8834 7.97204Z" fill="white"/>
<path id="Vector_2" d="M41.4714 13.8975C41.4714 13.1849 41.5987 12.5374 41.8555 11.957C42.1101 11.3766 42.4553 10.8784 42.8932 10.4648C43.329 10.0511 43.8468 9.73277 44.4445 9.50753C45.0421 9.2823 45.6786 9.16968 46.3495 9.16968C47.0205 9.16968 47.657 9.2823 48.2546 9.50753C48.8522 9.73277 49.37 10.0511 49.8058 10.4648C50.2417 10.8784 50.5869 11.3744 50.8436 11.957C51.0982 12.5374 51.2276 13.1849 51.2276 13.8975C51.2276 14.61 51.1003 15.2575 50.8436 15.8379C50.589 16.4184 50.2417 16.9165 49.8058 17.3301C49.37 17.7438 48.8522 18.0621 48.2546 18.2874C47.657 18.5126 47.0205 18.6252 46.3495 18.6252C45.6786 18.6252 45.0421 18.5126 44.4445 18.2874C43.8468 18.0621 43.329 17.7438 42.8932 17.3301C42.4574 16.9165 42.1122 16.4205 41.8555 15.8379C41.6009 15.2575 41.4714 14.61 41.4714 13.8975ZM43.7131 13.8975C43.7131 14.2483 43.7713 14.5862 43.89 14.911C44.0087 15.2359 44.1834 15.5239 44.4121 15.773C44.643 16.0242 44.9191 16.2234 45.2427 16.3729C45.5664 16.5223 45.9331 16.5981 46.3452 16.5981C46.7573 16.5981 47.1241 16.5223 47.4477 16.3729C47.7713 16.2234 48.0475 16.022 48.2783 15.773C48.5092 15.5239 48.6839 15.2359 48.8005 14.911C48.9191 14.5862 48.9774 14.2483 48.9774 13.8975C48.9774 13.5466 48.9191 13.2109 48.8005 12.8839C48.6818 12.559 48.507 12.271 48.2783 12.0219C48.0475 11.7729 47.7713 11.5715 47.4477 11.422C47.1241 11.2726 46.7573 11.1968 46.3452 11.1968C45.9331 11.1968 45.5664 11.2726 45.2427 11.422C44.9191 11.5715 44.6408 11.7729 44.4121 12.0219C44.1813 12.2732 44.0065 12.559 43.89 12.8839C43.7713 13.2088 43.7131 13.5466 43.7131 13.8975Z" fill="white"/>
<path id="Vector_3" d="M53.316 9.39708H55.4455V10.8416H55.4822C55.6936 10.3911 56.0172 10.0013 56.453 9.66996C56.8889 9.33861 57.48 9.17401 58.2287 9.17401C58.8263 9.17401 59.3333 9.27363 59.7519 9.47505C60.1683 9.67429 60.5091 9.93851 60.7702 10.2634C61.0313 10.5882 61.2189 10.9629 61.3311 11.3895C61.4433 11.814 61.4994 12.258 61.4994 12.7215V18.4043H59.2578V13.8476C59.2578 13.5986 59.2448 13.3192 59.2211 13.0138C59.1952 12.7085 59.1305 12.4204 59.0248 12.1519C58.9191 11.8833 58.7529 11.6581 58.5286 11.4762C58.3042 11.2943 58 11.2033 57.6138 11.2033C57.2276 11.2033 56.9255 11.2661 56.671 11.3917C56.4164 11.5173 56.2049 11.6863 56.0366 11.8985C55.8684 12.1107 55.7475 12.3555 55.672 12.6305C55.5965 12.9056 55.5598 13.1936 55.5598 13.4925V18.4065H53.3182V9.40358L53.316 9.39708Z" fill="white"/>
<path id="Vector_4" d="M63.7605 6.33905C63.7605 5.97738 63.8943 5.66118 64.1618 5.39263C64.4293 5.12408 64.768 4.98981 65.1801 4.98981C65.5922 4.98981 65.9374 5.11758 66.2179 5.37531C66.4984 5.63086 66.6386 5.95355 66.6386 6.34122C66.6386 6.72888 66.4984 7.05158 66.2179 7.30713C65.9374 7.56269 65.5922 7.69047 65.1801 7.69047C64.768 7.69047 64.4293 7.55619 64.1618 7.28764C63.8943 7.01909 63.7605 6.7029 63.7605 6.34122V6.33905ZM64.0777 9.39706H66.3193V18.4H64.0777V9.39706Z" fill="white"/>
<path id="Vector_5" d="M75.027 12.0978C74.7659 11.8227 74.4919 11.604 74.205 11.4416C73.918 11.2791 73.6268 11.1968 73.3269 11.1968C72.9148 11.1968 72.548 11.2726 72.2244 11.4221C71.9008 11.5715 71.6225 11.7729 71.3938 12.022C71.1629 12.2732 70.9881 12.5591 70.8716 12.8839C70.753 13.2088 70.6947 13.5466 70.6947 13.8975C70.6947 14.2483 70.753 14.5862 70.8716 14.911C70.9903 15.2359 71.1651 15.5239 71.3938 15.773C71.6246 16.0242 71.9008 16.2235 72.2244 16.3729C72.548 16.5223 72.9148 16.5981 73.3269 16.5981C73.6764 16.5981 74 16.5267 74.2977 16.3816C74.5976 16.2386 74.8522 16.0286 75.0637 15.7535L76.5588 17.367C76.3344 17.5922 76.0755 17.7871 75.7843 17.9474C75.4908 18.1098 75.1953 18.2419 74.8975 18.3416C74.5976 18.4412 74.3129 18.5126 74.0389 18.5581C73.7648 18.6014 73.5275 18.6231 73.329 18.6231C72.6559 18.6231 72.0216 18.5105 71.424 18.2852C70.8263 18.06 70.3085 17.7416 69.8727 17.328C69.4369 16.9143 69.0917 16.4184 68.835 15.8358C68.5804 15.2554 68.4509 14.6078 68.4509 13.8953C68.4509 13.1828 68.5782 12.5352 68.835 11.9548C69.0895 11.3744 69.4347 10.8763 69.8727 10.4626C70.3085 10.049 70.8263 9.73063 71.424 9.50539C72.0216 9.28016 72.6581 9.16754 73.329 9.16754C73.9008 9.16754 74.479 9.27799 75.0572 9.49673C75.6354 9.71547 76.1446 10.062 76.5804 10.5384L75.0291 12.0956L75.027 12.0978Z" fill="white"/>
<path id="Vector_6" d="M82.6882 11.892C82.2524 11.2791 81.6656 10.9738 80.932 10.9738C80.6321 10.9738 80.3409 11.0496 80.0539 11.199C79.767 11.3484 79.6246 11.5932 79.6246 11.931C79.6246 12.2061 79.7432 12.4053 79.9806 12.5309C80.2179 12.6565 80.5156 12.7626 80.8781 12.8493C81.2384 12.9381 81.6289 13.0269 82.0453 13.1222C82.4617 13.2153 82.8522 13.3604 83.2125 13.5531C83.5728 13.7481 83.8727 14.0123 84.11 14.3501C84.3473 14.688 84.466 15.1514 84.466 15.7384C84.466 16.2755 84.3516 16.7303 84.1208 17.0984C83.8899 17.4666 83.5922 17.7633 83.2233 17.9885C82.8565 18.2138 82.4423 18.3762 81.9806 18.4758C81.5189 18.5755 81.0593 18.6253 80.5976 18.6253C79.9007 18.6253 79.2578 18.5256 78.6731 18.3242C78.0884 18.125 77.5642 17.7611 77.1046 17.237L78.5998 15.8315C78.8867 16.1563 79.1952 16.4227 79.5253 16.6285C79.8554 16.8342 80.2567 16.9382 80.7314 16.9382C80.8932 16.9382 81.0615 16.9187 81.2362 16.8819C81.411 16.845 81.5728 16.7822 81.7217 16.6934C81.8705 16.6068 81.9935 16.4964 82.0863 16.3642C82.179 16.2321 82.2265 16.0805 82.2265 15.9051C82.2265 15.5932 82.1078 15.3615 81.8705 15.2121C81.6332 15.0626 81.3355 14.9392 80.973 14.8461C80.6105 14.7529 80.2222 14.6642 79.8058 14.584C79.3872 14.5039 78.9989 14.3718 78.6386 14.1899C78.2761 14.0079 77.9784 13.7545 77.7411 13.4297C77.5037 13.1048 77.3851 12.6544 77.3851 12.0783C77.3851 11.578 77.4886 11.1427 77.6936 10.7745C77.8986 10.4063 78.1704 10.1031 78.507 9.86491C78.8436 9.62668 79.2297 9.45125 79.6656 9.3408C80.1014 9.22818 80.5437 9.17188 80.9924 9.17188C81.59 9.17188 82.1812 9.27583 82.768 9.48157C83.3527 9.68732 83.8274 10.0403 84.1877 10.5406L82.6925 11.892H82.6882Z" fill="white"/>
<path id="Vector_7" d="M85.1543 11.3094V9.39708H87.0032V6.78955H89.2449V9.39708H91.7109V11.3094H89.2449V15.2489C89.2449 15.6993 89.329 16.0545 89.4973 16.3187C89.6656 16.583 89.9978 16.7129 90.4962 16.7129C90.6947 16.7129 90.9126 16.6912 91.1499 16.6479C91.3873 16.6046 91.5728 16.5331 91.7109 16.4314V18.3264C91.4736 18.439 91.1845 18.517 90.8414 18.5603C90.4984 18.6036 90.1963 18.6252 89.9353 18.6252C89.3376 18.6252 88.8479 18.5603 88.4682 18.4282C88.0884 18.296 87.7886 18.0968 87.5707 17.8283C87.3527 17.5597 87.2039 17.2262 87.1219 16.8255C87.0399 16.4249 87.0011 15.9636 87.0011 15.4373V11.3116H85.1521L85.1543 11.3094Z" fill="white"/>
<path id="Vector_8" d="M93.4692 9.39711H95.7108V10.8222H95.7475C95.9956 10.2981 96.3516 9.8909 96.8133 9.60285C97.275 9.31481 97.8036 9.17188 98.4012 9.17188C98.5372 9.17188 98.6731 9.18487 98.8025 9.20869C98.9341 9.23468 99.0679 9.265 99.2038 9.30182V11.4784C99.0161 11.4286 98.8327 11.3874 98.6537 11.3571C98.4724 11.3268 98.2955 11.3094 98.1208 11.3094C97.5987 11.3094 97.1779 11.4069 96.8586 11.5997C96.5415 11.7946 96.2977 12.0155 96.1294 12.2645C95.9611 12.5158 95.8489 12.7648 95.7928 13.0139C95.7367 13.2651 95.7087 13.4513 95.7087 13.577V18.3979H93.467V9.39495L93.4692 9.39711Z" fill="white"/>
<path id="Vector_9" d="M100.457 6.33905C100.457 5.97738 100.591 5.66118 100.859 5.39263C101.126 5.12408 101.465 4.98981 101.877 4.98981C102.289 4.98981 102.634 5.11758 102.915 5.37531C103.195 5.63086 103.336 5.95355 103.336 6.34122C103.336 6.72888 103.195 7.05158 102.915 7.30713C102.634 7.56269 102.289 7.69047 101.877 7.69047C101.465 7.69047 101.126 7.55619 100.859 7.28764C100.591 7.01909 100.457 6.7029 100.457 6.34122V6.33905ZM100.775 9.39706H103.016V18.4H100.775V9.39706Z" fill="white"/>
<path id="Vector_10" d="M112.697 17.0486H112.66C112.337 17.5987 111.901 17.9994 111.353 18.2484C110.805 18.4975 110.214 18.6231 109.577 18.6231C108.88 18.6231 108.259 18.5018 107.717 18.2571C107.176 18.0123 106.712 17.6788 106.326 17.2543C105.94 16.8299 105.646 16.3296 105.448 15.7535C105.249 15.1774 105.148 14.5602 105.148 13.8975C105.148 13.2348 105.254 12.6154 105.465 12.0414C105.676 11.4654 105.972 10.9672 106.352 10.5406C106.731 10.1161 107.189 9.78042 107.726 9.53786C108.261 9.29314 108.848 9.17186 109.482 9.17186C109.905 9.17186 110.278 9.21517 110.604 9.30396C110.928 9.39276 111.215 9.50321 111.463 9.64182C111.711 9.78042 111.925 9.92553 112.097 10.0836C112.272 10.2396 112.414 10.3933 112.526 10.5428H112.583V4.22101H114.824V18.4H112.695V17.0486H112.697ZM107.389 13.8975C107.389 14.2483 107.448 14.5862 107.566 14.911C107.685 15.2359 107.86 15.5239 108.088 15.773C108.319 16.0242 108.596 16.2235 108.919 16.3729C109.243 16.5223 109.61 16.5981 110.022 16.5981C110.434 16.5981 110.8 16.5223 111.124 16.3729C111.448 16.2235 111.724 16.022 111.955 15.773C112.186 15.5239 112.36 15.2359 112.477 14.911C112.596 14.5862 112.654 14.2483 112.654 13.8975C112.654 13.5466 112.596 13.2109 112.477 12.8839C112.358 12.559 112.183 12.271 111.955 12.0219C111.724 11.7729 111.448 11.5715 111.124 11.422C110.8 11.2726 110.434 11.1968 110.022 11.1968C109.61 11.1968 109.243 11.2726 108.919 11.422C108.596 11.5715 108.317 11.7729 108.088 12.0219C107.858 12.2732 107.683 12.559 107.566 12.8839C107.448 13.2088 107.389 13.5466 107.389 13.8975Z" fill="white"/>
<path id="Vector_11" d="M119.161 14.6858C119.236 15.3615 119.497 15.8856 119.946 16.2625C120.395 16.6371 120.936 16.8255 121.571 16.8255C122.132 16.8255 122.602 16.7108 122.982 16.479C123.361 16.2473 123.694 15.9571 123.981 15.6062L125.588 16.8255C125.066 17.4753 124.479 17.9387 123.832 18.2138C123.184 18.4888 122.505 18.6274 121.795 18.6274C121.122 18.6274 120.488 18.5148 119.89 18.2896C119.292 18.0643 118.774 17.746 118.339 17.3323C117.903 16.9187 117.558 16.4227 117.301 15.8401C117.046 15.2597 116.917 14.6122 116.917 13.8997C116.917 13.1871 117.044 12.5396 117.301 11.9592C117.555 11.3787 117.901 10.8806 118.339 10.467C118.774 10.0533 119.292 9.73496 119.89 9.50973C120.488 9.28449 121.124 9.17188 121.795 9.17188C122.418 9.17188 122.988 9.28233 123.504 9.50107C124.022 9.7198 124.464 10.036 124.831 10.4475C125.197 10.8611 125.484 11.3701 125.689 11.9765C125.894 12.5829 125.998 13.2803 125.998 14.0686V14.688H119.159L119.161 14.6858ZM123.758 12.9987C123.745 12.336 123.54 11.8141 123.141 11.4329C122.742 11.0517 122.188 10.8611 121.478 10.8611C120.805 10.8611 120.272 11.0561 119.879 11.4416C119.486 11.8292 119.247 12.349 119.161 12.9987H123.758Z" fill="white"/>
<path id="Vector_12" d="M10.2632 12.7323C10.6731 13.2066 10.8803 13.8151 10.8479 14.4454C10.7875 15.6365 9.87702 16.5981 8.72923 16.6804C8.63215 16.6869 8.53506 16.6869 8.43797 16.6804C7.81877 16.6436 7.27077 16.3707 6.85437 15.8899C6.57605 15.5694 6.39482 15.1969 6.31284 14.7897C6.10572 13.7415 5.51456 12.8167 4.66451 12.2082C3.80798 11.5953 3.33118 10.5925 3.38511 9.52917C3.46278 8.00234 4.62783 6.77437 6.09709 6.67042C6.22006 6.66175 6.3452 6.65959 6.47033 6.67042C8.05609 6.76571 9.30313 8.17993 9.24703 9.82588C9.21036 10.8936 9.57497 11.9375 10.2632 12.7366V12.7323Z" fill="white"/>
<path id="Vector_13" d="M13.6958 4.35744C13.1845 5.0548 12.3625 5.47062 11.4995 5.47062C10.9062 5.47062 10.3646 5.29087 9.88567 4.93785C8.67531 4.04341 8.41641 2.32815 9.30746 1.11318C9.81878 0.415819 10.6408 0 11.5038 0C12.0971 0 12.6408 0.179755 13.1176 0.532768C14.328 1.42721 14.5869 3.14247 13.6958 4.35744Z" fill="white"/>
<path id="Vector_14" d="M4.92127 21.8868C4.40994 22.5842 3.58794 23 2.72494 23C2.13163 23 1.59009 22.8202 1.11113 22.4672C-0.0992264 21.5728 -0.358126 19.8575 0.53292 18.6425C1.04425 17.9452 1.86625 17.5294 2.72925 17.5294C3.32256 17.5294 3.8641 17.7091 4.34306 18.0621C5.55342 18.9566 5.81232 20.6718 4.92127 21.8868Z" fill="white"/>
</g>
<defs>
<clipPath id="clip0_5850_931">
<rect width="126" height="23" fill="white"/>
</clipPath>
</defs>
</svg>
