<?xml version="1.0" encoding="UTF-8"?>
<svg version="1.1" xmlns="http://www.w3.org/2000/svg" width="307" height="205">
<path d="M0 0 C2.47549239 -1.19442508 4.85614117 -2.48466646 7.25 -3.83984375 C25.41886013 -14.08900669 44.76430252 -16.47756358 65 -11 C74.09274109 -7.87003211 81.98772154 -2.49739088 89 4 C89.69609375 4.64195313 90.3921875 5.28390625 91.109375 5.9453125 C98.64695048 13.62896502 104.10591631 24.25787337 106.4375 34.75 C107.1640369 37.52657415 107.47412321 38.63686824 109.85546875 40.28125 C111.39509741 40.93844089 112.95878193 41.54141893 114.5390625 42.09375 C126.77007392 46.59786849 138.21603473 58.31996564 143.89599609 69.81298828 C150.97034713 85.41805704 154.20064646 103.19188819 149.1640625 119.97265625 C144.86154515 131.16208895 139.75973381 140.62993406 131 149 C130.39929688 149.62003906 129.79859375 150.24007812 129.1796875 150.87890625 C116.59130411 163.05857589 100.25703507 167.50161807 83.17358398 167.42675781 C73.7131675 167.14982131 64.69755811 165.15663067 56.3125 160.625 C55.219375 160.08875 54.12625 159.5525 53 159 C49.89081134 160.07857514 48.10070695 161.76979812 45.9375 164.1875 C33.67227704 176.60732661 17.53325773 181.55349647 0.4375 181.6875 C-17.85530787 181.43350991 -32.47141712 176.63091715 -45.6875 163.5625 C-47.13539268 162.05155756 -48.57685767 160.53427709 -50 159 C-55.35777893 160.734823 -60.55643986 162.78276218 -65.78125 164.87890625 C-80.6802702 170.06824945 -99.34240305 167.82416701 -113.3125 161.1875 C-130.62614221 151.90666165 -142.13215537 138.09133959 -148.0546875 119.48046875 C-152.6492813 102.56400975 -150.87704073 83.77179362 -142.46484375 68.328125 C-133.86910788 54.66663546 -122.49827699 45.65108457 -108 39 C-107.34 39 -106.68 39 -106 39 C-105.9071875 37.39125 -105.9071875 37.39125 -105.8125 35.75 C-103.90375715 21.4595437 -94.25857189 8.77939349 -83.390625 -0.2265625 C-74.18081085 -7.05867953 -65.15273831 -10.69123178 -54 -13 C-53.21109375 -13.16371094 -52.4221875 -13.32742187 -51.609375 -13.49609375 C-33.23502262 -16.33640395 -14.8672658 -10.73746974 0 0 Z M-72.109375 23.17578125 C-80.76636037 33.88602597 -83.14393515 44.48318656 -84 58 C-87.03325078 59.03841018 -90.05485742 60.01497349 -93.1484375 60.859375 C-100.24420847 62.81801396 -105.55419266 65.02320956 -111 70 C-111.86625 70.763125 -112.7325 71.52625 -113.625 72.3125 C-123.15827284 83.10015085 -125.94375465 92.89469257 -125.17724609 107.06054688 C-124.81519769 111.02213433 -123.68798506 114.42683537 -122 118 C-121.608125 118.99 -121.21625 119.98 -120.8125 121 C-114.68652836 131.13953926 -106.65535689 137.81179607 -95.37890625 141.26953125 C-83.03797674 143.93745474 -72.1709455 141.94187491 -61.5 135.4375 C-57.06343766 132.35189087 -53.39961321 128.53120897 -49.8046875 124.51928711 C-48.48046875 123.09765625 -48.48046875 123.09765625 -46 121 C-43.96337891 121.16381836 -43.96337891 121.16381836 -42 122 C-40.55814367 124.49723571 -39.35697378 126.88049612 -38.1875 129.5 C-32.57817796 141.29824356 -26.27993744 149.88075438 -13.75 154.8125 C-2.28530603 158.44298642 8.68835032 157.95310167 19.5625 152.78125 C31.82042376 146.05434062 37.60504927 135.41125633 43 123 C43 122.34 43 121.68 43 121 C47.9585544 121.40803847 49.80207036 123.51541425 53.0625 127.125 C60.91518088 135.43570889 70.18275682 141.22882855 81.76171875 142.37109375 C95.60949896 142.60533481 105.578827 138.6812373 115.8671875 129.296875 C123.42905652 121.57273411 126.45768007 112.01010068 126.5625 101.375 C126.35017639 89.35935321 122.24343764 80.53609878 114 71.90625 C106.46875778 64.6977753 98.14906408 60.97619307 87.8984375 59.359375 C86 59 86 59 85 58 C84.80524963 56.27899947 84.61597613 54.55717294 84.45678711 52.83251953 C83.16734654 39.45704751 79.25685295 29.16257087 69 20 C58.96834709 12.44431238 48.45565333 9.85627334 36 11 C32.79116546 11.64376307 29.97196084 12.6406031 27 14 C26.26265625 14.32871094 25.5253125 14.65742187 24.765625 14.99609375 C15.77262141 19.47709037 9.36671812 26.63594704 4.38671875 35.25 C2.71514978 37.35947295 1.61954949 37.64253482 -1 38 C-1.64066406 37.14277344 -2.28132813 36.28554688 -2.94140625 35.40234375 C-11.39681774 24.17660333 -19.21135167 14.33501399 -33.74609375 11.28125 C-48.2396367 9.47269698 -61.65747453 12.39483947 -72.109375 23.17578125 Z " fill="#E7ECF0" transform="translate(153,18)"/>
</svg>
