<svg width="73" height="17" viewBox="0 0 73 17" fill="none" xmlns="http://www.w3.org/2000/svg">
<path d="M69.0316 4.56719V16.4749H65.0624V4.56719H61.8311V1.21289H72.3188V4.56719H69.0316Z" fill="#8F98A8"/>
<path d="M49.1518 1.21289L52.8303 10.4931L56.5424 1.21289H60.8471L54.3398 16.4749H51.2538L44.8359 1.21289H49.1518Z" fill="#8F98A8"/>
<path d="M40.5315 10.2136L45.3281 16.4749H40.3861L36.6069 10.6161V16.4749H32.6377V1.21289H38.8096C39.6668 1.21289 40.3936 1.32097 40.9899 1.53714C41.5862 1.75331 42.108 2.09246 42.5552 2.55461C43.4274 3.4789 43.8634 4.60446 43.8634 5.93127C43.8634 6.60213 43.7367 7.23945 43.4833 7.84322C43.2373 8.44699 42.9018 8.93896 42.477 9.31911C41.9999 9.72908 41.3514 10.0272 40.5315 10.2136ZM36.6069 8.04448H37.3449C38.0977 8.04448 38.6642 7.91031 39.0444 7.64196C39.2531 7.48543 39.4283 7.26926 39.5699 6.99346C39.7115 6.71021 39.7823 6.43069 39.7823 6.15489C39.7823 5.88655 39.7115 5.61075 39.5699 5.3275C39.4283 5.04424 39.2531 4.82435 39.0444 4.66782C38.6717 4.39947 38.1052 4.2653 37.3449 4.2653H36.6069V8.04448Z" fill="#8F98A8"/>
<path d="M14.1885 16.4749V1.21289H18.1577L25.4589 10.549V1.21289H29.4282V16.4749H25.4589L18.1577 7.12764V16.4749H14.1885Z" fill="#8F98A8"/>
<path d="M11.673 1.66016V6.41208C10.7636 5.29398 9.61938 4.73493 8.24039 4.73493C7.03284 4.73493 6.02655 5.15981 5.22152 6.00957C4.50594 6.75497 4.14815 7.73144 4.14815 8.93899C4.14815 10.2434 4.59539 11.2721 5.48987 12.0249C6.2949 12.7033 7.20801 13.0424 8.22921 13.0424C9.5113 13.0424 10.6592 12.5094 11.673 11.4435V16.1395C10.7338 16.4526 10.0443 16.6539 9.60447 16.7433C9.16469 16.8402 8.669 16.8887 8.1174 16.8887C6.71605 16.8887 5.3706 16.5346 4.08106 15.8265C2.70953 15.0736 1.67342 14.0711 0.972746 12.8188C0.324249 11.6783 0 10.3962 0 8.97253C0 7.37737 0.395062 5.94621 1.18519 4.67903C1.93058 3.47148 2.96296 2.52482 4.28232 1.83906C5.48987 1.20547 6.75705 0.888672 8.08386 0.888672C9.17214 0.888672 10.3685 1.14583 11.673 1.66016Z" fill="#8F98A8"/>
</svg>
