<svg width="28" height="28" viewBox="0 0 28 28" fill="none" xmlns="http://www.w3.org/2000/svg">
<g clip-path="url(#clip0_18002_2901)">
<path d="M22.367 25.6964C22.5996 25.6964 22.8291 25.7849 23.0037 25.9535C24.1199 27.0313 25.7481 27.3902 27.1954 26.941C26.2639 25.0004 26.1349 22.7772 26.8567 20.7187C27.7525 18.1576 27.977 15.5905 26.9575 13.016C26.0618 10.7543 24.3333 8.87523 22.1457 7.80371C22.2803 8.52119 22.3482 9.25223 22.3482 9.991C22.3482 13.1268 21.1424 16.0761 18.953 18.2957C16.7634 20.5155 13.8282 21.7637 10.6882 21.8104C10.1049 21.8195 9.52412 21.7852 8.94995 21.7095C10.6756 24.7344 13.9302 26.7044 17.5066 26.7575C19.0711 26.7817 20.5733 26.4539 21.9722 25.7858C22.0982 25.7256 22.2331 25.6964 22.367 25.6964Z" fill="white"/>
<path d="M10.714 0.00199342C5.14383 -0.10861 0.513461 4.39759 0.50003 9.96658C0.49674 11.3272 0.762336 12.6464 1.2895 13.8877C1.29715 13.9057 1.30427 13.924 1.31072 13.9425C2.03256 16.001 1.90356 18.2242 0.971992 20.1648C2.41951 20.6138 4.04747 20.2551 5.16371 19.1772C5.43871 18.9116 5.85016 18.8447 6.1952 19.0096C7.59397 19.6777 9.09635 20.0065 10.6608 19.9813C16.1874 19.8993 20.5165 15.5111 20.5164 9.99116C20.5165 4.59174 16.1191 0.110649 10.714 0.00199342ZM5.16976 11.4833C4.36947 11.4833 3.72069 10.8356 3.72069 10.0367C3.72069 9.23776 4.36947 8.59005 5.16976 8.59005C5.97004 8.59005 6.61882 9.23776 6.61882 10.0367C6.61875 10.8356 5.97004 11.4833 5.16976 11.4833ZM10.5083 11.4833C9.70799 11.4833 9.05921 10.8356 9.05921 10.0367C9.05921 9.23776 9.70799 8.59005 10.5083 8.59005C11.3086 8.59005 11.9573 9.23776 11.9573 10.0367C11.9573 10.8356 11.3086 11.4833 10.5083 11.4833ZM15.8469 11.4833C15.0466 11.4833 14.3978 10.8356 14.3978 10.0367C14.3978 9.23776 15.0466 8.59005 15.8469 8.59005C16.6471 8.59005 17.2959 9.23776 17.2959 10.0367C17.2959 10.8356 16.6471 11.4833 15.8469 11.4833Z" fill="white"/>
</g>
<defs>
<clipPath id="clip0_18002_2901">
<rect width="27.1304" height="27.1304" fill="white" transform="translate(0.5)"/>
</clipPath>
</defs>
</svg>
