<svg width="63" height="62" viewBox="0 0 63 62" fill="none" xmlns="http://www.w3.org/2000/svg">
<circle cx="31.5" cy="31" r="31" fill="white"/>
<g clip-path="url(#clip0_251_3252)">
<path d="M45.1304 21.5217C45.1304 19.028 43.1024 17 40.6087 17C38.115 17 36.087 19.028 36.087 21.5217C36.087 21.5975 36.1062 21.6687 36.1096 21.7433L26.3494 24.7932C25.5502 23.5124 24.1394 22.6522 22.5217 22.6522C20.028 22.6522 18 24.6802 18 27.1739C18 29.6677 20.028 31.6957 22.5217 31.6957C23.4283 31.6957 24.2705 31.421 24.9793 30.9597L32.1123 37.4982C31.7743 38.1312 31.5652 38.8423 31.5652 39.6087C31.5652 42.1024 33.5932 44.1304 36.087 44.1304C38.5807 44.1304 40.6087 42.1024 40.6087 39.6087C40.6087 37.8983 39.6433 36.4254 38.2393 35.6567L40.6437 26.0401C43.1205 26.0209 45.1304 24.003 45.1304 21.5217ZM36.781 23.9024C37.1937 24.5626 37.7713 25.0984 38.4563 25.4737L36.053 35.0915C35.16 35.0983 34.3303 35.3684 33.6305 35.8229L26.4975 29.2844C26.8355 28.6514 27.0446 27.9403 27.0446 27.1739C27.0446 27.0982 27.0254 27.027 27.022 26.9523L36.781 23.9024Z" fill="black"/>
</g>
<defs>
<clipPath id="clip0_251_3252">
<rect width="27.1304" height="27.1304" fill="white" transform="translate(18 17)"/>
</clipPath>
</defs>
</svg>
