<svg width="62" height="62" viewBox="0 0 62 62" fill="none" xmlns="http://www.w3.org/2000/svg">
<g clip-path="url(#clip0_251_3669)">
<path fill-rule="evenodd" clip-rule="evenodd" d="M5.02734 5.02703C5.02734 2.25068 7.27802 0 10.0544 0H51.9463C54.7226 0 56.9733 2.25068 56.9733 5.02703V46.9189C56.9733 49.6953 54.7226 51.9459 51.9463 51.9459H46.0755C46.0794 51.8068 46.0814 51.6672 46.0814 51.5271C46.0814 43.4294 39.5169 36.8649 31.4192 36.8649C23.3215 36.8649 16.7571 43.4294 16.7571 51.5271C16.7571 51.6672 16.759 51.8068 16.7629 51.9459H10.0544C7.27802 51.9459 5.02734 49.6953 5.02734 46.9189V5.02703ZM12.5683 5.86487C11.6428 5.86487 10.8926 6.61509 10.8926 7.54054V15.9189C10.8926 16.8444 11.6428 17.5946 12.5683 17.5946H49.4331C50.3586 17.5946 51.1088 16.8444 51.1088 15.9189V7.54054C51.1088 6.61509 50.3586 5.86487 49.4331 5.86487H12.5683ZM12.5683 21.7838C11.6428 21.7838 10.8926 22.534 10.8926 23.4595V30.1622C10.8926 31.0876 11.6428 31.8378 12.5683 31.8378H20.1088C21.0342 31.8378 21.7845 31.0876 21.7845 30.1622V23.4595C21.7845 22.534 21.0342 21.7838 20.1088 21.7838H12.5683ZM25.9736 23.4595C25.9736 22.534 26.7239 21.7838 27.6493 21.7838H35.1899C36.1153 21.7838 36.8655 22.534 36.8655 23.4595V30.1622C36.8655 31.0876 36.1153 31.8378 35.1899 31.8378H27.6493C26.7239 31.8378 25.9736 31.0876 25.9736 30.1622V23.4595ZM42.7304 21.7838C41.805 21.7838 41.0547 22.534 41.0547 23.4595V30.1622C41.0547 31.0876 41.805 31.8378 42.7304 31.8378H50.2709C51.1964 31.8378 51.9466 31.0876 51.9466 30.1622V23.4595C51.9466 22.534 51.1964 21.7838 50.2709 21.7838H42.7304Z" fill="#00B3FF"/>
<g clip-path="url(#clip1_251_3669)">
<path d="M24.3265 57.3866L26.6033 56.0747C27.5795 57.1268 28.8511 57.89 30.2969 58.2208V60.8365H33.5241V58.2208C34.9699 57.89 36.243 57.1268 37.2177 56.0747L39.4945 57.3866L41.1049 54.5902L38.82 53.2735C39.0281 52.599 39.1717 51.8971 39.1717 51.1548C39.1717 50.4126 39.0281 49.7106 38.82 49.0362L41.1049 47.7194L39.4945 44.9231L37.2177 46.2349C36.2414 45.1828 34.9699 44.4196 33.5241 44.0888V41.4731H30.2969V44.0888C28.8511 44.4196 27.5779 45.1828 26.6033 46.2349L24.3265 44.9231L22.7161 47.7194L25.001 49.0362C24.7928 49.7106 24.6492 50.4126 24.6492 51.1548C24.6492 51.8971 24.7928 52.599 25.001 53.2735L22.7161 54.5902L24.3265 57.3866ZM31.9105 48.7344C33.2449 48.7344 34.3309 49.8204 34.3309 51.1548C34.3309 52.4893 33.2449 53.5752 31.9105 53.5752C30.576 53.5752 29.4901 52.4893 29.4901 51.1548C29.4901 49.8204 30.576 48.7344 31.9105 48.7344ZM33.5241 75.359V76.9726H39.9785V80.1999H23.8424V76.9726H30.2969V75.359H12.5471V54.3821C12.5471 51.7131 14.719 49.5412 17.388 49.5412H19.1129C19.0468 50.0705 19.0016 50.6078 19.0016 51.1548C19.0016 58.2838 24.7815 64.0637 31.9105 64.0637C39.0394 64.0637 44.8194 58.2838 44.8194 51.1548C44.8194 50.6078 44.7742 50.0705 44.708 49.5412H46.433C49.1019 49.5412 51.2738 51.7131 51.2738 54.3821V75.359H33.5241Z" fill="#F04A90"/>
</g>
</g>
<defs>
<clipPath id="clip0_251_3669">
<rect width="62" height="62" fill="white"/>
</clipPath>
<clipPath id="clip1_251_3669">
<rect x="22.1565" y="41.4731" width="19.3634" height="20.1081" rx="9.68168" fill="white"/>
</clipPath>
</defs>
</svg>
