<svg width="63" height="62" viewBox="0 0 63 62" fill="none" xmlns="http://www.w3.org/2000/svg">
<circle cx="31.5" cy="31" r="31" fill="white"/>
<g clip-path="url(#clip0_251_3230)">
<path d="M32.7555 22.7415C33.8532 21.7139 35.4052 20.0737 36.027 18.5091C36.3152 17.7845 35.7365 17 34.9565 17H28.1739C27.3939 17 26.8151 17.7834 27.1033 18.5091C27.7251 20.0737 29.2772 21.7139 30.3748 22.7415C24.2953 23.6447 19.1304 31.2638 19.1304 37.3478C19.1304 41.0884 22.1724 44.1304 25.913 44.1304H37.2173C40.9579 44.1304 43.9999 41.0884 43.9999 37.3478C43.9999 31.2638 38.835 23.6447 32.7555 22.7415ZM30.0323 32.5559L33.4711 33.129C34.987 33.3811 36.088 34.6811 36.088 36.2185C36.088 38.0883 34.5665 39.6098 32.6967 39.6098V40.7403C32.6967 41.3643 32.1903 41.8707 31.5663 41.8707C30.9423 41.8707 30.4359 41.3643 30.4359 40.7403V39.6098H30.1329C28.9256 39.6098 27.8008 38.961 27.196 37.9153C26.884 37.375 27.0683 36.6843 27.6086 36.3711C28.1467 36.058 28.8397 36.2423 29.1528 36.7837C29.354 37.1319 29.7305 37.349 30.1329 37.349H32.6967C33.3196 37.349 33.8272 36.8414 33.8272 36.2185C33.8272 35.7912 33.5208 35.4295 33.0992 35.3594L29.6604 34.7863C28.1445 34.5342 27.0434 33.2342 27.0434 31.6968C27.0434 29.827 28.565 28.3055 30.4347 28.3055V27.175C30.4347 26.551 30.9412 26.0446 31.5652 26.0446C32.1892 26.0446 32.6956 26.551 32.6956 27.175V28.3055H32.9985C34.2047 28.3055 35.3306 28.9555 35.9354 30.0011C36.2474 30.5415 36.0632 31.2322 35.5228 31.5453C34.9836 31.8584 34.2918 31.6742 33.9786 31.1327C33.7763 30.7834 33.401 30.5675 32.9985 30.5675H30.4347C29.8119 30.5675 29.3043 31.075 29.3043 31.6979C29.3043 32.1252 29.6106 32.487 30.0323 32.557V32.5559Z" fill="black"/>
</g>
<defs>
<clipPath id="clip0_251_3230">
<rect width="27.1304" height="27.1304" fill="white" transform="translate(18 17)"/>
</clipPath>
</defs>
</svg>
