<svg width="62" height="62" viewBox="0 0 62 62" fill="none" xmlns="http://www.w3.org/2000/svg">
<circle cx="31" cy="31" r="31" fill="white"/>
<g clip-path="url(#clip0_251_3237)">
<path d="M42.3695 41.8696H41.2391V32.825C42.4871 32.8204 43.4999 31.8053 43.4999 30.5562C43.4999 29.7242 43.0455 28.96 42.3164 28.5643L32.5901 23.2592C32.4635 23.1903 32.3267 23.1541 32.1945 23.1043V21.9513L35.1732 20.103C35.7327 19.73 35.7203 18.9048 35.1505 18.5487L32.3674 17.243C32.1131 17.0837 31.8192 17 31.5185 17C30.6345 17 29.9166 17.7167 29.9166 18.6018V22.6522H29.9336V23.1043C29.8013 23.1552 29.6645 23.1903 29.5379 23.2592L19.8139 28.5643C19.0837 28.9611 18.6304 29.723 18.6304 30.5562C18.6304 31.8053 19.6444 32.8204 20.8912 32.825V41.8696H19.7608C19.1368 41.8696 18.6304 42.3749 18.6304 43C18.6304 43.6251 19.1368 44.1304 19.7608 44.1304H42.3695C42.9946 44.1304 43.4999 43.6251 43.4999 43C43.4999 42.3749 42.9946 41.8696 42.3695 41.8696ZM29.9347 32.8261V41.8696H27.6739V32.8261H29.9347ZM32.1956 32.8261H34.4565V41.8696H32.1956V32.8261ZM36.7173 32.8261H38.9782V41.8696H36.7173V32.8261ZM23.1521 32.8261H25.413V41.8696H23.1521V32.8261Z" fill="black"/>
</g>
<defs>
<clipPath id="clip0_251_3237">
<rect width="27.1304" height="27.1304" fill="white" transform="translate(17.5 17)"/>
</clipPath>
</defs>
</svg>
