<svg width="102" height="17" viewBox="0 0 102 17" fill="none" xmlns="http://www.w3.org/2000/svg">
<path d="M97.051 9.7695L101.848 16.0309H96.9057L93.1265 10.172V16.0309H89.1572V0.768799H95.3291C96.1863 0.768799 96.9131 0.876882 97.5094 1.09305C98.1057 1.30921 98.6275 1.64837 99.0748 2.11052C99.9469 3.03481 100.383 4.16037 100.383 5.48718C100.383 6.15804 100.256 6.79535 100.003 7.39913C99.7568 8.0029 99.4214 8.49486 98.9965 8.87502C98.5194 9.28499 97.8709 9.58315 97.051 9.7695ZM93.1265 7.60039H93.8644C94.6173 7.60039 95.1838 7.46621 95.5639 7.19787C95.7726 7.04134 95.9478 6.82517 96.0894 6.54937C96.2311 6.26612 96.3019 5.9866 96.3019 5.7108C96.3019 5.44245 96.2311 5.16666 96.0894 4.8834C95.9478 4.60015 95.7726 4.38026 95.5639 4.22373C95.1912 3.95538 94.6247 3.82121 93.8644 3.82121H93.1265V7.60039Z" fill="#8F98A8"/>
<path d="M86.6417 4.1231H81.9234V6.67236H86.3846V10.0267H81.9234V12.6766H86.6417V16.0309H77.9541V0.768799H86.6417V4.1231Z" fill="#8F98A8"/>
<path d="M65.0396 6.66118H70.7642V0.768799H74.7335V16.0309H70.7642V9.74714H65.0396V16.0309H61.0703V0.768799H65.0396V6.66118Z" fill="#8F98A8"/>
<path d="M57.9962 1.21607V5.96799C57.0868 4.84989 55.9426 4.29084 54.5636 4.29084C53.3561 4.29084 52.3498 4.71572 51.5448 5.56547C50.8292 6.31087 50.4714 7.28735 50.4714 8.49489C50.4714 9.79934 50.9186 10.828 51.8131 11.5808C52.6181 12.2592 53.5313 12.5983 54.5525 12.5983C55.8345 12.5983 56.9825 12.0654 57.9962 10.9994V15.6955C57.057 16.0085 56.3675 16.2098 55.9277 16.2992C55.4879 16.3961 54.9922 16.4446 54.4406 16.4446C53.0393 16.4446 51.6938 16.0905 50.4043 15.3824C49.0328 14.6295 47.9967 13.627 47.296 12.3747C46.6475 11.2342 46.3232 9.95215 46.3232 8.52844C46.3232 6.93328 46.7183 5.50212 47.5084 4.23494C48.2538 3.02739 49.2862 2.08073 50.6056 1.39496C51.8131 0.761375 53.0803 0.44458 54.4071 0.44458C55.4954 0.44458 56.6917 0.701743 57.9962 1.21607Z" fill="#8F98A8"/>
<path d="M40.8996 9.7695L45.6963 16.0309H40.7543L36.9751 10.172V16.0309H33.0059V0.768799H39.1778C40.035 0.768799 40.7617 0.876882 41.3581 1.09305C41.9544 1.30921 42.4762 1.64837 42.9234 2.11052C43.7955 3.03481 44.2316 4.16037 44.2316 5.48718C44.2316 6.15804 44.1049 6.79535 43.8514 7.39913C43.6054 8.0029 43.27 8.49486 42.8451 8.87502C42.3681 9.28499 41.7196 9.58315 40.8996 9.7695ZM36.9751 7.60039H37.7131C38.4659 7.60039 39.0324 7.46621 39.4126 7.19787C39.6213 7.04134 39.7964 6.82517 39.9381 6.54937C40.0797 6.26612 40.1505 5.9866 40.1505 5.7108C40.1505 5.44245 40.0797 5.16666 39.9381 4.8834C39.7964 4.60015 39.6213 4.38026 39.4126 4.22373C39.0399 3.95538 38.4734 3.82121 37.7131 3.82121H36.9751V7.60039Z" fill="#8F98A8"/>
<path d="M26.0292 13.3698H20.5505L19.4995 16.0309H15.3066L21.1767 0.768799H25.5037L31.2507 16.0309H27.0131L26.0292 13.3698ZM24.9558 10.3509L23.3122 5.48718L21.6463 10.3509H24.9558Z" fill="#8F98A8"/>
<path d="M3.96925 7.0637L8.81062 0.768799H13.7079L7.6478 7.99172L14.2669 16.0309H9.12369L3.96925 9.41171V16.0309H0V0.768799H3.96925V7.0637Z" fill="#8F98A8"/>
</svg>
