<svg width="63" height="62" viewBox="0 0 63 62" fill="none" xmlns="http://www.w3.org/2000/svg">
<circle cx="31.0276" cy="31" r="31" fill="white"/>
<g clip-path="url(#clip0_0_1)">
<path d="M22.0705 27.2972C21.6575 26.8552 21.6575 26.1407 22.0705 25.6987L29.8878 17.3313C30.3007 16.8893 30.9682 16.8893 31.3811 17.3313C31.7941 17.7733 31.7941 18.4877 31.3811 18.9297L23.5638 27.2972C23.3579 27.5176 23.0875 27.6284 22.8171 27.6284C22.5468 27.6284 22.2764 27.5176 22.0705 27.2972ZM31.0432 36.9002C31.2491 37.1206 31.5195 37.2314 31.7898 37.2314C32.0602 37.2314 32.3306 37.1206 32.5365 36.9002L40.3538 28.5339C40.7668 28.0919 40.7668 27.3774 40.3538 26.9354C39.9409 26.4934 39.2734 26.4934 38.8605 26.9354L31.0432 35.3018C30.6302 35.7438 30.6302 36.4582 31.0432 36.9002ZM30.4919 32.8815L36.6923 26.2447L32.0306 21.255L25.8302 27.8918L27.4144 29.5874L16.6864 41.0704C16.2735 41.5124 16.2735 42.2268 16.6864 42.6688C16.8924 42.8893 17.1627 43 17.4331 43C17.7034 43 17.9738 42.8893 18.1798 42.6688L28.9077 31.1859L30.4919 32.8815ZM40.6675 41.8696H40.6136C40.3686 40.5809 39.3019 39.6087 38.0272 39.6087H29.5783C28.3026 39.6087 27.2369 40.5809 26.9919 41.8696H26.9381C26.354 41.8696 25.882 42.3749 25.882 43C25.882 43.6252 26.354 44.1305 26.9381 44.1305H40.6675C41.2515 44.1305 41.7236 43.6252 41.7236 43C41.7236 42.3749 41.2515 41.8696 40.6675 41.8696Z" fill="black"/>
</g>
<defs>
<clipPath id="clip0_0_1">
<rect width="25.3466" height="27.1304" fill="white" transform="translate(16.377 17)"/>
</clipPath>
</defs>
</svg>