<?xml version="1.0" encoding="UTF-8"?>
<svg id="_圖層_2" data-name="圖層 2" xmlns="http://www.w3.org/2000/svg" viewBox="0 0 376.44 582.71">
  <defs>
    <style>
      .cls-1 {
        fill: #091114;
      }
    </style>
  </defs>
  <g id="_圖層_1-2" data-name="圖層 1">
    <g>
      <path class="cls-1" d="M0,510.37c-.46-38.68,30.9-72.3,72.33-72.42,40.21-.12,72.29,32.48,72.22,72.56-.07,39.72-31.64,72.13-72.63,72.19C30.81,582.77-.32,548.83,0,510.37Z"/>
      <path class="cls-1" d="M241.14,108.29c-3.11-6.22-6.02-12.52-7.46-19.38-5.52-26.31,1.09-49.23,19.98-68.21,27.23-27.36,71.17-27.28,99.38-1.65,27.81,25.27,31.35,68.78,7.85,98.17-2.55,3.19-5.45,6.04-8.2,9.03-4.29,3.1-8.58,6.2-12.87,9.31-1.15,.54-2.31,1.09-3.46,1.63-24.11,11.37-47.62,10.08-70.51-3.47-5.88-3.48-10.86-8.1-15.65-12.92-3.01-4.17-6.03-8.34-9.04-12.51Z"/>
      <path class="cls-1" d="M244.88,258.25c-.46,23.77,5.13,45.09,17.49,64.56,2.6,4.09,5.46,8.01,8.63,11.66,9.57,11.04,15.36,23.71,16.08,38.38,1.27,25.64-8.78,45.73-30.78,59.08-21.59,13.1-49.78,10.05-68.65-6.58-11.76-10.36-18.24-23.44-21.6-38.65-5.99-27.09-20.63-48.68-43.05-65.1-18.25-13.37-29.45-31.32-32.66-53.76-3.9-27.27,3.69-51.1,23.22-70.69,12.49-12.53,27.81-19.82,45.42-21.53,22.56-2.18,42.4,4.57,59.21,19.82,14.69,13.32,23.13,30.02,26.08,49.56,.7,4.65,.71,9.34,.6,13.25Z"/>
    </g>
  </g>
</svg>