<svg width="63" height="62" viewBox="0 0 63 62" fill="none" xmlns="http://www.w3.org/2000/svg">
<circle cx="31.5276" cy="31" r="31" fill="white"/>
<g clip-path="url(#clip0_0_1)">
<path d="M37.8777 21.5217V27.1739C37.8777 29.6677 35.983 31.6957 33.6533 31.6957H25.2044C22.8746 31.6957 20.9799 29.6677 20.9799 27.1739V21.5217C20.9799 19.028 22.8746 17 25.2044 17H26.3819V22.6522C26.3819 23.899 27.3293 24.913 28.4942 24.913H30.6064C31.7713 24.913 32.7186 23.899 32.7186 22.6522V17H33.6533C35.983 17 37.8777 19.028 37.8777 21.5217ZM30.6064 17H28.4942V22.6522H30.6064V17ZM42.2236 39.0435C42.2236 41.8481 40.0913 44.1304 37.4711 44.1304H21.6294C19.0092 44.1304 16.877 41.8481 16.877 39.0435C16.877 36.2389 19.0092 33.9565 21.6294 33.9565H37.4711C40.0913 33.9565 42.2236 36.2389 42.2236 39.0435ZM23.2136 39.0435C23.2136 38.1075 22.5039 37.3478 21.6294 37.3478C20.755 37.3478 20.0453 38.1075 20.0453 39.0435C20.0453 39.9795 20.755 40.7391 21.6294 40.7391C22.5039 40.7391 23.2136 39.9795 23.2136 39.0435ZM31.1344 39.0435C31.1344 38.1075 30.4247 37.3478 29.5503 37.3478C28.6758 37.3478 27.9661 38.1075 27.9661 39.0435C27.9661 39.9795 28.6758 40.7391 29.5503 40.7391C30.4247 40.7391 31.1344 39.9795 31.1344 39.0435ZM39.0553 39.0435C39.0553 38.1075 38.3455 37.3478 37.4711 37.3478C36.5966 37.3478 35.8869 38.1075 35.8869 39.0435C35.8869 39.9795 36.5966 40.7391 37.4711 40.7391C38.3455 40.7391 39.0553 39.9795 39.0553 39.0435Z" fill="#152339"/>
</g>
<defs>
<clipPath id="clip0_0_1">
<rect width="25.3466" height="27.1304" fill="white" transform="translate(16.877 17)"/>
</clipPath>
</defs>
</svg>
