<svg width="32" height="33" viewBox="0 0 32 33" fill="none" xmlns="http://www.w3.org/2000/svg">
<path d="M25.3336 16.5303V17.1969C25.3336 17.5651 25.0352 17.8636 24.667 17.8636H17.0003V25.5303C17.0003 25.8984 16.7018 26.1969 16.3336 26.1969H15.667C15.2988 26.1969 15.0003 25.8984 15.0003 25.5303V17.8636H7.33366C6.96547 17.8636 6.66699 17.5651 6.66699 17.1969V16.5303C6.66699 16.1621 6.96547 15.8636 7.33366 15.8636H15.0003V8.19693C15.0003 7.82874 15.2988 7.53027 15.667 7.53027H16.3336C16.7018 7.53027 17.0003 7.82874 17.0003 8.19693V15.8636H24.667C25.0352 15.8636 25.3336 16.1621 25.3336 16.5303Z" fill="#8F98A8"/>
</svg>
