<svg width="63" height="62" viewBox="0 0 63 62" fill="none" xmlns="http://www.w3.org/2000/svg">
<circle cx="31.5276" cy="31" r="31" fill="white"/>
<g clip-path="url(#clip0_251_3244)">
<path d="M42.2236 42.532L39.2749 39.3758C39.8283 38.4817 40.1547 37.4134 40.1547 36.2637C40.1547 33.1471 37.7858 30.6116 34.8741 30.6116C31.9624 30.6116 29.5936 33.1471 29.5936 36.2637C29.5936 39.3803 31.9624 41.9159 34.8741 41.9159C35.9482 41.9159 36.9462 41.5666 37.7816 40.9743L40.7302 44.1304L42.2236 42.532ZM39.0553 17H20.0453C18.2985 17 16.877 18.5216 16.877 20.3913V24.913H42.2236V20.3913C42.2236 18.5216 40.8021 17 39.0553 17ZM20.5733 22.6522C19.6989 22.6522 18.9892 21.8925 18.9892 20.9565C18.9892 20.0205 19.6989 19.2609 20.5733 19.2609C21.4478 19.2609 22.1575 20.0205 22.1575 20.9565C22.1575 21.8925 21.4478 22.6522 20.5733 22.6522ZM24.7978 22.6522C23.9233 22.6522 23.2136 21.8925 23.2136 20.9565C23.2136 20.0205 23.9233 19.2609 24.7978 19.2609C25.6722 19.2609 26.3819 20.0205 26.3819 20.9565C26.3819 21.8925 25.6722 22.6522 24.7978 22.6522ZM16.877 27.1739H42.2236V36.2174C42.2236 31.8471 38.9137 28.3043 34.8308 28.3043C30.7479 28.3043 27.438 31.8471 27.438 36.2174C27.438 38.433 28.2914 40.4328 29.6622 41.8696H16.877V27.1739Z" fill="black"/>
</g>
<defs>
<clipPath id="clip0_251_3244">
<rect width="25.3466" height="27.1304" fill="white" transform="translate(16.877 17)"/>
</clipPath>
</defs>
</svg>
