<svg width="28" height="28" viewBox="0 0 28 28" fill="none" xmlns="http://www.w3.org/2000/svg">
<g clip-path="url(#clip0_18002_2883)">
<path d="M8.14788 13.0663C8.00661 13.0447 7.86407 13.0325 7.72121 13.0299C7.4002 13.0259 7.26365 13.1438 7.2646 13.1436C7.16991 13.2104 7.12402 13.3101 7.12402 13.4476C7.12402 13.5353 7.13997 13.6039 7.17118 13.652C7.19164 13.684 7.20022 13.6961 7.2619 13.7453L7.2628 13.7458C7.26179 13.7455 7.40338 13.8569 7.72338 13.8376C7.94869 13.824 8.14809 13.7811 8.14809 13.7811H8.14788V13.0663Z" fill="white"/>
<path d="M17.5569 12.1313C17.3496 12.1313 17.2028 12.2021 17.1063 12.3497C17.0092 12.4982 16.9597 12.7096 16.9597 12.9787C16.9597 13.2479 17.0089 13.4612 17.1063 13.6108C17.203 13.7589 17.3505 13.8311 17.5569 13.8311C17.7633 13.8311 17.9114 13.7583 18.0095 13.6097C18.1077 13.4593 18.158 13.2471 18.158 12.9782C18.158 12.7093 18.1083 12.498 18.0095 12.3497C17.9118 12.2028 17.7643 12.1313 17.5569 12.1313Z" fill="white"/>
<path d="M11.2388 12.1191C11.0324 12.1191 10.8857 12.1998 10.7892 12.3474C10.7249 12.4441 10.6838 12.5686 10.6616 12.7181L11.7831 12.7183C11.7725 12.5737 11.7441 12.4447 11.6794 12.3474C11.5817 12.2003 11.4451 12.1191 11.2388 12.1191Z" fill="white"/>
<path d="M21.7785 6.63975C20.9642 6.63933 20.1591 6.81091 19.4157 7.1432C18.5783 5.65781 17.0231 4.66087 15.2286 4.66087C13.8828 4.66087 12.6646 5.2251 11.7892 6.1363L11.7902 6.14149C10.8332 4.88041 9.30791 4.06787 7.60314 4.06787C4.69213 4.06787 2.3294 6.42064 2.3294 9.33171C2.32865 10.0519 2.47628 10.7646 2.76306 11.4253C1.4112 12.2227 0.5 13.6982 0.5 15.393C0.5 17.9153 2.52376 19.9688 5.02607 19.9688C5.33897 19.9691 5.65102 19.9366 5.95719 19.872C6.64504 21.7362 8.42956 23.0621 10.5331 23.0621C12.5469 23.0621 14.2765 21.8359 15.0192 20.0913C15.603 20.376 16.244 20.5232 16.8935 20.522C18.4885 20.522 19.8893 19.6348 20.622 18.3287C20.9988 18.4037 21.3837 18.4433 21.7784 18.4433C25.0085 18.4433 27.6304 15.8015 27.6304 12.5416C27.6304 9.28163 25.0085 6.63975 21.7785 6.63975ZM6.33161 13.4844C6.33161 13.9609 5.9857 14.257 5.42942 14.257C5.15626 14.257 4.89508 14.2141 4.61794 14.0676C4.56612 14.0376 4.51435 14.0109 4.46343 13.974C4.45792 13.9661 4.43481 13.9568 4.45188 13.9123L4.45145 13.9116L4.56114 13.6065C4.57847 13.5542 4.61837 13.5717 4.63432 13.5813C4.66452 13.5998 4.68688 13.6162 4.72604 13.6391C5.05007 13.8438 5.34904 13.8455 5.44283 13.8455C5.68409 13.8455 5.83463 13.7168 5.83463 13.5443V13.535C5.83463 13.3475 5.60333 13.2762 5.33616 13.194L5.27713 13.1756C4.91029 13.0709 4.51748 12.9194 4.51748 12.4548V12.4453C4.51748 12.0047 4.8734 11.6967 5.38279 11.6967L5.43832 11.6965C5.73739 11.6965 6.0265 11.7832 6.23586 11.9108C6.25488 11.9222 6.27343 11.9442 6.26289 11.9734C6.25292 12.0013 6.15993 12.2503 6.14922 12.2785C6.12957 12.3306 6.07557 12.2957 6.07557 12.2957C5.89313 12.195 5.60799 12.1153 5.36875 12.1153C5.1534 12.1153 5.01383 12.2299 5.01383 12.3855V12.3947C5.01383 12.5762 5.25207 12.6542 5.52824 12.7437L5.57599 12.7591C5.94087 12.8738 6.33167 13.0343 6.33167 13.4749L6.33161 13.4844ZM8.6137 14.0975C8.6137 14.0975 8.55546 14.1133 8.50305 14.1254C8.37169 14.1538 8.23975 14.1795 8.10728 14.2023C7.95176 14.2285 7.79125 14.2421 7.62974 14.2421C7.47623 14.2421 7.33666 14.2278 7.21303 14.1996C7.0884 14.1717 6.98046 14.1247 6.89303 14.0611C6.80512 13.9974 6.73454 13.9127 6.68765 13.8149C6.6398 13.7162 6.61558 13.5955 6.61558 13.456C6.61558 13.3184 6.64398 13.1968 6.69973 13.0931C6.75494 12.9903 6.83305 12.9016 6.92801 12.8339C7.0227 12.7657 7.13339 12.7144 7.25601 12.6813C7.37762 12.6485 7.50824 12.6317 7.64283 12.6317C7.74155 12.6317 7.82426 12.6339 7.88806 12.6387L7.88955 12.6423C7.88955 12.6423 8.01418 12.6536 8.14877 12.6731V12.6066C8.14877 12.3973 8.105 12.2977 8.01916 12.2317C7.93141 12.1645 7.79984 12.1301 7.63038 12.1301C7.63038 12.1301 7.24758 12.1251 6.94549 12.2896C6.93156 12.2979 6.91969 12.3025 6.91969 12.3025C6.91969 12.3025 6.8819 12.3158 6.86802 12.2771L6.75637 11.978C6.73942 11.9346 6.77052 11.9155 6.77052 11.9155C6.91206 11.8045 7.255 11.7379 7.255 11.7379C7.36866 11.7151 7.55905 11.6992 7.67669 11.6992C7.9907 11.6992 8.23297 11.772 8.39845 11.9166C8.56452 12.0611 8.64867 12.2954 8.64867 12.6105L8.64957 14.046C8.64962 14.046 8.65259 14.0876 8.6137 14.0975ZM9.66844 14.1481C9.66844 14.1744 9.64969 14.1958 9.6234 14.1958H9.20638C9.17994 14.1958 9.16123 14.1744 9.16123 14.1481V10.7917C9.16123 10.7654 9.17999 10.7442 9.20638 10.7442H9.6234C9.64974 10.7442 9.66844 10.7654 9.66844 10.7917V14.1481ZM12.2748 13.0666C12.2705 13.1072 12.229 13.1075 12.229 13.1075L10.6539 13.1063C10.6628 13.3456 10.7206 13.5141 10.8363 13.6297C10.95 13.7427 11.1314 13.8147 11.3747 13.8152C11.7485 13.8162 11.908 13.7406 12.0207 13.6985C12.0207 13.6985 12.0641 13.683 12.08 13.726L12.1827 14.0141C12.2033 14.0627 12.1868 14.0795 12.1695 14.0893C12.0718 14.1441 11.8325 14.2453 11.3779 14.2468C11.1566 14.2475 10.9652 14.2157 10.8067 14.1544C10.6472 14.0926 10.5146 14.0049 10.4109 13.8922C10.3082 13.7806 10.2313 13.646 10.1836 13.4925C10.1361 13.3399 10.1122 13.1714 10.1122 12.99C10.1122 12.8126 10.1353 12.6431 10.181 12.4885C10.2268 12.3321 10.299 12.1954 10.3943 12.0798C10.49 11.9642 10.6117 11.8716 10.7563 11.8036C10.9008 11.7362 11.0793 11.703 11.2757 11.703C11.4305 11.7027 11.5838 11.7338 11.7263 11.7944C11.825 11.8363 11.9237 11.9131 12.0253 12.0217C12.0891 12.0905 12.1872 12.2411 12.2267 12.3895L12.2278 12.3899C12.3288 12.7436 12.2765 13.0499 12.2748 13.0666ZM13.5741 14.2562C13.301 14.2562 13.0398 14.2133 12.7626 14.0668C12.7108 14.0368 12.6588 14.0101 12.6081 13.9731C12.6024 13.9653 12.5792 13.956 12.5963 13.9116L12.5951 13.9107L12.7048 13.6056C12.7208 13.5558 12.7678 13.5741 12.7778 13.5805C12.8076 13.5997 12.8305 13.6154 12.8697 13.6382C13.1927 13.843 13.4925 13.8446 13.5865 13.8446C13.8277 13.8446 13.9783 13.716 13.9783 13.5435V13.5342C13.9783 13.3467 13.748 13.2754 13.4798 13.1932L13.4209 13.1748C13.054 13.0701 12.6612 12.9186 12.6612 12.454V12.4446C12.6612 12.0039 13.0171 11.6958 13.5265 11.6958L13.5822 11.6957C13.8812 11.6957 14.1703 11.7824 14.3797 11.91C14.3986 11.9213 14.4173 11.9434 14.4066 11.9726C14.3977 12.0005 14.3045 12.2495 14.294 12.2777C14.2742 12.3298 14.2202 12.2949 14.2202 12.2949C14.0368 12.1941 13.7526 12.1145 13.5134 12.1145C13.298 12.1145 13.1585 12.2291 13.1585 12.3847V12.3939C13.1585 12.5754 13.3967 12.6534 13.6729 12.7429L13.7206 12.7584C14.0865 12.873 14.4763 13.0335 14.4763 13.4741V13.4835C14.4764 13.9601 14.1304 14.2562 13.5741 14.2562ZM16.3267 12.13C16.3177 12.1773 16.274 12.1757 16.274 12.1757H15.756L15.4017 14.1804C15.3645 14.3877 15.3181 14.5655 15.2635 14.7088C15.2084 14.8534 15.1508 14.9594 15.0591 15.0605C14.9744 15.1544 14.8786 15.2236 14.7685 15.2634C14.6592 15.3029 14.5273 15.3232 14.3825 15.3232C14.3134 15.3232 14.2397 15.322 14.1521 15.3013C14.0891 15.2865 14.0547 15.2759 14.0085 15.2593C13.9888 15.2522 13.9731 15.2277 13.9842 15.1966C13.9952 15.1651 14.0878 14.9104 14.1009 14.877C14.1169 14.8361 14.1577 14.8516 14.1577 14.8516C14.1857 14.8634 14.2052 14.8718 14.2425 14.8792C14.2799 14.8867 14.3305 14.8931 14.3686 14.8931C14.437 14.8931 14.4994 14.8847 14.5537 14.8664C14.6194 14.8444 14.6574 14.8066 14.6976 14.7552C14.7391 14.7022 14.7728 14.6291 14.8073 14.5316C14.8423 14.4329 14.8739 14.3025 14.9015 14.144L15.2542 12.1757H14.9066C14.8648 12.1759 14.8513 12.1563 14.8554 12.125L14.914 11.798C14.9232 11.7505 14.9667 11.7523 14.9667 11.7523H15.3237L15.3429 11.6457C15.3963 11.33 15.5027 11.09 15.659 10.9325C15.8164 10.7738 16.0406 10.6934 16.325 10.6934C16.3966 10.6926 16.4682 10.6982 16.5388 10.71C16.5913 10.7191 16.6432 10.7314 16.6942 10.7468C16.7054 10.7512 16.7355 10.7661 16.7232 10.8016L16.6029 11.1318C16.5929 11.1567 16.586 11.1718 16.5347 11.1561C16.522 11.1524 16.503 11.1468 16.4543 11.1365C16.4189 11.1291 16.3724 11.1234 16.3251 11.1234C16.2679 11.1226 16.211 11.1309 16.1563 11.1477C16.1065 11.1641 16.0613 11.1922 16.0246 11.2297C15.9854 11.2691 15.939 11.3264 15.9144 11.3975C15.8567 11.564 15.8338 11.7408 15.8313 11.7522H16.3341C16.3762 11.752 16.3895 11.7715 16.3855 11.8029L16.3267 12.13ZM18.6216 13.4781C18.5758 13.6326 18.5049 13.7682 18.4102 13.8818C18.3155 13.9955 18.1949 14.0864 18.0533 14.151C17.9118 14.2156 17.7443 14.2485 17.5559 14.2485C17.3674 14.2485 17.1999 14.2156 17.0574 14.151C16.9158 14.0862 16.7953 13.9954 16.7005 13.8818C16.6058 13.7681 16.5347 13.6326 16.4892 13.4781C16.4438 13.3245 16.4207 13.157 16.4207 12.9786C16.4207 12.8002 16.4438 12.6327 16.4892 12.4791C16.535 12.3246 16.606 12.189 16.7005 12.0754C16.7952 11.9617 16.9159 11.8704 17.0574 11.8042C17.1999 11.7381 17.3664 11.7045 17.5559 11.7045C17.7453 11.7045 17.9128 11.7379 18.0543 11.8042C18.1969 11.87 18.3164 11.9618 18.4112 12.0754C18.5059 12.189 18.5768 12.3246 18.6226 12.4791H18.6216C18.6668 12.6326 18.6899 12.8011 18.6899 12.9786C18.6899 13.1571 18.6668 13.3245 18.6216 13.4781ZM20.5491 11.8282L20.5501 11.8217C20.5351 11.8646 20.4585 12.0798 20.4314 12.1517C20.4212 12.1791 20.4043 12.1976 20.374 12.1942C20.374 12.1942 20.2838 12.1731 20.2015 12.1731C20.13 12.1731 20.0589 12.1831 19.9901 12.2028C19.9169 12.2255 19.8503 12.2656 19.7957 12.3194C19.7386 12.3753 19.6922 12.4531 19.6582 12.5507C19.6236 12.6494 19.6062 12.8059 19.6062 12.9635V14.1398C19.6062 14.1662 19.5849 14.1875 19.5586 14.1875H19.1459C19.1195 14.1875 19.0982 14.1662 19.0981 14.1398V11.797C19.0981 11.7707 19.117 11.7495 19.1432 11.7495H19.5459C19.5724 11.7495 19.5911 11.7707 19.5911 11.797L19.5913 11.9884C19.6511 11.9067 19.759 11.836 19.8565 11.792C19.9552 11.7477 20.0648 11.7145 20.2622 11.7269C20.3649 11.7332 20.4986 11.7614 20.5254 11.7716C20.5259 11.7718 20.5263 11.772 20.5267 11.7722C20.5484 11.7814 20.5584 11.8065 20.5491 11.8282ZM22.5359 14.1255C22.3605 14.195 22.1162 14.2431 21.8779 14.2431C21.4752 14.2431 21.1661 14.1275 20.9607 13.8982C20.7554 13.6699 20.6517 13.3579 20.6517 12.973C20.6517 12.7946 20.6771 12.6261 20.7275 12.4726C20.7783 12.3181 20.8541 12.1825 20.9538 12.0689C21.0535 11.9551 21.1791 11.8638 21.3276 11.7977C21.4762 11.7315 21.6497 11.6981 21.845 11.6981C21.9766 11.6981 22.0933 11.706 22.194 11.7214C22.3016 11.7377 22.4438 11.7762 22.504 11.7998C22.5151 11.8041 22.5454 11.819 22.533 11.8544C22.4893 11.978 22.4592 12.0587 22.4184 12.1714C22.4009 12.2193 22.3645 12.2035 22.3645 12.2035C22.211 12.1554 22.0645 12.1332 21.8731 12.1332C21.6438 12.1332 21.4703 12.211 21.3576 12.3605C21.2435 12.512 21.1799 12.7094 21.1792 12.9726C21.1782 13.2617 21.25 13.475 21.3786 13.6077C21.5062 13.7401 21.6856 13.8071 21.9099 13.8071C22.0007 13.8071 22.0868 13.801 22.1641 13.7888C22.2409 13.7768 22.313 13.7529 22.3805 13.7271C22.3805 13.7271 22.4246 13.71 22.4398 13.7552H22.4401L22.5548 14.0702C22.5694 14.1093 22.5359 14.1255 22.5359 14.1255ZM24.8669 13.0666C24.8627 13.1072 24.8212 13.1075 24.8212 13.1075L23.246 13.1063C23.255 13.3456 23.3128 13.5141 23.4284 13.6297C23.5421 13.7427 23.7225 13.8147 23.9668 13.8152C24.3406 13.8162 24.5001 13.7406 24.6128 13.6985C24.6128 13.6985 24.6562 13.683 24.672 13.726L24.7747 14.0141C24.7953 14.0627 24.7788 14.0795 24.7613 14.0893C24.6636 14.1441 24.4244 14.2453 23.9698 14.2468C23.7495 14.2475 23.5571 14.2157 23.3986 14.1544C23.2391 14.0926 23.1064 14.0049 23.0028 13.8922C22.8991 13.7806 22.8223 13.646 22.7745 13.4925C22.7272 13.3399 22.7032 13.1714 22.7032 12.99C22.7032 12.8126 22.7264 12.6431 22.7722 12.4885C22.8181 12.3321 22.89 12.1954 22.9856 12.0798C23.0813 11.9642 23.2029 11.8716 23.3474 11.8036C23.492 11.7362 23.6705 11.703 23.8668 11.703C24.0217 11.7027 24.175 11.7338 24.3174 11.7944C24.4162 11.8363 24.5148 11.9131 24.6165 12.0217C24.6803 12.0905 24.7783 12.2411 24.8179 12.3895L24.82 12.3899C24.9209 12.7436 24.8686 13.0499 24.8669 13.0666Z" fill="white"/>
<path d="M23.83 12.1191C23.6236 12.1191 23.4767 12.1998 23.3804 12.3474C23.316 12.4441 23.275 12.5686 23.2528 12.7181L24.3743 12.7183C24.3638 12.5737 24.3354 12.4447 24.2706 12.3474C24.1729 12.2003 24.0363 12.1191 23.83 12.1191Z" fill="white"/>
</g>
<defs>
<clipPath id="clip0_18002_2883">
<rect width="27.1304" height="27.1304" fill="white" transform="translate(0.5)"/>
</clipPath>
</defs>
</svg>
