<svg width="116" height="20" viewBox="0 0 116 20" fill="none" xmlns="http://www.w3.org/2000/svg">
<g clip-path="url(#clip0_340_648)">
<path d="M9.07088 1.03117C9.41462 0.214708 10.5854 0.214709 10.9291 1.03117L12.9579 5.85006C13.1029 6.19426 13.4306 6.42943 13.8067 6.45922L19.0727 6.8763C19.9649 6.94697 20.3267 8.04696 19.6469 8.62222L15.6348 12.0175C15.3482 12.26 15.223 12.6406 15.3106 13.0032L16.5363 18.0798C16.744 18.9399 15.7969 19.6198 15.033 19.1589L10.5245 16.4384C10.2025 16.244 9.7975 16.244 9.47548 16.4384L4.96699 19.1589C4.20311 19.6198 3.25596 18.9399 3.46363 18.0798L4.68942 13.0032C4.77698 12.6406 4.65182 12.26 4.36526 12.0175L0.353062 8.62222C-0.326718 8.04696 0.0350679 6.94697 0.927291 6.8763L6.19336 6.45922C6.5695 6.42943 6.89716 6.19426 7.04207 5.85006L9.07088 1.03117Z" fill="#FFF500"/>
<path d="M33.0709 1.03117C33.4146 0.214708 34.5854 0.214709 34.9291 1.03117L36.9579 5.85006C37.1029 6.19426 37.4306 6.42943 37.8067 6.45922L43.0727 6.8763C43.9649 6.94697 44.3267 8.04696 43.6469 8.62222L39.6348 12.0175C39.3482 12.26 39.223 12.6406 39.3106 13.0032L40.5363 18.0798C40.744 18.9399 39.7969 19.6198 39.033 19.1589L34.5245 16.4384C34.2025 16.244 33.7975 16.244 33.4755 16.4384L28.967 19.1589C28.2031 19.6198 27.256 18.9399 27.4636 18.0798L28.6894 13.0032C28.777 12.6406 28.6518 12.26 28.3653 12.0175L24.3531 8.62222C23.6733 8.04696 24.0351 6.94697 24.9273 6.8763L30.1934 6.45922C30.5695 6.42943 30.8972 6.19426 31.0421 5.85006L33.0709 1.03117Z" fill="#FFF500"/>
<path d="M57.0709 1.03117C57.4146 0.214708 58.5854 0.214709 58.9291 1.03117L60.9579 5.85006C61.1029 6.19426 61.4306 6.42943 61.8067 6.45922L67.0727 6.8763C67.9649 6.94697 68.3267 8.04696 67.6469 8.62222L63.6348 12.0175C63.3482 12.26 63.223 12.6406 63.3106 13.0032L64.5363 18.0798C64.744 18.9399 63.7969 19.6198 63.033 19.1589L58.5245 16.4384C58.2025 16.244 57.7975 16.244 57.4755 16.4384L52.967 19.1589C52.2031 19.6198 51.256 18.9399 51.4636 18.0798L52.6894 13.0032C52.777 12.6406 52.6518 12.26 52.3653 12.0175L48.3531 8.62222C47.6733 8.04696 48.0351 6.94697 48.9273 6.8763L54.1934 6.45922C54.5695 6.42943 54.8972 6.19426 55.0421 5.85006L57.0709 1.03117Z" fill="#FFF500"/>
<path d="M81.0706 1.03117C81.4144 0.214708 82.5851 0.214709 82.9289 1.03117L84.9576 5.85006C85.1026 6.19426 85.4303 6.42943 85.8064 6.45922L91.0724 6.8763C91.9646 6.94697 92.3264 8.04696 91.6466 8.62222L87.6345 12.0175C87.348 12.26 87.2228 12.6406 87.3103 13.0032L88.5361 18.0798C88.7438 18.9399 87.7966 19.6198 87.0328 19.1589L82.5243 16.4384C82.2023 16.244 81.7973 16.244 81.4752 16.4384L76.9667 19.1589C76.2029 19.6198 75.2557 18.9399 75.4634 18.0798L76.6892 13.0032C76.7767 12.6406 76.6516 12.26 76.365 12.0175L72.3528 8.62222C71.673 8.04696 72.0348 6.94697 72.927 6.8763L78.1931 6.45922C78.5693 6.42943 78.8969 6.19426 79.0418 5.85006L81.0706 1.03117Z" fill="#FFF500"/>
<path d="M105.071 1.03117C105.414 0.214708 106.585 0.214709 106.929 1.03117L108.958 5.85006C109.103 6.19426 109.43 6.42943 109.806 6.45922L115.072 6.8763C115.965 6.94697 116.326 8.04696 115.647 8.62222L111.635 12.0175C111.348 12.26 111.223 12.6406 111.31 13.0032L112.536 18.0798C112.744 18.9399 111.797 19.6198 111.033 19.1589L106.524 16.4384C106.202 16.244 105.797 16.244 105.475 16.4384L100.967 19.1589C100.203 19.6198 99.2557 18.9399 99.4634 18.0798L100.689 13.0032C100.777 12.6406 100.652 12.26 100.365 12.0175L96.3528 8.62222C95.673 8.04696 96.0348 6.94697 96.927 6.8763L102.193 6.45922C102.569 6.42943 102.897 6.19426 103.042 5.85006L105.071 1.03117Z" fill="#FFF500"/>
</g>
<defs>
<clipPath id="clip0_340_648">
<rect width="116" height="18.8889" fill="white" transform="translate(0 0.418823)"/>
</clipPath>
</defs>
</svg>
