<svg width="398" height="187" viewBox="0 0 398 187" fill="none" xmlns="http://www.w3.org/2000/svg">
<ellipse cx="176.5" cy="93.5" rx="170.5" ry="93" fill="#F1F6F8"/>
<path opacity="0.7" d="M346.5 93.5C346.5 100.868 341.871 107.973 333.298 114.511C324.733 121.043 312.307 126.948 296.908 131.915C266.116 141.848 223.545 148 176.5 148C129.455 148 86.8844 141.848 56.0918 131.915C40.6927 126.948 28.2672 121.043 19.7019 114.511C11.1291 107.973 6.5 100.868 6.5 93.5C6.5 86.1321 11.1291 79.0273 19.7019 72.4891C28.2672 65.9567 40.6927 60.0524 56.0918 55.085C86.8844 45.1519 129.455 39 176.5 39C223.545 39 266.116 45.1519 296.908 55.085C312.307 60.0524 324.733 65.9567 333.298 72.4891C341.871 79.0273 346.5 86.1321 346.5 93.5Z" stroke="#B7BFCC"/>
<path d="M283 90.5L278 87.6133L278 93.3868L283 90.5ZM6 91L278.5 91L278.5 90L6 90L6 91Z" fill="#B7BFCC"/>
<circle cx="6.5" cy="91" r="8" fill="white" stroke="white" stroke-width="3"/>
<circle cx="69" cy="91" r="13.5" fill="white" stroke="white" stroke-width="3"/>
<circle cx="233" cy="91" r="13.5" fill="white" stroke="white" stroke-width="3"/>
<g filter="url(#filter0_d_0_1)">
<circle cx="328.5" cy="91" r="39.5" fill="white"/>
</g>
<g clip-path="url(#clip0_0_1)">
<path d="M336 74.5H334.9C334.668 73.3714 334.054 72.3573 333.161 71.6287C332.269 70.9001 331.152 70.5015 330 70.5H328C326.848 70.5015 325.731 70.9001 324.839 71.6287C323.946 72.3573 323.332 73.3714 323.1 74.5H322C320.674 74.5016 319.404 75.0289 318.466 75.9662C317.529 76.9036 317.002 78.1744 317 79.5V82.5H341V79.5C340.998 78.1744 340.471 76.9036 339.534 75.9662C338.596 75.0289 337.326 74.5016 336 74.5ZM325.184 74.5C325.39 73.9171 325.771 73.4121 326.275 73.0541C326.779 72.6961 327.382 72.5026 328 72.5H330C330.618 72.5026 331.221 72.6961 331.725 73.0541C332.229 73.4121 332.61 73.9171 332.816 74.5H325.184Z" fill="#00B3FF"/>
<path d="M330 85.5C330 85.7652 329.895 86.0196 329.707 86.2071C329.52 86.3946 329.265 86.5 329 86.5C328.735 86.5 328.48 86.3946 328.293 86.2071C328.105 86.0196 328 85.7652 328 85.5V84.5H317V89.5C317.002 90.8256 317.529 92.0964 318.466 93.0338C319.404 93.9711 320.674 94.4984 322 94.5H336C337.326 94.4984 338.596 93.9711 339.534 93.0338C340.471 92.0964 340.998 90.8256 341 89.5V84.5H330V85.5Z" fill="#00B3FF"/>
</g>
<path d="M310.116 108.576C310.448 108.576 310.734 108.538 310.974 108.462C311.214 108.386 311.41 108.28 311.562 108.144C311.718 108.004 311.832 107.84 311.904 107.652C311.976 107.46 312.012 107.25 312.012 107.022C312.012 106.578 311.854 106.228 311.538 105.972C311.222 105.712 310.748 105.582 310.116 105.582H308.256V108.576H310.116ZM308.256 101.82V104.754H309.792C310.12 104.754 310.404 104.718 310.644 104.646C310.888 104.574 311.088 104.474 311.244 104.346C311.404 104.218 311.522 104.064 311.598 103.884C311.674 103.7 311.712 103.5 311.712 103.284C311.712 102.776 311.56 102.406 311.256 102.174C310.952 101.938 310.48 101.82 309.84 101.82H308.256ZM309.84 100.902C310.368 100.902 310.822 100.954 311.202 101.058C311.586 101.162 311.9 101.31 312.144 101.502C312.392 101.694 312.574 101.93 312.69 102.21C312.806 102.486 312.864 102.798 312.864 103.146C312.864 103.358 312.83 103.562 312.762 103.758C312.698 103.95 312.6 104.13 312.468 104.298C312.336 104.466 312.168 104.618 311.964 104.754C311.764 104.886 311.528 104.994 311.256 105.078C311.888 105.198 312.362 105.424 312.678 105.756C312.998 106.084 313.158 106.516 313.158 107.052C313.158 107.416 313.09 107.748 312.954 108.048C312.822 108.348 312.626 108.606 312.366 108.822C312.11 109.038 311.794 109.206 311.418 109.326C311.042 109.442 310.614 109.5 310.134 109.5H307.098V100.902H309.84ZM319.473 103.422V109.5H318.837C318.685 109.5 318.589 109.426 318.549 109.278L318.465 108.624C318.201 108.916 317.905 109.152 317.577 109.332C317.249 109.508 316.873 109.596 316.449 109.596C316.117 109.596 315.823 109.542 315.567 109.434C315.315 109.322 315.103 109.166 314.931 108.966C314.759 108.766 314.629 108.524 314.541 108.24C314.457 107.956 314.415 107.642 314.415 107.298V103.422H315.483V107.298C315.483 107.758 315.587 108.114 315.795 108.366C316.007 108.618 316.329 108.744 316.761 108.744C317.077 108.744 317.371 108.67 317.643 108.522C317.919 108.37 318.173 108.162 318.405 107.898V103.422H319.473ZM324.706 104.424C324.658 104.512 324.584 104.556 324.484 104.556C324.424 104.556 324.356 104.534 324.28 104.49C324.204 104.446 324.11 104.398 323.998 104.346C323.89 104.29 323.76 104.24 323.608 104.196C323.456 104.148 323.276 104.124 323.068 104.124C322.888 104.124 322.726 104.148 322.582 104.196C322.438 104.24 322.314 104.302 322.21 104.382C322.11 104.462 322.032 104.556 321.976 104.664C321.924 104.768 321.898 104.882 321.898 105.006C321.898 105.162 321.942 105.292 322.03 105.396C322.122 105.5 322.242 105.59 322.39 105.666C322.538 105.742 322.706 105.81 322.894 105.87C323.082 105.926 323.274 105.988 323.47 106.056C323.67 106.12 323.864 106.192 324.052 106.272C324.24 106.352 324.408 106.452 324.556 106.572C324.704 106.692 324.822 106.84 324.91 107.016C325.002 107.188 325.048 107.396 325.048 107.64C325.048 107.92 324.998 108.18 324.898 108.42C324.798 108.656 324.65 108.862 324.454 109.038C324.258 109.21 324.018 109.346 323.734 109.446C323.45 109.546 323.122 109.596 322.75 109.596C322.326 109.596 321.942 109.528 321.598 109.392C321.254 109.252 320.962 109.074 320.722 108.858L320.974 108.45C321.006 108.398 321.044 108.358 321.088 108.33C321.132 108.302 321.188 108.288 321.256 108.288C321.328 108.288 321.404 108.316 321.484 108.372C321.564 108.428 321.66 108.49 321.772 108.558C321.888 108.626 322.028 108.688 322.192 108.744C322.356 108.8 322.56 108.828 322.804 108.828C323.012 108.828 323.194 108.802 323.35 108.75C323.506 108.694 323.636 108.62 323.74 108.528C323.844 108.436 323.92 108.33 323.968 108.21C324.02 108.09 324.046 107.962 324.046 107.826C324.046 107.658 324 107.52 323.908 107.412C323.82 107.3 323.702 107.206 323.554 107.13C323.406 107.05 323.236 106.982 323.044 106.926C322.856 106.866 322.662 106.804 322.462 106.74C322.266 106.676 322.072 106.604 321.88 106.524C321.692 106.44 321.524 106.336 321.376 106.212C321.228 106.088 321.108 105.936 321.016 105.756C320.928 105.572 320.884 105.35 320.884 105.09C320.884 104.858 320.932 104.636 321.028 104.424C321.124 104.208 321.264 104.02 321.448 103.86C321.632 103.696 321.858 103.566 322.126 103.47C322.394 103.374 322.7 103.326 323.044 103.326C323.444 103.326 323.802 103.39 324.118 103.518C324.438 103.642 324.714 103.814 324.946 104.034L324.706 104.424ZM327.486 103.422V109.5H326.418V103.422H327.486ZM327.714 101.514C327.714 101.618 327.692 101.716 327.648 101.808C327.608 101.896 327.552 101.976 327.48 102.048C327.412 102.116 327.33 102.17 327.234 102.21C327.142 102.25 327.044 102.27 326.94 102.27C326.836 102.27 326.738 102.25 326.646 102.21C326.558 102.17 326.48 102.116 326.412 102.048C326.344 101.976 326.29 101.896 326.25 101.808C326.21 101.716 326.19 101.618 326.19 101.514C326.19 101.41 326.21 101.312 326.25 101.22C326.29 101.124 326.344 101.042 326.412 100.974C326.48 100.902 326.558 100.846 326.646 100.806C326.738 100.766 326.836 100.746 326.94 100.746C327.044 100.746 327.142 100.766 327.234 100.806C327.33 100.846 327.412 100.902 327.48 100.974C327.552 101.042 327.608 101.124 327.648 101.22C327.692 101.312 327.714 101.41 327.714 101.514ZM330.249 104.304C330.381 104.156 330.521 104.022 330.669 103.902C330.817 103.782 330.973 103.68 331.137 103.596C331.305 103.508 331.481 103.442 331.665 103.398C331.853 103.35 332.055 103.326 332.271 103.326C332.603 103.326 332.895 103.382 333.147 103.494C333.403 103.602 333.615 103.758 333.783 103.962C333.955 104.162 334.085 104.404 334.173 104.688C334.261 104.972 334.305 105.286 334.305 105.63V109.5H333.231V105.63C333.231 105.17 333.125 104.814 332.913 104.562C332.705 104.306 332.387 104.178 331.959 104.178C331.643 104.178 331.347 104.254 331.071 104.406C330.799 104.558 330.547 104.764 330.315 105.024V109.5H329.241V103.422H329.883C330.035 103.422 330.129 103.496 330.165 103.644L330.249 104.304ZM340 105.798C340 105.55 339.964 105.324 339.892 105.12C339.824 104.912 339.722 104.734 339.586 104.586C339.454 104.434 339.292 104.318 339.1 104.238C338.908 104.154 338.69 104.112 338.446 104.112C337.934 104.112 337.528 104.262 337.228 104.562C336.932 104.858 336.748 105.27 336.676 105.798H340ZM340.864 108.648C340.732 108.808 340.574 108.948 340.39 109.068C340.206 109.184 340.008 109.28 339.796 109.356C339.588 109.432 339.372 109.488 339.148 109.524C338.924 109.564 338.702 109.584 338.482 109.584C338.062 109.584 337.674 109.514 337.318 109.374C336.966 109.23 336.66 109.022 336.4 108.75C336.144 108.474 335.944 108.134 335.8 107.73C335.656 107.326 335.584 106.862 335.584 106.338C335.584 105.914 335.648 105.518 335.776 105.15C335.908 104.782 336.096 104.464 336.34 104.196C336.584 103.924 336.882 103.712 337.234 103.56C337.586 103.404 337.982 103.326 338.422 103.326C338.786 103.326 339.122 103.388 339.43 103.512C339.742 103.632 340.01 103.808 340.234 104.04C340.462 104.268 340.64 104.552 340.768 104.892C340.896 105.228 340.96 105.612 340.96 106.044C340.96 106.212 340.942 106.324 340.906 106.38C340.87 106.436 340.802 106.464 340.702 106.464H336.64C336.652 106.848 336.704 107.182 336.796 107.466C336.892 107.75 337.024 107.988 337.192 108.18C337.36 108.368 337.56 108.51 337.792 108.606C338.024 108.698 338.284 108.744 338.572 108.744C338.84 108.744 339.07 108.714 339.262 108.654C339.458 108.59 339.626 108.522 339.766 108.45C339.906 108.378 340.022 108.312 340.114 108.252C340.21 108.188 340.292 108.156 340.36 108.156C340.448 108.156 340.516 108.19 340.564 108.258L340.864 108.648ZM345.812 104.424C345.764 104.512 345.69 104.556 345.59 104.556C345.53 104.556 345.462 104.534 345.386 104.49C345.31 104.446 345.216 104.398 345.104 104.346C344.996 104.29 344.866 104.24 344.714 104.196C344.562 104.148 344.382 104.124 344.174 104.124C343.994 104.124 343.832 104.148 343.688 104.196C343.544 104.24 343.42 104.302 343.316 104.382C343.216 104.462 343.138 104.556 343.082 104.664C343.03 104.768 343.004 104.882 343.004 105.006C343.004 105.162 343.048 105.292 343.136 105.396C343.228 105.5 343.348 105.59 343.496 105.666C343.644 105.742 343.812 105.81 344 105.87C344.188 105.926 344.38 105.988 344.576 106.056C344.776 106.12 344.97 106.192 345.158 106.272C345.346 106.352 345.514 106.452 345.662 106.572C345.81 106.692 345.928 106.84 346.016 107.016C346.108 107.188 346.154 107.396 346.154 107.64C346.154 107.92 346.104 108.18 346.004 108.42C345.904 108.656 345.756 108.862 345.56 109.038C345.364 109.21 345.124 109.346 344.84 109.446C344.556 109.546 344.228 109.596 343.856 109.596C343.432 109.596 343.048 109.528 342.704 109.392C342.36 109.252 342.068 109.074 341.828 108.858L342.08 108.45C342.112 108.398 342.15 108.358 342.194 108.33C342.238 108.302 342.294 108.288 342.362 108.288C342.434 108.288 342.51 108.316 342.59 108.372C342.67 108.428 342.766 108.49 342.878 108.558C342.994 108.626 343.134 108.688 343.298 108.744C343.462 108.8 343.666 108.828 343.91 108.828C344.118 108.828 344.3 108.802 344.456 108.75C344.612 108.694 344.742 108.62 344.846 108.528C344.95 108.436 345.026 108.33 345.074 108.21C345.126 108.09 345.152 107.962 345.152 107.826C345.152 107.658 345.106 107.52 345.014 107.412C344.926 107.3 344.808 107.206 344.66 107.13C344.512 107.05 344.342 106.982 344.15 106.926C343.962 106.866 343.768 106.804 343.568 106.74C343.372 106.676 343.178 106.604 342.986 106.524C342.798 106.44 342.63 106.336 342.482 106.212C342.334 106.088 342.214 105.936 342.122 105.756C342.034 105.572 341.99 105.35 341.99 105.09C341.99 104.858 342.038 104.636 342.134 104.424C342.23 104.208 342.37 104.02 342.554 103.86C342.738 103.696 342.964 103.566 343.232 103.47C343.5 103.374 343.806 103.326 344.15 103.326C344.55 103.326 344.908 103.39 345.224 103.518C345.544 103.642 345.82 103.814 346.052 104.034L345.812 104.424ZM351.003 104.424C350.955 104.512 350.881 104.556 350.781 104.556C350.721 104.556 350.653 104.534 350.577 104.49C350.501 104.446 350.407 104.398 350.295 104.346C350.187 104.29 350.057 104.24 349.905 104.196C349.753 104.148 349.573 104.124 349.365 104.124C349.185 104.124 349.023 104.148 348.879 104.196C348.735 104.24 348.611 104.302 348.507 104.382C348.407 104.462 348.329 104.556 348.273 104.664C348.221 104.768 348.195 104.882 348.195 105.006C348.195 105.162 348.239 105.292 348.327 105.396C348.419 105.5 348.539 105.59 348.687 105.666C348.835 105.742 349.003 105.81 349.191 105.87C349.379 105.926 349.571 105.988 349.767 106.056C349.967 106.12 350.161 106.192 350.349 106.272C350.537 106.352 350.705 106.452 350.853 106.572C351.001 106.692 351.119 106.84 351.207 107.016C351.299 107.188 351.345 107.396 351.345 107.64C351.345 107.92 351.295 108.18 351.195 108.42C351.095 108.656 350.947 108.862 350.751 109.038C350.555 109.21 350.315 109.346 350.031 109.446C349.747 109.546 349.419 109.596 349.047 109.596C348.623 109.596 348.239 109.528 347.895 109.392C347.551 109.252 347.259 109.074 347.019 108.858L347.271 108.45C347.303 108.398 347.341 108.358 347.385 108.33C347.429 108.302 347.485 108.288 347.553 108.288C347.625 108.288 347.701 108.316 347.781 108.372C347.861 108.428 347.957 108.49 348.069 108.558C348.185 108.626 348.325 108.688 348.489 108.744C348.653 108.8 348.857 108.828 349.101 108.828C349.309 108.828 349.491 108.802 349.647 108.75C349.803 108.694 349.933 108.62 350.037 108.528C350.141 108.436 350.217 108.33 350.265 108.21C350.317 108.09 350.343 107.962 350.343 107.826C350.343 107.658 350.297 107.52 350.205 107.412C350.117 107.3 349.999 107.206 349.851 107.13C349.703 107.05 349.533 106.982 349.341 106.926C349.153 106.866 348.959 106.804 348.759 106.74C348.563 106.676 348.369 106.604 348.177 106.524C347.989 106.44 347.821 106.336 347.673 106.212C347.525 106.088 347.405 105.936 347.313 105.756C347.225 105.572 347.181 105.35 347.181 105.09C347.181 104.858 347.229 104.636 347.325 104.424C347.421 104.208 347.561 104.02 347.745 103.86C347.929 103.696 348.155 103.566 348.423 103.47C348.691 103.374 348.997 103.326 349.341 103.326C349.741 103.326 350.099 103.39 350.415 103.518C350.735 103.642 351.011 103.814 351.243 104.034L351.003 104.424Z" fill="#3D4A5F"/>
<circle cx="151" cy="90.5" r="26" fill="#00B3FF"/>
<g clip-path="url(#clip1_0_1)">
<path d="M155 90.5C152.791 90.5 151 92.2907 151 94.5C151 96.7093 152.791 98.5 155 98.5C157.209 98.5 159 96.7093 159 94.5C159 92.2907 157.209 90.5 155 90.5ZM155.501 96.1267L155.499 96.1293C155.003 96.6253 154.127 96.6267 153.617 96.1167L152.162 94.6047L153.087 93.644L154.564 95.178L156.973 92.7093L157.905 93.6627L155.501 96.1267H155.501ZM145 86.5C145 84.294 146.794 82.5 149 82.5C151.206 82.5 153 84.294 153 86.5C153 88.706 151.206 90.5 149 90.5C146.794 90.5 145 88.706 145 86.5ZM151.481 98.5H143V95.1667C143 93.326 144.493 91.8333 146.333 91.8333H150.386C149.931 92.6187 149.667 93.5273 149.667 94.5C149.667 96.0953 150.371 97.5227 151.481 98.5Z" fill="white"/>
</g>
<path d="M114.636 127.36C114.968 127.36 115.26 127.316 115.512 127.228C115.768 127.14 115.982 127.018 116.154 126.862C116.33 126.702 116.462 126.512 116.55 126.292C116.638 126.072 116.682 125.83 116.682 125.566C116.682 125.018 116.512 124.59 116.172 124.282C115.836 123.974 115.324 123.82 114.636 123.82H113.256V127.36H114.636ZM114.636 122.902C115.18 122.902 115.652 122.966 116.052 123.094C116.456 123.218 116.79 123.396 117.054 123.628C117.318 123.86 117.514 124.14 117.642 124.468C117.774 124.796 117.84 125.162 117.84 125.566C117.84 125.966 117.77 126.332 117.63 126.664C117.49 126.996 117.284 127.282 117.012 127.522C116.744 127.762 116.41 127.95 116.01 128.086C115.614 128.218 115.156 128.284 114.636 128.284H113.256V131.5H112.098V122.902H114.636ZM119.95 126.64C120.142 126.224 120.378 125.9 120.658 125.668C120.938 125.432 121.28 125.314 121.684 125.314C121.812 125.314 121.934 125.328 122.05 125.356C122.17 125.384 122.276 125.428 122.368 125.488L122.29 126.286C122.266 126.386 122.206 126.436 122.11 126.436C122.054 126.436 121.972 126.424 121.864 126.4C121.756 126.376 121.634 126.364 121.498 126.364C121.306 126.364 121.134 126.392 120.982 126.448C120.834 126.504 120.7 126.588 120.58 126.7C120.464 126.808 120.358 126.944 120.262 127.108C120.17 127.268 120.086 127.452 120.01 127.66V131.5H118.936V125.422H119.548C119.664 125.422 119.744 125.444 119.788 125.488C119.832 125.532 119.862 125.608 119.878 125.716L119.95 126.64ZM124.435 125.422V131.5H123.367V125.422H124.435ZM124.663 123.514C124.663 123.618 124.641 123.716 124.597 123.808C124.557 123.896 124.501 123.976 124.429 124.048C124.361 124.116 124.279 124.17 124.183 124.21C124.091 124.25 123.993 124.27 123.889 124.27C123.785 124.27 123.687 124.25 123.595 124.21C123.507 124.17 123.429 124.116 123.361 124.048C123.293 123.976 123.239 123.896 123.199 123.808C123.159 123.716 123.139 123.618 123.139 123.514C123.139 123.41 123.159 123.312 123.199 123.22C123.239 123.124 123.293 123.042 123.361 122.974C123.429 122.902 123.507 122.846 123.595 122.806C123.687 122.766 123.785 122.746 123.889 122.746C123.993 122.746 124.091 122.766 124.183 122.806C124.279 122.846 124.361 122.902 124.429 122.974C124.501 123.042 124.557 123.124 124.597 123.22C124.641 123.312 124.663 123.41 124.663 123.514ZM128.752 125.326C129.196 125.326 129.596 125.4 129.952 125.548C130.308 125.696 130.612 125.906 130.864 126.178C131.116 126.45 131.308 126.78 131.44 127.168C131.576 127.552 131.644 127.982 131.644 128.458C131.644 128.938 131.576 129.37 131.44 129.754C131.308 130.138 131.116 130.466 130.864 130.738C130.612 131.01 130.308 131.22 129.952 131.368C129.596 131.512 129.196 131.584 128.752 131.584C128.304 131.584 127.9 131.512 127.54 131.368C127.184 131.22 126.88 131.01 126.628 130.738C126.376 130.466 126.182 130.138 126.046 129.754C125.914 129.37 125.848 128.938 125.848 128.458C125.848 127.982 125.914 127.552 126.046 127.168C126.182 126.78 126.376 126.45 126.628 126.178C126.88 125.906 127.184 125.696 127.54 125.548C127.9 125.4 128.304 125.326 128.752 125.326ZM128.752 130.75C129.352 130.75 129.8 130.55 130.096 130.15C130.392 129.746 130.54 129.184 130.54 128.464C130.54 127.74 130.392 127.176 130.096 126.772C129.8 126.368 129.352 126.166 128.752 126.166C128.448 126.166 128.182 126.218 127.954 126.322C127.73 126.426 127.542 126.576 127.39 126.772C127.242 126.968 127.13 127.21 127.054 127.498C126.982 127.782 126.946 128.104 126.946 128.464C126.946 129.184 127.094 129.746 127.39 130.15C127.69 130.55 128.144 130.75 128.752 130.75ZM134.012 126.64C134.204 126.224 134.44 125.9 134.72 125.668C135 125.432 135.342 125.314 135.746 125.314C135.874 125.314 135.996 125.328 136.112 125.356C136.232 125.384 136.338 125.428 136.43 125.488L136.352 126.286C136.328 126.386 136.268 126.436 136.172 126.436C136.116 126.436 136.034 126.424 135.926 126.4C135.818 126.376 135.696 126.364 135.56 126.364C135.368 126.364 135.196 126.392 135.044 126.448C134.896 126.504 134.762 126.588 134.642 126.7C134.526 126.808 134.42 126.944 134.324 127.108C134.232 127.268 134.148 127.452 134.072 127.66V131.5H132.998V125.422H133.61C133.726 125.422 133.806 125.444 133.85 125.488C133.894 125.532 133.924 125.608 133.94 125.716L134.012 126.64ZM138.497 125.422V131.5H137.429V125.422H138.497ZM138.725 123.514C138.725 123.618 138.703 123.716 138.659 123.808C138.619 123.896 138.563 123.976 138.491 124.048C138.423 124.116 138.341 124.17 138.245 124.21C138.153 124.25 138.055 124.27 137.951 124.27C137.847 124.27 137.749 124.25 137.657 124.21C137.569 124.17 137.491 124.116 137.423 124.048C137.355 123.976 137.301 123.896 137.261 123.808C137.221 123.716 137.201 123.618 137.201 123.514C137.201 123.41 137.221 123.312 137.261 123.22C137.301 123.124 137.355 123.042 137.423 122.974C137.491 122.902 137.569 122.846 137.657 122.806C137.749 122.766 137.847 122.746 137.951 122.746C138.055 122.746 138.153 122.766 138.245 122.806C138.341 122.846 138.423 122.902 138.491 122.974C138.563 123.042 138.619 123.124 138.659 123.22C138.703 123.312 138.725 123.41 138.725 123.514ZM145.892 131.5H144.824V126.316H141.692V129.964C141.692 130.22 141.754 130.41 141.878 130.534C142.002 130.658 142.162 130.72 142.358 130.72C142.47 130.72 142.566 130.706 142.646 130.678C142.73 130.646 142.802 130.612 142.862 130.576C142.922 130.54 142.972 130.508 143.012 130.48C143.056 130.448 143.094 130.432 143.126 130.432C143.182 130.432 143.232 130.466 143.276 130.534L143.588 131.044C143.404 131.216 143.182 131.352 142.922 131.452C142.662 131.548 142.394 131.596 142.118 131.596C141.638 131.596 141.268 131.462 141.008 131.194C140.752 130.926 140.624 130.54 140.624 130.036V126.316H139.892C139.828 126.316 139.774 126.298 139.73 126.262C139.686 126.222 139.664 126.162 139.664 126.082V125.656L140.66 125.524L140.906 123.652C140.918 123.592 140.944 123.544 140.984 123.508C141.028 123.468 141.084 123.448 141.152 123.448H141.692V125.542H145.892V131.5ZM146.156 123.472C146.156 123.576 146.134 123.674 146.09 123.766C146.05 123.854 145.994 123.932 145.922 124C145.854 124.068 145.774 124.122 145.682 124.162C145.59 124.202 145.492 124.222 145.388 124.222C145.284 124.222 145.186 124.202 145.094 124.162C145.006 124.122 144.928 124.068 144.86 124C144.792 123.932 144.738 123.854 144.698 123.766C144.658 123.674 144.638 123.576 144.638 123.472C144.638 123.368 144.658 123.27 144.698 123.178C144.738 123.082 144.792 123 144.86 122.932C144.928 122.86 145.006 122.804 145.094 122.764C145.186 122.724 145.284 122.704 145.388 122.704C145.492 122.704 145.59 122.724 145.682 122.764C145.774 122.804 145.854 122.86 145.922 122.932C145.994 123 146.05 123.082 146.09 123.178C146.134 123.27 146.156 123.368 146.156 123.472ZM151.841 125.878C151.841 125.954 151.827 126.028 151.799 126.1C151.775 126.172 151.741 126.234 151.697 126.286L148.403 130.666H151.727V131.5H147.149V131.056C147.149 131.004 147.161 130.944 147.185 130.876C147.209 130.804 147.245 130.736 147.293 130.672L150.605 126.262H147.335V125.422H151.841V125.878ZM157.023 127.798C157.023 127.55 156.987 127.324 156.915 127.12C156.847 126.912 156.745 126.734 156.609 126.586C156.477 126.434 156.315 126.318 156.123 126.238C155.931 126.154 155.713 126.112 155.469 126.112C154.957 126.112 154.551 126.262 154.251 126.562C153.955 126.858 153.771 127.27 153.699 127.798H157.023ZM157.887 130.648C157.755 130.808 157.597 130.948 157.413 131.068C157.229 131.184 157.031 131.28 156.819 131.356C156.611 131.432 156.395 131.488 156.171 131.524C155.947 131.564 155.725 131.584 155.505 131.584C155.085 131.584 154.697 131.514 154.341 131.374C153.989 131.23 153.683 131.022 153.423 130.75C153.167 130.474 152.967 130.134 152.823 129.73C152.679 129.326 152.607 128.862 152.607 128.338C152.607 127.914 152.671 127.518 152.799 127.15C152.931 126.782 153.119 126.464 153.363 126.196C153.607 125.924 153.905 125.712 154.257 125.56C154.609 125.404 155.005 125.326 155.445 125.326C155.809 125.326 156.145 125.388 156.453 125.512C156.765 125.632 157.033 125.808 157.257 126.04C157.485 126.268 157.663 126.552 157.791 126.892C157.919 127.228 157.983 127.612 157.983 128.044C157.983 128.212 157.965 128.324 157.929 128.38C157.893 128.436 157.825 128.464 157.725 128.464H153.663C153.675 128.848 153.727 129.182 153.819 129.466C153.915 129.75 154.047 129.988 154.215 130.18C154.383 130.368 154.583 130.51 154.815 130.606C155.047 130.698 155.307 130.744 155.595 130.744C155.863 130.744 156.093 130.714 156.285 130.654C156.481 130.59 156.649 130.522 156.789 130.45C156.929 130.378 157.045 130.312 157.137 130.252C157.233 130.188 157.315 130.156 157.383 130.156C157.471 130.156 157.539 130.19 157.587 130.258L157.887 130.648ZM167.364 125.422V131.5H166.728C166.576 131.5 166.48 131.426 166.44 131.278L166.356 130.624C166.092 130.916 165.796 131.152 165.468 131.332C165.14 131.508 164.764 131.596 164.34 131.596C164.008 131.596 163.714 131.542 163.458 131.434C163.206 131.322 162.994 131.166 162.822 130.966C162.65 130.766 162.52 130.524 162.432 130.24C162.348 129.956 162.306 129.642 162.306 129.298V125.422H163.374V129.298C163.374 129.758 163.478 130.114 163.686 130.366C163.898 130.618 164.22 130.744 164.652 130.744C164.968 130.744 165.262 130.67 165.534 130.522C165.81 130.37 166.064 130.162 166.296 129.898V125.422H167.364ZM172.597 126.424C172.549 126.512 172.475 126.556 172.375 126.556C172.315 126.556 172.247 126.534 172.171 126.49C172.095 126.446 172.001 126.398 171.889 126.346C171.781 126.29 171.651 126.24 171.499 126.196C171.347 126.148 171.167 126.124 170.959 126.124C170.779 126.124 170.617 126.148 170.473 126.196C170.329 126.24 170.205 126.302 170.101 126.382C170.001 126.462 169.923 126.556 169.867 126.664C169.815 126.768 169.789 126.882 169.789 127.006C169.789 127.162 169.833 127.292 169.921 127.396C170.013 127.5 170.133 127.59 170.281 127.666C170.429 127.742 170.597 127.81 170.785 127.87C170.973 127.926 171.165 127.988 171.361 128.056C171.561 128.12 171.755 128.192 171.943 128.272C172.131 128.352 172.299 128.452 172.447 128.572C172.595 128.692 172.713 128.84 172.801 129.016C172.893 129.188 172.939 129.396 172.939 129.64C172.939 129.92 172.889 130.18 172.789 130.42C172.689 130.656 172.541 130.862 172.345 131.038C172.149 131.21 171.909 131.346 171.625 131.446C171.341 131.546 171.013 131.596 170.641 131.596C170.217 131.596 169.833 131.528 169.489 131.392C169.145 131.252 168.853 131.074 168.613 130.858L168.865 130.45C168.897 130.398 168.935 130.358 168.979 130.33C169.023 130.302 169.079 130.288 169.147 130.288C169.219 130.288 169.295 130.316 169.375 130.372C169.455 130.428 169.551 130.49 169.663 130.558C169.779 130.626 169.919 130.688 170.083 130.744C170.247 130.8 170.451 130.828 170.695 130.828C170.903 130.828 171.085 130.802 171.241 130.75C171.397 130.694 171.527 130.62 171.631 130.528C171.735 130.436 171.811 130.33 171.859 130.21C171.911 130.09 171.937 129.962 171.937 129.826C171.937 129.658 171.891 129.52 171.799 129.412C171.711 129.3 171.593 129.206 171.445 129.13C171.297 129.05 171.127 128.982 170.935 128.926C170.747 128.866 170.553 128.804 170.353 128.74C170.157 128.676 169.963 128.604 169.771 128.524C169.583 128.44 169.415 128.336 169.267 128.212C169.119 128.088 168.999 127.936 168.907 127.756C168.819 127.572 168.775 127.35 168.775 127.09C168.775 126.858 168.823 126.636 168.919 126.424C169.015 126.208 169.155 126.02 169.339 125.86C169.523 125.696 169.749 125.566 170.017 125.47C170.285 125.374 170.591 125.326 170.935 125.326C171.335 125.326 171.693 125.39 172.009 125.518C172.329 125.642 172.605 125.814 172.837 126.034L172.597 126.424ZM178.316 127.798C178.316 127.55 178.28 127.324 178.208 127.12C178.14 126.912 178.038 126.734 177.902 126.586C177.77 126.434 177.608 126.318 177.416 126.238C177.224 126.154 177.006 126.112 176.762 126.112C176.25 126.112 175.844 126.262 175.544 126.562C175.248 126.858 175.064 127.27 174.992 127.798H178.316ZM179.18 130.648C179.048 130.808 178.89 130.948 178.706 131.068C178.522 131.184 178.324 131.28 178.112 131.356C177.904 131.432 177.688 131.488 177.464 131.524C177.24 131.564 177.018 131.584 176.798 131.584C176.378 131.584 175.99 131.514 175.634 131.374C175.282 131.23 174.976 131.022 174.716 130.75C174.46 130.474 174.26 130.134 174.116 129.73C173.972 129.326 173.9 128.862 173.9 128.338C173.9 127.914 173.964 127.518 174.092 127.15C174.224 126.782 174.412 126.464 174.656 126.196C174.9 125.924 175.198 125.712 175.55 125.56C175.902 125.404 176.298 125.326 176.738 125.326C177.102 125.326 177.438 125.388 177.746 125.512C178.058 125.632 178.326 125.808 178.55 126.04C178.778 126.268 178.956 126.552 179.084 126.892C179.212 127.228 179.276 127.612 179.276 128.044C179.276 128.212 179.258 128.324 179.222 128.38C179.186 128.436 179.118 128.464 179.018 128.464H174.956C174.968 128.848 175.02 129.182 175.112 129.466C175.208 129.75 175.34 129.988 175.508 130.18C175.676 130.368 175.876 130.51 176.108 130.606C176.34 130.698 176.6 130.744 176.888 130.744C177.156 130.744 177.386 130.714 177.578 130.654C177.774 130.59 177.942 130.522 178.082 130.45C178.222 130.378 178.338 130.312 178.43 130.252C178.526 130.188 178.608 130.156 178.676 130.156C178.764 130.156 178.832 130.19 178.88 130.258L179.18 130.648ZM181.602 126.64C181.794 126.224 182.03 125.9 182.31 125.668C182.59 125.432 182.932 125.314 183.336 125.314C183.464 125.314 183.586 125.328 183.702 125.356C183.822 125.384 183.928 125.428 184.02 125.488L183.942 126.286C183.918 126.386 183.858 126.436 183.762 126.436C183.706 126.436 183.624 126.424 183.516 126.4C183.408 126.376 183.286 126.364 183.15 126.364C182.958 126.364 182.786 126.392 182.634 126.448C182.486 126.504 182.352 126.588 182.232 126.7C182.116 126.808 182.01 126.944 181.914 127.108C181.822 127.268 181.738 127.452 181.662 127.66V131.5H180.588V125.422H181.2C181.316 125.422 181.396 125.444 181.44 125.488C181.484 125.532 181.514 125.608 181.53 125.716L181.602 126.64ZM188.464 126.424C188.416 126.512 188.342 126.556 188.242 126.556C188.182 126.556 188.114 126.534 188.038 126.49C187.962 126.446 187.868 126.398 187.756 126.346C187.648 126.29 187.518 126.24 187.366 126.196C187.214 126.148 187.034 126.124 186.826 126.124C186.646 126.124 186.484 126.148 186.34 126.196C186.196 126.24 186.072 126.302 185.968 126.382C185.868 126.462 185.79 126.556 185.734 126.664C185.682 126.768 185.656 126.882 185.656 127.006C185.656 127.162 185.7 127.292 185.788 127.396C185.88 127.5 186 127.59 186.148 127.666C186.296 127.742 186.464 127.81 186.652 127.87C186.84 127.926 187.032 127.988 187.228 128.056C187.428 128.12 187.622 128.192 187.81 128.272C187.998 128.352 188.166 128.452 188.314 128.572C188.462 128.692 188.58 128.84 188.668 129.016C188.76 129.188 188.806 129.396 188.806 129.64C188.806 129.92 188.756 130.18 188.656 130.42C188.556 130.656 188.408 130.862 188.212 131.038C188.016 131.21 187.776 131.346 187.492 131.446C187.208 131.546 186.88 131.596 186.508 131.596C186.084 131.596 185.7 131.528 185.356 131.392C185.012 131.252 184.72 131.074 184.48 130.858L184.732 130.45C184.764 130.398 184.802 130.358 184.846 130.33C184.89 130.302 184.946 130.288 185.014 130.288C185.086 130.288 185.162 130.316 185.242 130.372C185.322 130.428 185.418 130.49 185.53 130.558C185.646 130.626 185.786 130.688 185.95 130.744C186.114 130.8 186.318 130.828 186.562 130.828C186.77 130.828 186.952 130.802 187.108 130.75C187.264 130.694 187.394 130.62 187.498 130.528C187.602 130.436 187.678 130.33 187.726 130.21C187.778 130.09 187.804 129.962 187.804 129.826C187.804 129.658 187.758 129.52 187.666 129.412C187.578 129.3 187.46 129.206 187.312 129.13C187.164 129.05 186.994 128.982 186.802 128.926C186.614 128.866 186.42 128.804 186.22 128.74C186.024 128.676 185.83 128.604 185.638 128.524C185.45 128.44 185.282 128.336 185.134 128.212C184.986 128.088 184.866 127.936 184.774 127.756C184.686 127.572 184.642 127.35 184.642 127.09C184.642 126.858 184.69 126.636 184.786 126.424C184.882 126.208 185.022 126.02 185.206 125.86C185.39 125.696 185.616 125.566 185.884 125.47C186.152 125.374 186.458 125.326 186.802 125.326C187.202 125.326 187.56 125.39 187.876 125.518C188.196 125.642 188.472 125.814 188.704 126.034L188.464 126.424Z" fill="#3D4A5F"/>
<defs>
<filter id="filter0_d_0_1" x="259" y="36.5" width="139" height="139" filterUnits="userSpaceOnUse" color-interpolation-filters="sRGB">
<feFlood flood-opacity="0" result="BackgroundImageFix"/>
<feColorMatrix in="SourceAlpha" type="matrix" values="0 0 0 0 0 0 0 0 0 0 0 0 0 0 0 0 0 0 127 0" result="hardAlpha"/>
<feOffset dy="15"/>
<feGaussianBlur stdDeviation="15"/>
<feComposite in2="hardAlpha" operator="out"/>
<feColorMatrix type="matrix" values="0 0 0 0 0.0823529 0 0 0 0 0.137255 0 0 0 0 0.223529 0 0 0 0.12 0"/>
<feBlend mode="normal" in2="BackgroundImageFix" result="effect1_dropShadow_0_1"/>
<feBlend mode="normal" in="SourceGraphic" in2="effect1_dropShadow_0_1" result="shape"/>
</filter>
<clipPath id="clip0_0_1">
<rect width="24" height="24" fill="white" transform="translate(317 70.5)"/>
</clipPath>
<clipPath id="clip1_0_1">
<rect width="16" height="16" fill="white" transform="translate(143 82.5)"/>
</clipPath>
</defs>
</svg>
