<svg width="333" height="239" viewBox="0 0 333 239" fill="none" xmlns="http://www.w3.org/2000/svg">
<path d="M82 57C82 43.7452 92.7452 33 106 33H186C199.255 33 210 43.7452 210 57V160C210 173.255 199.255 184 186 184H106C92.7452 184 82 173.255 82 160V57Z" fill="#00B3FF"/>
<g filter="url(#filter0_d_251_3328)">
<path d="M99 99C99 73.0426 120.043 52 146 52C171.957 52 193 73.0426 193 99V102C193 127.957 171.957 149 146 149C120.043 149 99 127.957 99 102V99Z" fill="white"/>
</g>
<g clip-path="url(#clip0_251_3328)">
<path d="M140.083 107.542C140.086 105.101 140.805 102.714 142.152 100.679C143.499 98.6429 145.415 97.0479 147.661 96.0915C149.907 95.1352 152.384 94.8597 154.785 95.2993C157.186 95.7388 159.405 96.8741 161.167 98.564V79.75C161.167 78.225 160.561 76.7625 159.482 75.6841C158.404 74.6058 156.942 74 155.417 74H132.417C129.876 74.003 127.44 75.0137 125.644 76.8103C123.847 78.6068 122.836 81.0426 122.833 83.5833V110.417C122.836 112.957 123.847 115.393 125.644 117.19C127.44 118.986 129.876 119.997 132.417 120H152.542C149.237 120 146.069 118.687 143.732 116.351C141.396 114.015 140.083 110.846 140.083 107.542ZM132.417 87.4167C132.417 86.9083 132.619 86.4208 132.978 86.0614C133.337 85.7019 133.825 85.5 134.333 85.5H149.667C150.175 85.5 150.662 85.7019 151.022 86.0614C151.381 86.4208 151.583 86.9083 151.583 87.4167C151.583 87.925 151.381 88.4125 151.022 88.772C150.662 89.1314 150.175 89.3333 149.667 89.3333H134.333C133.825 89.3333 133.337 89.1314 132.978 88.772C132.619 88.4125 132.417 87.925 132.417 87.4167ZM164.438 119.438C164.079 119.798 163.591 120 163.083 120C162.575 120 162.088 119.798 161.728 119.438L157.115 114.825C155.749 115.697 154.162 116.162 152.542 116.167C150.836 116.167 149.168 115.661 147.75 114.713C146.331 113.765 145.226 112.418 144.573 110.842C143.92 109.266 143.75 107.532 144.082 105.859C144.415 104.186 145.237 102.649 146.443 101.443C147.649 100.237 149.186 99.4152 150.859 99.0824C152.532 98.7496 154.266 98.9204 155.842 99.5732C157.418 100.226 158.765 101.331 159.713 102.75C160.661 104.168 161.167 105.836 161.167 107.542C161.162 109.162 160.697 110.749 159.825 112.115L164.438 116.728C164.798 117.088 165 117.575 165 118.083C165 118.592 164.798 119.079 164.438 119.438Z" fill="#F04A90"/>
</g>
<path d="M126.016 161.336L128.586 167.82L131.18 161.336H134.188L129.641 172H127.484L123 161.336H126.016ZM141.891 168.844H136.5C136.516 169.932 137.036 170.477 138.062 170.477C138.37 170.477 138.615 170.427 138.797 170.328C138.984 170.224 139.159 170.044 139.32 169.789H141.789C141.633 170.331 141.417 170.76 141.141 171.078C140.802 171.479 140.367 171.779 139.836 171.977C139.279 172.185 138.688 172.289 138.062 172.289C136.729 172.289 135.682 171.898 134.922 171.117C134.25 170.424 133.914 169.529 133.914 168.43C133.914 167.648 134.096 166.938 134.461 166.297C135.122 165.13 136.284 164.547 137.945 164.547C139.091 164.547 140.003 164.852 140.68 165.461C141.112 165.852 141.422 166.31 141.609 166.836C141.797 167.362 141.891 168.031 141.891 168.844ZM139.508 167.359C139.419 167 139.242 166.719 138.977 166.516C138.716 166.307 138.396 166.203 138.016 166.203C137.625 166.203 137.302 166.305 137.047 166.508C136.797 166.711 136.638 166.995 136.57 167.359H139.508ZM143.359 164.75H145.922V165.938C146.219 165.479 146.552 165.151 146.922 164.953C147.292 164.75 147.753 164.648 148.305 164.648C148.435 164.648 148.599 164.656 148.797 164.672V167.117C148.443 166.945 148.078 166.859 147.703 166.859C147.109 166.859 146.664 167.031 146.367 167.375C146.07 167.714 145.922 168.221 145.922 168.898V172H143.359V164.75ZM152.508 164.75V172H149.945V164.75H152.508ZM151.227 160.523C151.628 160.523 151.969 160.664 152.25 160.945C152.531 161.227 152.672 161.565 152.672 161.961C152.672 162.362 152.531 162.703 152.25 162.984C151.969 163.266 151.63 163.406 151.234 163.406C150.828 163.406 150.487 163.266 150.211 162.984C149.93 162.698 149.789 162.352 149.789 161.945C149.789 161.56 149.93 161.227 150.211 160.945C150.497 160.664 150.836 160.523 151.227 160.523ZM157.039 166.883V172H154.477V166.883H153.562V164.75H154.477V163.656C154.477 163.052 154.536 162.57 154.656 162.211C154.776 161.852 154.987 161.51 155.289 161.188C155.966 160.469 156.773 160.109 157.711 160.109C158.086 160.109 158.464 160.198 158.844 160.375V162.609C158.484 162.438 158.185 162.352 157.945 162.352C157.779 162.352 157.615 162.398 157.453 162.492C157.297 162.586 157.19 162.698 157.133 162.828C157.07 162.979 157.039 163.315 157.039 163.836V164.75H158.844V166.883H157.039ZM162.891 171.008L159.391 164.75H162.367L164.305 168.469L166.188 164.75H169.125L163.305 175.625H160.43L162.891 171.008Z" fill="white"/>
<rect x="221.5" y="50.5" width="109" height="25" rx="12.5" fill="#FFE8F1"/>
<rect x="221.5" y="50.5" width="109" height="25" rx="12.5" stroke="white" stroke-width="5"/>
<path d="M238.087 60.1348C239.2 60.1348 240.11 60.5075 240.816 61.2529C241.458 61.9268 241.778 62.7373 241.778 63.6846C241.778 64.3356 241.617 64.9362 241.295 65.4863C240.95 66.0788 240.473 66.5296 239.864 66.8389C239.337 67.1058 238.735 67.2393 238.058 67.2393C236.961 67.2393 236.062 66.8682 235.362 66.126C234.721 65.4489 234.4 64.6156 234.4 63.626C234.4 63.0042 234.562 62.4248 234.884 61.8877C235.245 61.2822 235.722 60.8314 236.314 60.5352C236.852 60.2682 237.442 60.1348 238.087 60.1348ZM238.087 61.8145C237.569 61.8145 237.13 61.9967 236.769 62.3613C236.401 62.7324 236.217 63.167 236.217 63.665C236.217 64.1924 236.401 64.6416 236.769 65.0127C237.13 65.3773 237.571 65.5596 238.092 65.5596C238.609 65.5596 239.052 65.3773 239.42 65.0127C239.785 64.6449 239.967 64.2021 239.967 63.6846C239.967 63.1605 239.785 62.7194 239.42 62.3613C239.042 61.9967 238.598 61.8145 238.087 61.8145ZM246.329 64.2656L248.424 67H246.266L244.615 64.4414V67H242.882V60.335H245.577C245.951 60.335 246.269 60.3822 246.529 60.4766C246.79 60.571 247.018 60.7191 247.213 60.9209C247.594 61.3245 247.784 61.8161 247.784 62.3955C247.784 62.6885 247.729 62.9668 247.618 63.2305C247.511 63.4941 247.364 63.709 247.179 63.875C246.97 64.054 246.687 64.1842 246.329 64.2656ZM244.615 63.3184H244.938C245.266 63.3184 245.514 63.2598 245.68 63.1426C245.771 63.0742 245.847 62.9798 245.909 62.8594C245.971 62.7357 246.002 62.6136 246.002 62.4932C246.002 62.376 245.971 62.2555 245.909 62.1318C245.847 62.0081 245.771 61.9121 245.68 61.8438C245.517 61.7266 245.27 61.668 244.938 61.668H244.615V63.3184ZM252.276 63.2988H255.714C255.701 64.1875 255.585 64.8711 255.367 65.3496C255.09 65.9583 254.69 66.4238 254.166 66.7461C253.639 67.0716 253.014 67.2344 252.291 67.2344C251.565 67.2344 250.914 67.0684 250.338 66.7363C249.775 66.4108 249.355 65.9421 249.078 65.3301C248.847 64.8255 248.731 64.2835 248.731 63.7041C248.731 63.0433 248.88 62.4329 249.176 61.873C249.482 61.2871 249.918 60.8477 250.484 60.5547C251.044 60.265 251.668 60.1201 252.354 60.1201C253.061 60.1201 253.658 60.2731 254.146 60.5791C254.638 60.8851 255.042 61.3571 255.357 61.9951L253.712 62.6738C253.409 61.9707 252.929 61.6191 252.271 61.6191C251.76 61.6191 251.345 61.8226 251.026 62.2295C250.704 62.6364 250.543 63.1279 250.543 63.7041C250.543 64.3584 250.742 64.8971 251.139 65.3203C251.438 65.6393 251.834 65.7988 252.325 65.7988C252.823 65.7988 253.199 65.6361 253.453 65.3105C253.574 65.1576 253.655 64.9362 253.697 64.6465H252.276V63.2988ZM260.577 65.8379H258.185L257.726 67H255.895L258.458 60.335H260.348L262.857 67H261.007L260.577 65.8379ZM260.108 64.5195L259.391 62.3955L258.663 64.5195H260.108ZM263.624 67V60.335H265.357L268.546 64.4121V60.335H270.279V67H268.546L265.357 62.918V67H263.624ZM273.414 60.335V67H271.681V60.335H273.414ZM277.135 65.5352H279.933V67H274.229L277.384 61.7998H274.762V60.335H280.274L277.135 65.5352ZM285.294 65.8379H282.901L282.442 67H280.611L283.175 60.335H285.064L287.574 67H285.724L285.294 65.8379ZM284.825 64.5195L284.107 62.3955L283.38 64.5195H284.825ZM290.465 61.7998V67H288.731V61.7998H287.32V60.335H291.9V61.7998H290.465ZM294.42 60.335V67H292.687V60.335H294.42ZM299.21 60.1348C300.323 60.1348 301.233 60.5075 301.939 61.2529C302.581 61.9268 302.901 62.7373 302.901 63.6846C302.901 64.3356 302.74 64.9362 302.418 65.4863C302.073 66.0788 301.596 66.5296 300.987 66.8389C300.46 67.1058 299.858 67.2393 299.181 67.2393C298.084 67.2393 297.185 66.8682 296.485 66.126C295.844 65.4489 295.523 64.6156 295.523 63.626C295.523 63.0042 295.685 62.4248 296.007 61.8877C296.368 61.2822 296.845 60.8314 297.438 60.5352C297.975 60.2682 298.565 60.1348 299.21 60.1348ZM299.21 61.8145C298.692 61.8145 298.253 61.9967 297.892 62.3613C297.524 62.7324 297.34 63.167 297.34 63.665C297.34 64.1924 297.524 64.6416 297.892 65.0127C298.253 65.3773 298.694 65.5596 299.215 65.5596C299.732 65.5596 300.175 65.3773 300.543 65.0127C300.908 64.6449 301.09 64.2021 301.09 63.6846C301.09 63.1605 300.908 62.7194 300.543 62.3613C300.165 61.9967 299.721 61.8145 299.21 61.8145ZM304.005 67V60.335H305.738L308.927 64.4121V60.335H310.66V67H308.927L305.738 62.918V67H304.005ZM316.412 60.7158L315.719 62.0635C315.344 61.764 314.967 61.6143 314.586 61.6143C314.342 61.6143 314.151 61.681 314.015 61.8145C313.901 61.9284 313.844 62.057 313.844 62.2002C313.844 62.3271 313.896 62.4346 314 62.5225C314.101 62.6038 314.202 62.6657 314.303 62.708C314.407 62.7503 314.654 62.8285 315.045 62.9424C315.592 63.1051 315.997 63.3265 316.261 63.6064C316.541 63.9092 316.681 64.3112 316.681 64.8125C316.681 65.5775 316.453 66.1569 315.997 66.5508C315.509 66.9674 314.868 67.1758 314.073 67.1758C313.256 67.1758 312.486 66.9235 311.764 66.4189L312.506 65.0225C313.023 65.4749 313.533 65.7012 314.034 65.7012C314.34 65.7012 314.563 65.6214 314.703 65.4619C314.814 65.335 314.869 65.1966 314.869 65.0469C314.869 64.8678 314.796 64.7262 314.649 64.6221C314.506 64.5146 314.231 64.4007 313.824 64.2803C313.186 64.0947 312.765 63.9157 312.56 63.7432C312.205 63.4535 312.027 63.0124 312.027 62.4199C312.027 61.7266 312.257 61.1699 312.716 60.75C313.132 60.3659 313.66 60.1738 314.298 60.1738C315.021 60.1738 315.725 60.3545 316.412 60.7158Z" fill="#F04A90"/>
<rect x="215" y="106" width="91" height="74" rx="7" fill="#E7EDF0" stroke="white" stroke-width="10"/>
<path d="M231 125.5C231 127.433 232.567 129 234.5 129H283.5C285.433 129 287 127.433 287 125.5C287 123.567 285.433 122 283.5 122H234.5C232.567 122 231 123.567 231 125.5Z" fill="#C0CFD6"/>
<path d="M229 140.5C229 142.433 230.567 144 232.5 144H259.5C261.433 144 263 142.433 263 140.5C263 138.567 261.433 137 259.5 137H232.5C230.567 137 229 138.567 229 140.5Z" fill="#C0CFD6"/>
<rect x="5" y="144" width="77.3513" height="54" rx="7" fill="#E7EDF0" stroke="white" stroke-width="10"/>
<path d="M16.4324 164.514C16.4324 166.185 17.7876 167.541 19.4594 167.541H61.8378C63.5096 167.541 64.8648 166.185 64.8648 164.514C64.8648 162.842 63.5096 161.486 61.8378 161.486H19.4594C17.7876 161.486 16.4324 162.842 16.4324 164.514Z" fill="#C0CFD6"/>
<path d="M16.4324 177.487C16.4324 179.158 17.7876 180.514 19.4594 180.514H42.8107C44.4825 180.514 45.8378 179.158 45.8378 177.487C45.8378 175.815 44.4825 174.459 42.8108 174.459H19.4594C17.7876 174.459 16.4324 175.815 16.4324 177.487Z" fill="#C0CFD6"/>
<rect x="31.1414" y="4.1414" width="64.0686" height="44.7271" rx="5.79796" fill="#E7EDF0" stroke="white" stroke-width="8.2828"/>
<path d="M40.6106 21.1324C40.6106 22.5171 41.7331 23.6396 43.1178 23.6396H78.219C79.6037 23.6396 80.7262 22.5171 80.7262 21.1324C80.7262 19.7477 79.6037 18.6252 78.219 18.6252H43.1178C41.7331 18.6252 40.6106 19.7477 40.6106 21.1324Z" fill="#C0CFD6"/>
<path d="M40.6106 31.8775C40.6106 33.2622 41.7331 34.3848 43.1178 34.3848H62.4593C63.844 34.3848 64.9665 33.2622 64.9665 31.8775C64.9665 30.4928 63.844 29.3703 62.4593 29.3703H43.1178C41.7331 29.3703 40.6106 30.4928 40.6106 31.8775Z" fill="#C0CFD6"/>
<defs>
<filter id="filter0_d_251_3328" x="39" y="22" width="214" height="217" filterUnits="userSpaceOnUse" color-interpolation-filters="sRGB">
<feFlood flood-opacity="0" result="BackgroundImageFix"/>
<feColorMatrix in="SourceAlpha" type="matrix" values="0 0 0 0 0 0 0 0 0 0 0 0 0 0 0 0 0 0 127 0" result="hardAlpha"/>
<feOffset dy="30"/>
<feGaussianBlur stdDeviation="30"/>
<feComposite in2="hardAlpha" operator="out"/>
<feColorMatrix type="matrix" values="0 0 0 0 0.137255 0 0 0 0 0.180392 0 0 0 0 0.247059 0 0 0 0.07 0"/>
<feBlend mode="normal" in2="BackgroundImageFix" result="effect1_dropShadow_251_3328"/>
<feBlend mode="normal" in="SourceGraphic" in2="effect1_dropShadow_251_3328" result="shape"/>
</filter>
<clipPath id="clip0_251_3328">
<rect width="46" height="46" fill="white" transform="translate(119 74)"/>
</clipPath>
</defs>
</svg>
