<svg width="28" height="28" viewBox="0 0 28 28" fill="none" xmlns="http://www.w3.org/2000/svg">
<g clip-path="url(#clip0_18002_2889)">
<path d="M4.61258 10.1738C3.91397 10.1738 3.37136 9.54303 3.49458 8.85572C3.90041 6.59372 5.02745 4.49112 6.72197 2.90285C8.90936 0.851116 11.766 -0.171928 14.7774 0.0236376C20.4534 0.389898 24.8869 5.33103 24.8033 11.2342C24.7581 14.4197 22.1027 16.9576 18.916 16.9576H15.6015C15.1946 17.3487 14.6452 17.5917 14.037 17.5917C12.7879 17.5917 11.7761 16.58 11.7761 15.3309C11.7761 14.0817 12.7879 13.07 14.037 13.07C15.0634 13.07 15.9203 13.7584 16.1961 14.6967H18.916C20.8784 14.6967 22.5209 13.1333 22.5424 11.172C22.5944 6.4852 19.1002 2.57051 14.6316 2.28112C12.2588 2.13416 9.99571 2.93451 8.26728 4.55442C6.90058 5.8352 6.01997 7.47546 5.71136 9.27738C5.62093 9.80416 5.14615 10.1761 4.61258 10.1761V10.1738ZM14.0653 19.2173C9.88832 19.2173 6.27432 21.8082 5.07267 25.663C4.96528 26.0067 5.02745 26.3809 5.2411 26.6702C5.45475 26.9596 5.79275 27.1303 6.15223 27.1303H21.9783C22.3378 27.1303 22.6758 26.9596 22.8894 26.6702C23.1031 26.3809 23.1653 26.0067 23.0579 25.663C21.8562 21.8082 18.2422 19.2173 14.0653 19.2173ZM17.382 12.4347H20.043C20.1956 11.8955 20.2827 11.328 20.2827 10.739C20.2827 7.30477 17.4995 4.52164 14.0653 4.52164C10.631 4.52164 7.84788 7.30477 7.84788 10.739C7.84788 12.4245 8.52162 13.9506 9.61023 15.0709C9.74701 12.7354 11.6665 10.8781 14.037 10.8781C15.3834 10.8781 16.5703 11.4896 17.3831 12.4347H17.382Z" fill="white"/>
</g>
<defs>
<clipPath id="clip0_18002_2889">
<rect width="27.1304" height="27.1304" fill="white" transform="translate(0.5)"/>
</clipPath>
</defs>
</svg>
