<svg width="28" height="28" viewBox="0 0 28 28" fill="none" xmlns="http://www.w3.org/2000/svg">
<g clip-path="url(#clip0_18002_2895)">
<path d="M21.9783 1.13037H6.15217C3.03104 1.13037 0.5 3.66141 0.5 6.78255V15.826C0.5 18.9472 3.03104 21.4782 6.15217 21.4782H12.9348V23.7391H8.41304C7.78791 23.7391 7.28261 24.2455 7.28261 24.8695C7.28261 25.4935 7.78791 25.9999 8.41304 25.9999H19.7174C20.3425 25.9999 20.8478 25.4935 20.8478 24.8695C20.8478 24.2455 20.3425 23.7391 19.7174 23.7391H15.1957V21.4782H21.9783C25.0994 21.4782 27.6304 18.9472 27.6304 15.826V6.78255C27.6304 3.66141 25.0994 1.13037 21.9783 1.13037ZM8.18922 17.3623C6.03122 16.8547 4.34122 15.0359 3.97383 12.8496C3.44365 9.69455 5.53043 6.91594 8.41304 6.33037V11.4004C8.41304 11.9995 8.65156 12.5749 9.07548 12.9988L12.6578 16.5812C11.4223 17.3996 9.85096 17.7523 8.18922 17.3623ZM14.2563 14.9827L11.0063 11.7327C10.7937 11.5202 10.675 11.2331 10.675 10.9335V6.3315C13.2547 6.85489 15.1968 9.13498 15.1968 11.8695C15.1968 13.0214 14.8486 14.0897 14.2563 14.9827ZM23.1098 16.9565H19.7185C19.0945 16.9565 18.5881 16.45 18.5881 15.826C18.5881 15.202 19.0945 14.6956 19.7185 14.6956H23.1098C23.7338 14.6956 24.2403 15.202 24.2403 15.826C24.2403 16.45 23.7338 16.9565 23.1098 16.9565ZM23.1098 12.4347H19.7185C19.0945 12.4347 18.5881 11.9283 18.5881 11.3043C18.5881 10.6803 19.0945 10.1739 19.7185 10.1739H23.1098C23.7338 10.1739 24.2403 10.6803 24.2403 11.3043C24.2403 11.9283 23.7338 12.4347 23.1098 12.4347ZM23.1098 7.91298H19.7185C19.0945 7.91298 18.5881 7.40655 18.5881 6.78255C18.5881 6.15855 19.0945 5.65211 19.7185 5.65211H23.1098C23.7338 5.65211 24.2403 6.15855 24.2403 6.78255C24.2403 7.40655 23.7338 7.91298 23.1098 7.91298Z" fill="white"/>
</g>
<defs>
<clipPath id="clip0_18002_2895">
<rect width="27.1304" height="27.1304" fill="white" transform="translate(0.5)"/>
</clipPath>
</defs>
</svg>
