<svg width="82" height="108" viewBox="0 0 82 108" fill="none" xmlns="http://www.w3.org/2000/svg">
<circle opacity="0.21" cx="41" cy="67" r="41" fill="#B26DE8"/>
<path d="M40.501 49.2539V46.0107C43.2503 45.7972 45.4792 45.1165 47.1875 43.9688C50.4173 41.7799 52.0322 38.737 52.0322 34.8398C52.0322 31.3431 50.7376 28.5003 48.1484 26.3115C46.36 24.79 44.1045 24.0293 41.3818 24.0293C39.5133 24.0293 37.7917 24.4163 36.2168 25.1904C34.6419 25.9378 33.4141 26.9788 32.5332 28.3135C31.6257 29.6748 31.0117 31.6901 30.6914 34.3594H27.2881C27.6351 31.3431 28.3158 28.9141 29.3301 27.0723C30.4779 25.0169 32.1328 23.4421 34.2949 22.3477C36.4036 21.2533 38.6992 20.7061 41.1816 20.7061C45.5326 20.7061 49.0693 22.1742 51.792 25.1104C54.3545 27.8864 55.6357 31.1429 55.6357 34.8799C55.6357 40.512 52.8997 44.7028 47.4277 47.4521C49.4564 48.2796 51.1113 49.3607 52.3926 50.6953C55.0618 53.4447 56.3965 56.8346 56.3965 60.8652C56.3965 65.75 54.6481 69.7005 51.1514 72.7168C48.0016 75.4128 44.3848 76.7607 40.3008 76.7607C37.5514 76.7607 34.9622 76.1201 32.5332 74.8389C30.1309 73.5309 28.3024 71.7959 27.0479 69.6338C25.9535 67.7119 25.3395 65.3496 25.2061 62.5469H28.6494C28.943 65.056 29.5436 67.0046 30.4512 68.3926C31.4388 69.834 32.8669 71.0352 34.7354 71.9961C36.6038 72.957 38.4723 73.4375 40.3408 73.4375C43.7308 73.4375 46.707 72.1429 49.2695 69.5537C51.6185 67.2048 52.793 64.3086 52.793 60.8652C52.793 57.8223 51.832 55.2197 49.9102 53.0576C47.8281 50.762 44.6917 49.4941 40.501 49.2539Z" fill="#152339"/>
</svg>
