<svg width="82" height="109" viewBox="0 0 82 109" fill="none" xmlns="http://www.w3.org/2000/svg">
<circle opacity="0.21" cx="41" cy="67.5" r="41" fill="#F04A90"/>
<path d="M31.6924 73.2168H57.6377V76.5H24.0049L44.9453 53.3975C48.4954 49.5003 50.9378 46.3506 52.2725 43.9482C53.6338 41.5459 54.3145 39.1436 54.3145 36.7412C54.3145 33.0309 52.8997 30.0013 50.0703 27.6523C47.5345 25.5703 44.6383 24.5293 41.3818 24.5293C38.2588 24.5293 35.4961 25.4902 33.0938 27.4121C31.6257 28.5866 30.5713 29.9079 29.9307 31.376C29.29 32.8441 28.9163 34.8193 28.8096 37.3018H25.126C25.3128 33.458 26.0736 30.5218 27.4082 28.4932C28.8229 26.3311 30.8382 24.5827 33.4541 23.248C36.0967 21.8867 38.8193 21.2061 41.6221 21.2061C46.2666 21.2061 50.2438 22.861 53.5537 26.1709C56.4632 29.0804 57.918 32.6706 57.918 36.9414C57.918 39.0234 57.5443 41.012 56.7969 42.9072C56.0762 44.7757 54.8483 46.8311 53.1133 49.0732C51.7786 50.835 49.4163 53.5576 46.0264 57.2412L31.6924 73.2168Z" fill="#152339"/>
</svg>
