<svg width="57" height="17" viewBox="0 0 57 17" fill="none" xmlns="http://www.w3.org/2000/svg">
<path d="M56.1328 3.91516H51.1875V6.58704H55.8633V10.1027H51.1875V12.88H56.1328V16.3956H47.0273V0.399536H56.1328V3.91516Z" fill="#8F98A8"/>
<path d="M44.3906 0.868286V5.84875C43.4375 4.67688 42.2383 4.09094 40.793 4.09094C39.5273 4.09094 38.4727 4.53625 37.6289 5.42688C36.8789 6.20813 36.5039 7.23157 36.5039 8.49719C36.5039 9.86438 36.9727 10.9425 37.9102 11.7316C38.7539 12.4425 39.7109 12.798 40.7812 12.798C42.125 12.798 43.3281 12.2394 44.3906 11.1222V16.0441C43.4062 16.3722 42.6836 16.5831 42.2227 16.6769C41.7617 16.7784 41.2422 16.8292 40.6641 16.8292C39.1953 16.8292 37.7852 16.4581 36.4336 15.7159C34.9961 14.9269 33.9102 13.8761 33.1758 12.5636C32.4961 11.3683 32.1562 10.0245 32.1562 8.53235C32.1562 6.86047 32.5703 5.36047 33.3984 4.03235C34.1797 2.76672 35.2617 1.77454 36.6445 1.05579C37.9102 0.391724 39.2383 0.0596924 40.6289 0.0596924C41.7695 0.0596924 43.0234 0.329224 44.3906 0.868286Z" fill="#8F98A8"/>
<path d="M22.3945 3.91516H20.1211V0.399536H26.5547V16.3956H22.3945V3.91516Z" fill="#8F98A8"/>
<path d="M4.52344 0.399536L8.37891 10.1261L12.2695 0.399536H16.7812L9.96094 16.3956H6.72656L0 0.399536H4.52344Z" fill="#8F98A8"/>
</svg>
