<svg width="191" height="48" viewBox="0 0 191 48" fill="none" xmlns="http://www.w3.org/2000/svg">
<path d="M32.0261 24.1264C32.03 24.9472 31.7538 25.7448 31.243 26.3874L22.603 36.8337L13.8682 26.3874C13.3574 25.7445 13.0792 24.9476 13.0788 24.1264V5.72217H6.38403V23.659C6.38403 26.8548 6.8514 28.0232 8.48719 29.9748L16.6977 39.6443C18.1756 41.539 18.8767 41.9811 21.9967 41.9811H23.0893C26.2093 41.9811 26.8788 41.5137 28.3946 39.6443L36.6051 29.9748C38.1651 28.0232 38.7082 26.9306 38.7082 23.659V5.72217H32.0261V24.1264Z" fill="#056FB0"/>
<path d="M91.0663 5.72217H80.6958V5.95585L83.1147 8.48217L83.5821 8.94954C84.599 9.88427 85.5337 10.8443 85.5337 11.9116V41.8232H92.159V6.73901C92.159 5.79796 92.159 5.72217 91.0663 5.72217Z" fill="#056FB0"/>
<path d="M182.923 5.72217H172.552V5.95585L174.971 8.48217L175.439 8.94954C176.456 9.88427 177.39 10.8443 177.39 11.9116V41.8232H184.016V6.73901C184.016 5.79796 184.016 5.72217 182.923 5.72217Z" fill="#056FB0"/>
<path d="M164.91 7.90751C162.965 5.95594 161.247 5.57067 158.828 5.57067H146.121C144.785 5.49222 143.449 5.73251 142.224 6.27172L139.18 7.53488C137.462 8.23594 136.995 8.8612 136.995 10.5791V41.7475H143.626V13.8317C143.61 13.5084 143.69 13.1876 143.857 12.9099C144.023 12.6322 144.268 12.4101 144.561 12.2717L145.42 11.8865C145.941 11.6892 146.5 11.6094 147.056 11.6528H157.66C158.089 11.6152 158.521 11.672 158.926 11.8193C159.331 11.9666 159.698 12.2008 160.003 12.5054L161.557 14.0654C161.844 14.3166 162.07 14.6295 162.219 14.9806C162.367 15.3317 162.435 15.7119 162.416 16.0928V41.8296H169.079V16.4844C169.079 12.9728 168.611 11.6528 166.502 9.53699L164.91 7.90751Z" fill="#48B061"/>
<path d="M126.94 7.98294C124.988 5.95558 123.27 5.57031 120.933 5.57031H108.769C106.35 5.57031 104.715 5.95558 102.763 7.98294L101.127 9.62505C99.0998 11.7282 98.5566 13.1303 98.5566 16.6419V30.7577C98.5566 34.345 99.024 35.665 101.127 37.7745L102.763 39.4103C104.715 41.4377 106.426 41.8293 108.769 41.8293H120.933C123.352 41.8293 124.988 41.4377 126.94 39.4103L128.576 37.7745C130.603 35.665 131.146 34.2629 131.146 30.7577V16.7177C131.146 13.1303 130.679 11.804 128.576 9.70084L126.94 7.98294ZM124.521 31.3008C124.54 31.6817 124.473 32.0619 124.324 32.413C124.175 32.7641 123.949 33.077 123.662 33.3282L122.102 34.8882C121.799 35.1938 121.433 35.4291 121.029 35.5776C120.625 35.726 120.194 35.7839 119.765 35.7472H109.862C109.432 35.7835 109 35.7255 108.595 35.5771C108.19 35.4287 107.823 35.1936 107.519 34.8882L105.959 33.3282C105.675 33.0747 105.452 32.7612 105.304 32.4106C105.157 32.0599 105.089 31.6809 105.106 31.3008V16.2503C105.089 15.8703 105.157 15.4912 105.304 15.1406C105.452 14.7899 105.675 14.4765 105.959 14.2229L107.519 12.6629C107.823 12.3576 108.19 12.1224 108.595 11.974C109 11.8257 109.432 11.7676 109.862 11.804H119.765C120.194 11.7673 120.625 11.8252 121.029 11.9736C121.433 12.122 121.799 12.3573 122.102 12.6629L123.662 14.2229C123.949 14.4741 124.175 14.787 124.324 15.1381C124.473 15.4892 124.54 15.8695 124.521 16.2503V31.3008Z" fill="#48B061"/>
<path d="M76.9567 12.6317V11.956C76.7988 10.6928 76.2493 10.1623 74.6135 8.99385L71.8851 6.94754C70.6577 6.29983 69.2938 5.95345 67.9061 5.93701H54.1819C51.6556 5.93701 49.8935 6.32227 48.0998 8.19806L46.5525 9.8528C44.6577 11.8044 44.3672 13.2065 44.3672 16.9517V30.9096C44.3672 34.5728 44.6009 35.8991 46.5525 37.857L48.1061 39.4991C49.9045 41.0965 52.2523 41.9342 54.6556 41.836H66.024C67.6101 41.9473 69.1822 41.4757 70.4451 40.5096L71.4177 39.7896V41.8928H76.9567V12.6317ZM71.2725 31.1939C71.2866 31.9449 71.008 32.6719 70.4956 33.2212L69.0114 34.7812C68.7233 35.083 68.3729 35.3184 67.9846 35.4711C67.5963 35.6238 67.1795 35.6901 66.763 35.6654H54.4219C54.0037 35.702 53.5827 35.6437 53.1901 35.495C52.7976 35.3463 52.4436 35.1109 52.1546 34.8065L50.6767 33.2465C50.4009 32.9901 50.1871 32.6743 50.0514 32.3231C49.9157 31.9718 49.8617 31.5943 49.8935 31.2191V16.4212C49.8793 16.0478 49.9414 15.6754 50.0761 15.3268C50.2107 14.9782 50.4151 14.6608 50.6767 14.3939L52.1546 12.8339C52.4478 12.5351 52.8024 12.3037 53.1939 12.1554C53.5854 12.0071 54.0043 11.9455 54.4219 11.9749H66.6619C67.0797 11.9317 67.5018 11.9868 67.8944 12.136C68.287 12.2851 68.6393 12.5241 68.923 12.8339L70.4009 14.3939C70.6766 14.6502 70.8905 14.966 71.0261 15.3173C71.1618 15.6685 71.2158 16.046 71.184 16.4212L71.2725 31.1939Z" fill="#056FB0"/>
</svg>
