<svg width="48" height="48" viewBox="0 0 48 48" fill="none" xmlns="http://www.w3.org/2000/svg">
<g id="logos:google-play-icon">
<g id="Vectors">
<path id="Vector" d="M23.5639 17.6294C22.3959 17.6294 20.5879 16.3014 18.6839 16.3494C16.1719 16.3814 13.8679 17.8054 12.5719 20.0614C9.96393 24.5894 11.8999 31.2774 14.4439 34.9574C15.6919 36.7494 17.1639 38.7654 19.1159 38.7014C20.9879 38.6214 21.6919 37.4854 23.9639 37.4854C26.2199 37.4854 26.8599 38.7014 28.8439 38.6534C30.8599 38.6214 32.1399 36.8294 33.3719 35.0214C34.7959 32.9414 35.3879 30.9254 35.4199 30.8134C35.3719 30.7974 31.4999 29.3094 31.4519 24.8294C31.4199 21.0854 34.5079 19.2934 34.6519 19.2134C32.8919 16.6374 30.1879 16.3494 29.2439 16.2854C26.7799 16.0934 24.7159 17.6294 23.5639 17.6294ZM27.7239 13.8534C28.7639 12.6054 29.4519 10.8614 29.2599 9.13336C27.7719 9.19736 25.9799 10.1254 24.9079 11.3734C23.9479 12.4774 23.1159 14.2534 23.3399 15.9494C24.9879 16.0774 26.6839 15.1014 27.7239 13.8534Z" fill="white"/>
</g>
</g>
</svg>
