<svg width="48" height="48" viewBox="0 0 48 48" fill="none" xmlns="http://www.w3.org/2000/svg">
<g id="logos:google-play-icon">
<g id="Vectors">
<path id="Vector" d="M22.7081 23.1625L7.63477 38.9548C7.80404 39.5546 8.10822 40.1079 8.52407 40.5722C8.93992 41.0365 9.45642 41.3995 10.0341 41.6336C10.6118 41.8677 11.2353 41.9666 11.8571 41.9228C12.4788 41.879 13.0823 41.6936 13.6215 41.3808L30.5818 31.7213L22.7081 23.1625Z" fill="#EA4335"/>
<path id="Vector_2" d="M37.9499 20.4781L30.6157 16.2772L22.3601 23.5217L30.6493 31.6986L37.9276 27.5427C38.5724 27.2051 39.1125 26.6975 39.4893 26.0748C39.8661 25.4521 40.0653 24.7382 40.0653 24.0104C40.0653 23.2825 39.8661 22.5686 39.4893 21.9459C39.1125 21.3232 38.5724 20.8156 37.9276 20.478H37.9501L37.9499 20.4781Z" fill="#FBBC04"/>
<path id="Vector_3" d="M7.63488 8.98773C7.54377 9.32456 7.49842 9.67212 7.50004 10.021V37.9213C7.50099 38.2701 7.5463 38.6174 7.63488 38.9547L23.2249 23.5668L7.63488 8.98773Z" fill="#4285F4"/>
<path id="Vector_4" d="M22.8204 23.9713L30.6155 16.2773L13.6777 6.57283C13.0404 6.19961 12.3156 6.00196 11.5771 6.00001C9.74439 5.99645 8.13317 7.21281 7.63477 8.97656L22.8204 23.9713Z" fill="#34A853"/>
</g>
</g>
</svg>
