<svg width="28" height="18" viewBox="0 0 28 18" fill="none" xmlns="http://www.w3.org/2000/svg">
<path d="M17.419 8.99997C17.419 9.67036 17.2202 10.3257 16.8478 10.8831C16.4753 11.4405 15.9459 11.8749 15.3266 12.1315C14.7072 12.388 14.0257 12.4552 13.3682 12.3244C12.7107 12.1936 12.1067 11.8708 11.6327 11.3967C11.1587 10.9227 10.8359 10.3187 10.7051 9.66124C10.5743 9.00373 10.6414 8.32221 10.8979 7.70286C11.1545 7.0835 11.5889 6.55413 12.1463 6.18168C12.7037 5.80924 13.3591 5.61045 14.0295 5.61045C14.9284 5.61045 15.7906 5.96756 16.4262 6.60322C17.0619 7.23888 17.419 8.10102 17.419 8.99997ZM27.1034 10.5688L26.9968 10.7238C25.6194 12.9313 23.7027 14.7519 21.4273 16.0142C19.152 17.2764 16.5928 17.9387 13.9907 17.9387C11.3887 17.9387 8.82949 17.2764 6.55411 16.0142C4.27873 14.7519 2.36207 12.9313 0.984623 10.7238L0.878095 10.5688C0.588709 10.0967 0.435547 9.55374 0.435547 8.99997C0.435547 8.44621 0.588709 7.90324 0.878095 7.43111L0.984623 7.27616C2.36207 5.06862 4.27873 3.24802 6.55411 1.9858C8.82949 0.723576 11.3887 0.0612793 13.9907 0.0612793C16.5928 0.0612793 19.152 0.723576 21.4273 1.9858C23.7027 3.24802 25.6194 5.06862 26.9968 7.27616L27.1034 7.43111C27.3986 7.89966 27.5585 8.44074 27.5653 8.99451C27.5722 9.54828 27.4257 10.0931 27.1421 10.5688H27.1034ZM19.3559 8.99997C19.3559 7.94651 19.0435 6.91671 18.4582 6.04078C17.8729 5.16486 17.0411 4.48216 16.0678 4.07902C15.0945 3.67588 14.0236 3.5704 12.9903 3.77592C11.9571 3.98144 11.008 4.48873 10.2631 5.23364C9.51822 5.97855 9.01093 6.92762 8.80541 7.96084C8.59989 8.99406 8.70537 10.065 9.10851 11.0383C9.51165 12.0116 10.1944 12.8434 11.0703 13.4287C11.9462 14.014 12.976 14.3264 14.0295 14.3264C15.4413 14.3238 16.7946 13.7618 17.793 12.7635C18.7913 11.7651 19.3533 10.4118 19.3559 8.99997Z" fill="white"/>
</svg>
