<svg width="28" height="28" viewBox="0 0 28 28" fill="none" xmlns="http://www.w3.org/2000/svg">
<g clip-path="url(#clip0_18002_4154)">
<path fill-rule="evenodd" clip-rule="evenodd" d="M0.435547 2.5687C0.435547 1.34556 1.4271 0.354004 2.65024 0.354004H25.3509C26.574 0.354004 27.5655 1.34556 27.5655 2.5687V21.0245C27.5655 22.2476 26.574 23.2392 25.3509 23.2392H21.1615C21.1633 23.1778 21.1643 23.1163 21.1643 23.0545C21.1643 19.487 18.046 16.595 14.1994 16.595C10.3527 16.595 7.23445 19.487 7.23445 23.0545C7.23445 23.1163 7.23538 23.1778 7.23724 23.2392H2.65024C1.4271 23.2392 0.435547 22.2476 0.435547 21.0245V2.5687ZM5.1868 2.93781C4.77908 2.93781 4.44857 3.26833 4.44857 3.67605V7.3672C4.44857 7.77491 4.77908 8.10543 5.1868 8.10543H22.8141C23.2218 8.10543 23.5523 7.77491 23.5523 7.3672V3.67605C23.5523 3.26833 23.2218 2.93781 22.8141 2.93781H5.1868ZM5.18679 9.95101C4.77908 9.95101 4.44856 10.2815 4.44856 10.6892V13.6422C4.44856 14.0499 4.77908 14.3804 5.1868 14.3804H8.50883C8.91655 14.3804 9.24706 14.0499 9.24706 13.6422V10.6892C9.24706 10.2815 8.91655 9.95101 8.50883 9.95101H5.18679ZM11.0933 10.6891C11.0933 10.2814 11.4238 9.9509 11.8315 9.9509H15.1536C15.5613 9.9509 15.8918 10.2814 15.8918 10.6891V13.642C15.8918 14.0498 15.5613 14.3803 15.1536 14.3803H11.8315C11.4238 14.3803 11.0933 14.0498 11.0933 13.642V10.6891ZM18.4753 9.95094C18.0676 9.95094 17.7371 10.2815 17.7371 10.6892V13.6421C17.7371 14.0498 18.0676 14.3803 18.4753 14.3803H21.7974C22.2051 14.3803 22.5356 14.0498 22.5356 13.6421V10.6892C22.5356 10.2815 22.2051 9.95094 21.7974 9.95094H18.4753Z" fill="white"/>
<g clip-path="url(#clip1_18002_4154)">
<path d="M10.8299 25.6359L11.9114 25.058C12.3752 25.5215 12.9792 25.8577 13.666 26.0034V27.1558H15.199V26.0034C15.8858 25.8577 16.4906 25.5215 16.9535 25.058L18.0351 25.6359L18.8001 24.4039L17.7147 23.8239C17.8136 23.5267 17.8818 23.2175 17.8818 22.8905C17.8818 22.5634 17.8136 22.2542 17.7147 21.9571L18.8001 21.377L18.0351 20.145L16.9535 20.723C16.4898 20.2595 15.8858 19.9232 15.199 19.7775V18.6251H13.666V19.7775C12.9792 19.9232 12.3744 20.2595 11.9114 20.723L10.8299 20.145L10.0649 21.377L11.1503 21.9571C11.0514 22.2542 10.9832 22.5634 10.9832 22.8905C10.9832 23.2175 11.0514 23.5267 11.1503 23.8239L10.0649 24.4039L10.8299 25.6359ZM14.4325 21.8241C15.0664 21.8241 15.5822 22.3026 15.5822 22.8905C15.5822 23.4784 15.0664 23.9568 14.4325 23.9568C13.7986 23.9568 13.2827 23.4784 13.2827 22.8905C13.2827 22.3026 13.7986 21.8241 14.4325 21.8241ZM15.199 33.5538V34.2647H18.265V35.6865H10.5999V34.2647H13.666V33.5538H5.23438V24.3122C5.23438 23.1364 6.2661 22.1796 7.5339 22.1796H8.3533C8.32187 22.4127 8.30041 22.6495 8.30041 22.8905C8.30041 26.0312 11.046 28.5776 14.4325 28.5776C17.8189 28.5776 20.5646 26.0312 20.5646 22.8905C20.5646 22.6495 20.5431 22.4127 20.5117 22.1796H21.3311C22.5989 22.1796 23.6306 23.1364 23.6306 24.3122V33.5538H15.199Z" fill="white"/>
</g>
</g>
<defs>
<clipPath id="clip0_18002_4154">
<rect width="27.1304" height="27.1304" fill="white" transform="translate(0.5)"/>
</clipPath>
<clipPath id="clip1_18002_4154">
<rect x="9.79883" y="18.6251" width="9.19811" height="8.85877" rx="4.42938" fill="white"/>
</clipPath>
</defs>
</svg>
