<svg width="28" height="28" viewBox="0 0 28 28" fill="none" xmlns="http://www.w3.org/2000/svg">
<g clip-path="url(#clip0_18002_4189)">
<path d="M11.7314 11.8403C13.6315 12.6171 15.2923 14.0004 16.4008 15.7301V6.30539H18.388L14.0661 0L9.74414 6.30539H11.7314V11.8403Z" fill="white"/>
<path d="M15.0812 16.6226C13.5797 14.2618 10.9436 12.6926 7.94842 12.6926H5.9183V10.7017L0.5 15.0316L5.91824 19.3616V17.3706H7.94836C9.66712 17.3706 11.1208 18.5256 11.5792 20.1012C12.4405 18.6719 13.6466 17.4737 15.0812 16.6226Z" fill="white"/>
<path d="M27.6304 19.1562L22.2121 14.8263V16.8173H20.182C15.5218 16.8173 11.7305 20.6156 11.7305 25.2844V27.1305H16.3999V25.2843C16.3999 23.195 18.0965 21.4952 20.182 21.4952H22.2121V23.4862L27.6304 19.1562Z" fill="white"/>
</g>
<defs>
<clipPath id="clip0_18002_4189">
<rect width="27.1304" height="27.1304" fill="white" transform="translate(0.5)"/>
</clipPath>
</defs>
</svg>
