<svg width="28" height="28" viewBox="0 0 28 28" fill="none" xmlns="http://www.w3.org/2000/svg">
<g clip-path="url(#clip0_18002_4176)">
<path d="M18.086 0.339125C18.8839 0.612661 19.6099 1.06239 20.2101 1.65493L22.0821 3.52916C22.6753 4.12861 23.1255 4.85431 23.399 5.65208H18.086V0.339125ZM23.7381 7.91292V21.4779C23.7363 22.9764 23.1403 24.413 22.0807 25.4726C21.0211 26.5321 19.5845 27.1282 18.086 27.13H9.04271C7.54423 27.1282 6.10765 26.5321 5.04806 25.4726C3.98848 24.413 3.39242 22.9764 3.39062 21.4779V5.65208C3.39242 4.15361 3.98848 2.71702 5.04806 1.65744C6.10765 0.597857 7.54423 0.00179494 9.04271 0L15.8252 0V5.65208C15.8252 6.25169 16.0634 6.82675 16.4874 7.25073C16.9114 7.67472 17.4864 7.91292 18.086 7.91292H23.7381ZM18.9994 19.6839C18.9122 19.5633 18.802 19.461 18.6752 19.3831C18.5483 19.3051 18.4073 19.2529 18.2603 19.2296C18.1132 19.2063 17.963 19.2123 17.8183 19.2472C17.6735 19.2821 17.5371 19.3452 17.4168 19.433C16.6573 19.9617 15.7701 20.2775 14.8474 20.3475C14.4859 20.3376 14.1396 20.1994 13.8707 19.9575C13.2808 19.4894 12.5528 19.2291 11.7998 19.2171C10.5458 19.335 9.35138 19.8079 8.35654 20.5804C8.23308 20.6684 8.12858 20.7803 8.04927 20.9096C7.96996 21.0388 7.91746 21.1827 7.89489 21.3326C7.87233 21.4825 7.88015 21.6355 7.91791 21.7823C7.95567 21.9292 8.02258 22.0669 8.11467 22.1874C8.20676 22.3078 8.32214 22.4085 8.45394 22.4835C8.58575 22.5584 8.73129 22.6061 8.88189 22.6237C9.0325 22.6412 9.1851 22.6283 9.33061 22.5856C9.47611 22.543 9.61155 22.4715 9.72887 22.3755C10.3309 21.9039 11.044 21.5949 11.7998 21.4779C12.0779 21.4779 12.2192 21.5661 12.5911 21.817C13.2352 22.3258 14.0311 22.6044 14.8519 22.6083C16.2568 22.5441 17.6133 22.0759 18.7586 21.2597C18.9988 21.0822 19.159 20.8168 19.2041 20.5215C19.2492 20.2262 19.1756 19.9251 18.9994 19.6839ZM19.2165 15.8258C19.2165 15.526 19.0974 15.2385 18.8854 15.0265C18.6734 14.8145 18.3858 14.6954 18.086 14.6954H9.04271C8.7429 14.6954 8.45538 14.8145 8.24338 15.0265C8.03139 15.2385 7.91229 15.526 7.91229 15.8258C7.91229 16.1256 8.03139 16.4132 8.24338 16.6252C8.45538 16.8372 8.7429 16.9562 9.04271 16.9562H18.086C18.3858 16.9562 18.6734 16.8372 18.8854 16.6252C19.0974 16.4132 19.2165 16.1256 19.2165 15.8258ZM19.2165 11.3042C19.2165 11.0044 19.0974 10.7168 18.8854 10.5048C18.6734 10.2928 18.3858 10.1737 18.086 10.1737H9.04271C8.7429 10.1737 8.45538 10.2928 8.24338 10.5048C8.03139 10.7168 7.91229 11.0044 7.91229 11.3042C7.91229 11.604 8.03139 11.8915 8.24338 12.1035C8.45538 12.3155 8.7429 12.4346 9.04271 12.4346H18.086C18.3858 12.4346 18.6734 12.3155 18.8854 12.1035C19.0974 11.8915 19.2165 11.604 19.2165 11.3042Z" fill="white"/>
</g>
<defs>
<clipPath id="clip0_18002_4176">
<rect width="27.13" height="27.13" fill="white"/>
</clipPath>
</defs>
</svg>
