<svg width="36" height="36" viewBox="0 0 36 36" fill="none" xmlns="http://www.w3.org/2000/svg">
<g clip-path="url(#clip0_251_4564)">
<rect x="36" y="36" width="36" height="36" rx="18" transform="rotate(180 36 36)" fill="white"/>
<g clip-path="url(#clip1_251_4564)">
<path d="M26.248 31.5C21.4567 31.5 17.998 27.5444 17.9981 21.6876C18.0288 13.1778 24.426 7.16124 33.6548 6.00581C34.5111 5.89861 34.8412 7.08471 34.0527 7.4353C30.5116 9.00991 28.7231 11.008 28.4921 12.9857C28.3195 14.4633 29.1227 15.7577 30.1313 16C32.7461 16.6284 34.498 19.8846 34.498 23.25C34.498 27.8063 30.8044 31.5 26.248 31.5Z" fill="#3D4A5F"/>
<path d="M8.24801 31.5C3.4567 31.5 -0.00199127 27.5444 -0.00187492 21.6876C0.0288105 13.1778 6.42599 7.16124 15.6548 6.00581C16.5111 5.89861 16.8412 7.08471 16.0527 7.4353C12.5116 9.00991 10.7231 11.008 10.4921 12.9857C10.3195 14.4633 11.1227 15.7577 12.1313 16C14.7461 16.6284 16.498 19.8846 16.498 23.25C16.498 27.8063 12.8044 31.5 8.24801 31.5Z" fill="#3D4A5F"/>
</g>
</g>
<defs>
<clipPath id="clip0_251_4564">
<rect x="36" y="36" width="36" height="36" rx="18" transform="rotate(180 36 36)" fill="white"/>
</clipPath>
<clipPath id="clip1_251_4564">
<rect width="36" height="36" fill="white" transform="matrix(-1 0 0 -1 36 36)"/>
</clipPath>
</defs>
</svg>
