<svg width="390" height="221" viewBox="0 0 390 221" fill="none" xmlns="http://www.w3.org/2000/svg">
<path fill-rule="evenodd" clip-rule="evenodd" d="M274.318 192.964C264.831 209.127 243.174 220.421 217.975 220.421C198.12 220.421 180.464 213.409 169.228 202.528C157.991 213.409 140.335 220.421 120.48 220.421C94.8053 220.421 72.8074 208.696 63.6122 192.042C31.9236 181.819 9 152.083 9 116.993C9 73.4489 44.2991 38.1498 87.8428 38.1498C93.9491 38.1498 99.8933 38.8439 105.601 40.1577C119.125 16.1861 144.831 0 174.316 0C203.28 0 228.596 15.6177 242.302 38.8911C245.851 38.4023 249.475 38.1498 253.158 38.1498C296.702 38.1498 332.001 73.4489 332.001 116.993C332.001 153.206 307.586 183.717 274.318 192.964Z" fill="#F1F6F8"/>
<path opacity="0.7" d="M349.5 119C349.5 126.368 344.871 133.473 336.298 140.011C327.733 146.543 315.307 152.448 299.908 157.415C269.116 167.348 226.545 173.5 179.5 173.5C132.455 173.5 89.8844 167.348 59.0918 157.415C43.6927 152.448 31.2672 146.543 22.7019 140.011C14.1291 133.473 9.5 126.368 9.5 119C9.5 111.632 14.1291 104.527 22.7019 97.9891C31.2672 91.4567 43.6927 85.5524 59.0918 80.585C89.8844 70.6519 132.455 64.5 179.5 64.5C226.545 64.5 269.116 70.6519 299.908 80.585C315.307 85.5524 327.733 91.4567 336.298 97.9891C344.871 104.527 349.5 111.632 349.5 119Z" stroke="#B7BFCC"/>
<path d="M264 116L259 113.113L259 118.887L264 116ZM9 116.5L259.5 116.5L259.5 115.5L9 115.5L9 116.5Z" fill="#B7BFCC"/>
<circle cx="9.5" cy="116.5" r="8" fill="white" stroke="#E7EDF0" stroke-width="3"/>
<circle cx="66" cy="116.5" r="13.5" fill="white" stroke="white" stroke-width="3"/>
<circle cx="218" cy="116.5" r="13.5" fill="white" stroke="white" stroke-width="3"/>
<g filter="url(#filter0_d_251_4655)">
<circle cx="312.5" cy="116.5" r="47.5" fill="white"/>
</g>
<path d="M316.823 113.971H300.374C299.919 113.971 299.547 113.599 299.547 113.144V98.4577C299.547 98.0027 299.919 97.6304 300.374 97.6304H322.071C322.526 97.6304 322.898 98.0028 322.898 98.4577V104.701C322.772 104.753 322.657 104.822 322.554 104.905C322.271 104.639 321.884 104.491 321.485 104.516V99.0439H300.96V111.787H315.481L315.647 112.408C315.829 113.083 316.233 113.62 316.824 113.972L316.823 113.971ZM314.91 116.687H312.679V114.737H309.767V116.687H307.536C306.79 116.687 306.181 117.295 306.181 118.041V118.37H316.264V118.041C316.264 117.295 315.656 116.687 314.91 116.687H314.91ZM316.663 102.231C317.438 102.024 318.246 102.49 318.453 103.265L318.664 104.052V101.822C318.664 101.459 318.368 101.162 318.005 101.162H304.44C304.078 101.162 303.781 101.459 303.781 101.822V104.141C303.781 104.504 304.078 104.8 304.44 104.8H315.838L315.629 104.022C315.421 103.246 315.888 102.439 316.663 102.231ZM311.22 111.032C312.364 111.032 313.337 110.289 313.682 109.26L313.735 109.342C313.851 109.521 314.085 109.573 314.264 109.459C314.444 109.345 314.494 109.108 314.38 108.93L313.729 107.91C313.669 107.816 313.571 107.753 313.46 107.737C313.35 107.721 313.236 107.754 313.155 107.828L312.28 108.592C312.119 108.731 312.103 108.973 312.243 109.133C312.382 109.292 312.625 109.308 312.783 109.169L312.957 109.017C312.712 109.742 312.026 110.266 311.22 110.266C310.708 110.266 310.237 110.062 309.886 109.69C309.741 109.536 309.499 109.529 309.346 109.674C309.19 109.818 309.182 110.061 309.327 110.215C309.818 110.734 310.508 111.032 311.22 111.032V111.032ZM311.22 106.602C311.713 106.602 312.174 106.795 312.519 107.144C312.67 107.293 312.912 107.294 313.06 107.145C313.21 106.996 313.213 106.754 313.062 106.604C312.572 106.109 311.916 105.837 311.22 105.837C310.065 105.837 309.085 106.594 308.747 107.638L308.705 107.574C308.587 107.399 308.349 107.352 308.173 107.47C307.999 107.588 307.951 107.825 308.07 108.001L308.716 108.966C308.779 109.059 308.877 109.119 308.987 109.133C309.003 109.135 309.019 109.136 309.035 109.136C309.13 109.136 309.222 109.1 309.293 109.035L310.187 108.218C310.342 108.076 310.353 107.834 310.21 107.678C310.068 107.522 309.826 107.511 309.67 107.653L309.496 107.811C309.752 107.107 310.429 106.602 311.22 106.602H311.22ZM325.5 112.554C325.548 112 325.535 111.308 325.391 110.768L324.298 106.688L324.065 105.819C323.976 105.487 323.59 105.297 323.268 105.383C322.919 105.476 322.711 105.838 322.804 106.187C322.837 106.31 322.763 106.438 322.64 106.471C322.517 106.504 322.389 106.43 322.356 106.307L322.21 105.765C322.117 105.417 321.755 105.208 321.407 105.301C321.058 105.395 320.849 105.756 320.942 106.105L320.987 106.271C321.024 106.41 320.941 106.554 320.802 106.591C320.664 106.628 320.52 106.545 320.482 106.407L320.414 106.152C320.324 105.816 319.947 105.618 319.615 105.707C319.267 105.8 319.058 106.162 319.151 106.511L319.183 106.63C319.226 106.79 319.131 106.955 318.971 106.998C318.812 107.04 318.647 106.945 318.604 106.786L317.714 103.463C317.615 103.093 317.232 102.872 316.861 102.971C316.491 103.07 316.269 103.453 316.368 103.824L317.937 109.678C317.967 109.79 317.938 109.9 317.857 109.983C317.777 110.066 317.667 110.097 317.554 110.07C317.409 110.034 317.281 109.927 317.236 109.758L316.841 108.284C316.737 107.897 316.337 107.666 315.95 107.77C315.563 107.874 315.332 108.273 315.436 108.661L316.387 112.209C316.528 112.734 316.845 113.128 317.328 113.376L318.409 113.932C318.883 114.176 319.232 114.5 319.508 114.955L325.363 113.386C325.432 113.11 325.475 112.838 325.5 112.555L325.5 112.554ZM326.445 115.602L326.126 114.41C326.089 114.274 325.949 114.194 325.814 114.23L319.747 115.855C319.612 115.892 319.531 116.032 319.567 116.167L319.887 117.36C319.923 117.495 320.063 117.576 320.199 117.54L326.265 115.914C326.401 115.878 326.482 115.738 326.445 115.602H326.445Z" fill="#00B3FF"/>
<path d="M288.044 128.402V137H287.024V130.682C287.024 130.598 287.026 130.508 287.03 130.412C287.038 130.316 287.046 130.218 287.054 130.118L284.102 135.494C284.01 135.674 283.87 135.764 283.682 135.764H283.514C283.326 135.764 283.186 135.674 283.094 135.494L280.082 130.094C280.106 130.306 280.118 130.502 280.118 130.682V137H279.098V128.402H279.956C280.06 128.402 280.14 128.412 280.196 128.432C280.252 128.452 280.306 128.508 280.358 128.6L283.328 133.892C283.376 133.988 283.422 134.088 283.466 134.192C283.514 134.296 283.558 134.402 283.598 134.51C283.638 134.402 283.68 134.296 283.724 134.192C283.768 134.084 283.816 133.982 283.868 133.886L286.784 128.6C286.832 128.508 286.884 128.452 286.94 128.432C287 128.412 287.082 128.402 287.186 128.402H288.044ZM293.109 134.264C292.617 134.28 292.197 134.32 291.849 134.384C291.505 134.444 291.223 134.524 291.003 134.624C290.787 134.724 290.629 134.842 290.529 134.978C290.433 135.114 290.385 135.266 290.385 135.434C290.385 135.594 290.411 135.732 290.463 135.848C290.515 135.964 290.585 136.06 290.673 136.136C290.765 136.208 290.871 136.262 290.991 136.298C291.115 136.33 291.247 136.346 291.387 136.346C291.575 136.346 291.747 136.328 291.903 136.292C292.059 136.252 292.205 136.196 292.341 136.124C292.481 136.052 292.613 135.966 292.737 135.866C292.865 135.766 292.989 135.652 293.109 135.524V134.264ZM289.659 131.78C289.995 131.456 290.357 131.214 290.745 131.054C291.133 130.894 291.563 130.814 292.035 130.814C292.375 130.814 292.677 130.87 292.941 130.982C293.205 131.094 293.427 131.25 293.607 131.45C293.787 131.65 293.923 131.892 294.015 132.176C294.107 132.46 294.153 132.772 294.153 133.112V137H293.679C293.575 137 293.495 136.984 293.439 136.952C293.383 136.916 293.339 136.848 293.307 136.748L293.187 136.172C293.027 136.32 292.871 136.452 292.719 136.568C292.567 136.68 292.407 136.776 292.239 136.856C292.071 136.932 291.891 136.99 291.699 137.03C291.511 137.074 291.301 137.096 291.069 137.096C290.833 137.096 290.611 137.064 290.403 137C290.195 136.932 290.013 136.832 289.857 136.7C289.705 136.568 289.583 136.402 289.491 136.202C289.403 135.998 289.359 135.758 289.359 135.482C289.359 135.242 289.425 135.012 289.557 134.792C289.689 134.568 289.903 134.37 290.199 134.198C290.495 134.026 290.881 133.886 291.357 133.778C291.833 133.666 292.417 133.602 293.109 133.586V133.112C293.109 132.64 293.007 132.284 292.803 132.044C292.599 131.8 292.301 131.678 291.909 131.678C291.645 131.678 291.423 131.712 291.243 131.78C291.067 131.844 290.913 131.918 290.781 132.002C290.653 132.082 290.541 132.156 290.445 132.224C290.353 132.288 290.261 132.32 290.169 132.32C290.097 132.32 290.035 132.302 289.983 132.266C289.931 132.226 289.887 132.178 289.851 132.122L289.659 131.78ZM296.788 131.804C296.92 131.656 297.06 131.522 297.208 131.402C297.356 131.282 297.512 131.18 297.676 131.096C297.844 131.008 298.02 130.942 298.204 130.898C298.392 130.85 298.594 130.826 298.81 130.826C299.142 130.826 299.434 130.882 299.686 130.994C299.942 131.102 300.154 131.258 300.322 131.462C300.494 131.662 300.624 131.904 300.712 132.188C300.8 132.472 300.844 132.786 300.844 133.13V137H299.77V133.13C299.77 132.67 299.664 132.314 299.452 132.062C299.244 131.806 298.926 131.678 298.498 131.678C298.182 131.678 297.886 131.754 297.61 131.906C297.338 132.058 297.086 132.264 296.854 132.524V137H295.78V130.922H296.422C296.574 130.922 296.668 130.996 296.704 131.144L296.788 131.804ZM305.765 134.264C305.273 134.28 304.853 134.32 304.505 134.384C304.161 134.444 303.879 134.524 303.659 134.624C303.443 134.724 303.285 134.842 303.185 134.978C303.089 135.114 303.041 135.266 303.041 135.434C303.041 135.594 303.067 135.732 303.119 135.848C303.171 135.964 303.241 136.06 303.329 136.136C303.421 136.208 303.527 136.262 303.647 136.298C303.771 136.33 303.903 136.346 304.043 136.346C304.231 136.346 304.403 136.328 304.559 136.292C304.715 136.252 304.861 136.196 304.997 136.124C305.137 136.052 305.269 135.966 305.393 135.866C305.521 135.766 305.645 135.652 305.765 135.524V134.264ZM302.315 131.78C302.651 131.456 303.013 131.214 303.401 131.054C303.789 130.894 304.219 130.814 304.691 130.814C305.031 130.814 305.333 130.87 305.597 130.982C305.861 131.094 306.083 131.25 306.263 131.45C306.443 131.65 306.579 131.892 306.671 132.176C306.763 132.46 306.809 132.772 306.809 133.112V137H306.335C306.231 137 306.151 136.984 306.095 136.952C306.039 136.916 305.995 136.848 305.963 136.748L305.843 136.172C305.683 136.32 305.527 136.452 305.375 136.568C305.223 136.68 305.063 136.776 304.895 136.856C304.727 136.932 304.547 136.99 304.355 137.03C304.167 137.074 303.957 137.096 303.725 137.096C303.489 137.096 303.267 137.064 303.059 137C302.851 136.932 302.669 136.832 302.513 136.7C302.361 136.568 302.239 136.402 302.147 136.202C302.059 135.998 302.015 135.758 302.015 135.482C302.015 135.242 302.081 135.012 302.213 134.792C302.345 134.568 302.559 134.37 302.855 134.198C303.151 134.026 303.537 133.886 304.013 133.778C304.489 133.666 305.073 133.602 305.765 133.586V133.112C305.765 132.64 305.663 132.284 305.459 132.044C305.255 131.8 304.957 131.678 304.565 131.678C304.301 131.678 304.079 131.712 303.899 131.78C303.723 131.844 303.569 131.918 303.437 132.002C303.309 132.082 303.197 132.156 303.101 132.224C303.009 132.288 302.917 132.32 302.825 132.32C302.753 132.32 302.691 132.302 302.639 132.266C302.587 132.226 302.543 132.178 302.507 132.122L302.315 131.78ZM310.554 134.03C310.77 134.03 310.96 134 311.124 133.94C311.288 133.88 311.426 133.796 311.538 133.688C311.65 133.58 311.734 133.452 311.79 133.304C311.846 133.152 311.874 132.986 311.874 132.806C311.874 132.434 311.76 132.138 311.532 131.918C311.308 131.698 310.982 131.588 310.554 131.588C310.122 131.588 309.792 131.698 309.564 131.918C309.34 132.138 309.228 132.434 309.228 132.806C309.228 132.986 309.256 133.152 309.312 133.304C309.372 133.452 309.458 133.58 309.57 133.688C309.682 133.796 309.82 133.88 309.984 133.94C310.148 134 310.338 134.03 310.554 134.03ZM312.48 137.33C312.48 137.182 312.438 137.062 312.354 136.97C312.27 136.878 312.156 136.806 312.012 136.754C311.872 136.702 311.708 136.666 311.52 136.646C311.332 136.622 311.132 136.604 310.92 136.592C310.712 136.58 310.5 136.568 310.284 136.556C310.068 136.544 309.86 136.524 309.66 136.496C309.436 136.6 309.252 136.732 309.108 136.892C308.968 137.048 308.898 137.232 308.898 137.444C308.898 137.58 308.932 137.706 309 137.822C309.072 137.942 309.18 138.044 309.324 138.128C309.468 138.216 309.648 138.284 309.864 138.332C310.084 138.384 310.342 138.41 310.638 138.41C310.926 138.41 311.184 138.384 311.412 138.332C311.64 138.28 311.832 138.206 311.988 138.11C312.148 138.014 312.27 137.9 312.354 137.768C312.438 137.636 312.48 137.49 312.48 137.33ZM313.566 131.162V131.558C313.566 131.69 313.482 131.774 313.314 131.81L312.624 131.9C312.76 132.164 312.828 132.456 312.828 132.776C312.828 133.072 312.77 133.342 312.654 133.586C312.542 133.826 312.386 134.032 312.186 134.204C311.986 134.376 311.746 134.508 311.466 134.6C311.186 134.692 310.882 134.738 310.554 134.738C310.27 134.738 310.002 134.704 309.75 134.636C309.622 134.716 309.524 134.802 309.456 134.894C309.388 134.982 309.354 135.072 309.354 135.164C309.354 135.308 309.412 135.418 309.528 135.494C309.648 135.566 309.804 135.618 309.996 135.65C310.188 135.682 310.406 135.702 310.65 135.71C310.898 135.718 311.15 135.732 311.406 135.752C311.666 135.768 311.918 135.798 312.162 135.842C312.41 135.886 312.63 135.958 312.822 136.058C313.014 136.158 313.168 136.296 313.284 136.472C313.404 136.648 313.464 136.876 313.464 137.156C313.464 137.416 313.398 137.668 313.266 137.912C313.138 138.156 312.952 138.372 312.708 138.56C312.464 138.752 312.164 138.904 311.808 139.016C311.456 139.132 311.058 139.19 310.614 139.19C310.17 139.19 309.782 139.146 309.45 139.058C309.118 138.97 308.842 138.852 308.622 138.704C308.402 138.556 308.236 138.384 308.124 138.188C308.016 137.996 307.962 137.794 307.962 137.582C307.962 137.282 308.056 137.028 308.244 136.82C308.432 136.612 308.69 136.446 309.018 136.322C308.838 136.242 308.694 136.136 308.586 136.004C308.482 135.868 308.43 135.686 308.43 135.458C308.43 135.37 308.446 135.28 308.478 135.188C308.51 135.092 308.558 134.998 308.622 134.906C308.69 134.81 308.772 134.72 308.868 134.636C308.964 134.552 309.076 134.478 309.204 134.414C308.904 134.246 308.67 134.024 308.502 133.748C308.334 133.468 308.25 133.144 308.25 132.776C308.25 132.48 308.306 132.212 308.418 131.972C308.534 131.728 308.694 131.522 308.898 131.354C309.102 131.182 309.344 131.05 309.624 130.958C309.908 130.866 310.218 130.82 310.554 130.82C310.818 130.82 311.064 130.85 311.292 130.91C311.52 130.966 311.728 131.05 311.916 131.162H313.566ZM318.644 133.298C318.644 133.05 318.608 132.824 318.536 132.62C318.468 132.412 318.366 132.234 318.23 132.086C318.098 131.934 317.936 131.818 317.744 131.738C317.552 131.654 317.334 131.612 317.09 131.612C316.578 131.612 316.172 131.762 315.872 132.062C315.576 132.358 315.392 132.77 315.32 133.298H318.644ZM319.508 136.148C319.376 136.308 319.218 136.448 319.034 136.568C318.85 136.684 318.652 136.78 318.44 136.856C318.232 136.932 318.016 136.988 317.792 137.024C317.568 137.064 317.346 137.084 317.126 137.084C316.706 137.084 316.318 137.014 315.962 136.874C315.61 136.73 315.304 136.522 315.044 136.25C314.788 135.974 314.588 135.634 314.444 135.23C314.3 134.826 314.228 134.362 314.228 133.838C314.228 133.414 314.292 133.018 314.42 132.65C314.552 132.282 314.74 131.964 314.984 131.696C315.228 131.424 315.526 131.212 315.878 131.06C316.23 130.904 316.626 130.826 317.066 130.826C317.43 130.826 317.766 130.888 318.074 131.012C318.386 131.132 318.654 131.308 318.878 131.54C319.106 131.768 319.284 132.052 319.412 132.392C319.54 132.728 319.604 133.112 319.604 133.544C319.604 133.712 319.586 133.824 319.55 133.88C319.514 133.936 319.446 133.964 319.346 133.964H315.284C315.296 134.348 315.348 134.682 315.44 134.966C315.536 135.25 315.668 135.488 315.836 135.68C316.004 135.868 316.204 136.01 316.436 136.106C316.668 136.198 316.928 136.244 317.216 136.244C317.484 136.244 317.714 136.214 317.906 136.154C318.102 136.09 318.27 136.022 318.41 135.95C318.55 135.878 318.666 135.812 318.758 135.752C318.854 135.688 318.936 135.656 319.004 135.656C319.092 135.656 319.16 135.69 319.208 135.758L319.508 136.148ZM320.916 137V130.922H321.558C321.71 130.922 321.804 130.996 321.84 131.144L321.918 131.768C322.142 131.492 322.394 131.266 322.674 131.09C322.954 130.914 323.278 130.826 323.646 130.826C324.054 130.826 324.384 130.94 324.636 131.168C324.892 131.396 325.076 131.704 325.188 132.092C325.276 131.872 325.388 131.682 325.524 131.522C325.664 131.362 325.82 131.23 325.992 131.126C326.164 131.022 326.346 130.946 326.538 130.898C326.734 130.85 326.932 130.826 327.132 130.826C327.452 130.826 327.736 130.878 327.984 130.982C328.236 131.082 328.448 131.23 328.62 131.426C328.796 131.622 328.93 131.864 329.022 132.152C329.114 132.436 329.16 132.762 329.16 133.13V137H328.086V133.13C328.086 132.654 327.982 132.294 327.774 132.05C327.566 131.802 327.266 131.678 326.874 131.678C326.698 131.678 326.53 131.71 326.37 131.774C326.214 131.834 326.076 131.924 325.956 132.044C325.836 132.164 325.74 132.316 325.668 132.5C325.6 132.68 325.566 132.89 325.566 133.13V137H324.492V133.13C324.492 132.642 324.394 132.278 324.198 132.038C324.002 131.798 323.716 131.678 323.34 131.678C323.076 131.678 322.832 131.75 322.608 131.894C322.384 132.034 322.178 132.226 321.99 132.47V137H320.916ZM334.852 133.298C334.852 133.05 334.816 132.824 334.744 132.62C334.676 132.412 334.574 132.234 334.438 132.086C334.306 131.934 334.144 131.818 333.952 131.738C333.76 131.654 333.542 131.612 333.298 131.612C332.786 131.612 332.38 131.762 332.08 132.062C331.784 132.358 331.6 132.77 331.528 133.298H334.852ZM335.716 136.148C335.584 136.308 335.426 136.448 335.242 136.568C335.058 136.684 334.86 136.78 334.648 136.856C334.44 136.932 334.224 136.988 334 137.024C333.776 137.064 333.554 137.084 333.334 137.084C332.914 137.084 332.526 137.014 332.17 136.874C331.818 136.73 331.512 136.522 331.252 136.25C330.996 135.974 330.796 135.634 330.652 135.23C330.508 134.826 330.436 134.362 330.436 133.838C330.436 133.414 330.5 133.018 330.628 132.65C330.76 132.282 330.948 131.964 331.192 131.696C331.436 131.424 331.734 131.212 332.086 131.06C332.438 130.904 332.834 130.826 333.274 130.826C333.638 130.826 333.974 130.888 334.282 131.012C334.594 131.132 334.862 131.308 335.086 131.54C335.314 131.768 335.492 132.052 335.62 132.392C335.748 132.728 335.812 133.112 335.812 133.544C335.812 133.712 335.794 133.824 335.758 133.88C335.722 133.936 335.654 133.964 335.554 133.964H331.492C331.504 134.348 331.556 134.682 331.648 134.966C331.744 135.25 331.876 135.488 332.044 135.68C332.212 135.868 332.412 136.01 332.644 136.106C332.876 136.198 333.136 136.244 333.424 136.244C333.692 136.244 333.922 136.214 334.114 136.154C334.31 136.09 334.478 136.022 334.618 135.95C334.758 135.878 334.874 135.812 334.966 135.752C335.062 135.688 335.144 135.656 335.212 135.656C335.3 135.656 335.368 135.69 335.416 135.758L335.716 136.148ZM338.131 131.804C338.263 131.656 338.403 131.522 338.551 131.402C338.699 131.282 338.855 131.18 339.019 131.096C339.187 131.008 339.363 130.942 339.547 130.898C339.735 130.85 339.937 130.826 340.153 130.826C340.485 130.826 340.777 130.882 341.029 130.994C341.285 131.102 341.497 131.258 341.665 131.462C341.837 131.662 341.967 131.904 342.055 132.188C342.143 132.472 342.187 132.786 342.187 133.13V137H341.113V133.13C341.113 132.67 341.007 132.314 340.795 132.062C340.587 131.806 340.269 131.678 339.841 131.678C339.525 131.678 339.229 131.754 338.953 131.906C338.681 132.058 338.429 132.264 338.197 132.524V137H337.123V130.922H337.765C337.917 130.922 338.011 130.996 338.047 131.144L338.131 131.804ZM345.599 137.096C345.119 137.096 344.749 136.962 344.489 136.694C344.233 136.426 344.105 136.04 344.105 135.536V131.816H343.373C343.309 131.816 343.255 131.798 343.211 131.762C343.167 131.722 343.145 131.662 343.145 131.582V131.156L344.141 131.03L344.387 129.152C344.399 129.092 344.425 129.044 344.465 129.008C344.509 128.968 344.565 128.948 344.633 128.948H345.173V131.042H346.931V131.816H345.173V135.464C345.173 135.72 345.235 135.91 345.359 136.034C345.483 136.158 345.643 136.22 345.839 136.22C345.951 136.22 346.047 136.206 346.127 136.178C346.211 136.146 346.283 136.112 346.343 136.076C346.403 136.04 346.453 136.008 346.493 135.98C346.537 135.948 346.575 135.932 346.607 135.932C346.663 135.932 346.713 135.966 346.757 136.034L347.069 136.544C346.885 136.716 346.663 136.852 346.403 136.952C346.143 137.048 345.875 137.096 345.599 137.096Z" fill="#3D4A5F"/>
<circle cx="142" cy="115.5" r="26" fill="#00B3FF"/>
<g clip-path="url(#clip0_251_4655)">
<path d="M146 115.5C143.791 115.5 142 117.291 142 119.5C142 121.709 143.791 123.5 146 123.5C148.209 123.5 150 121.709 150 119.5C150 117.291 148.209 115.5 146 115.5ZM146.501 121.127L146.499 121.129C146.003 121.625 145.127 121.627 144.617 121.117L143.162 119.605L144.087 118.644L145.564 120.178L147.973 117.709L148.905 118.663L146.501 121.127H146.501ZM136 111.5C136 109.294 137.794 107.5 140 107.5C142.206 107.5 144 109.294 144 111.5C144 113.706 142.206 115.5 140 115.5C137.794 115.5 136 113.706 136 111.5ZM142.481 123.5H134V120.167C134 118.326 135.493 116.833 137.333 116.833H141.386C140.931 117.619 140.667 118.527 140.667 119.5C140.667 121.095 141.371 122.523 142.481 123.5Z" fill="white"/>
</g>
<path d="M122.402 158.052L122.396 159H117.098V150.402H122.396V151.35H118.262V154.206H121.61V155.118H118.262V158.052H122.402ZM123.608 159V152.922H124.25C124.402 152.922 124.496 152.996 124.532 153.144L124.61 153.768C124.834 153.492 125.086 153.266 125.366 153.09C125.646 152.914 125.97 152.826 126.338 152.826C126.746 152.826 127.076 152.94 127.328 153.168C127.584 153.396 127.768 153.704 127.88 154.092C127.968 153.872 128.08 153.682 128.216 153.522C128.356 153.362 128.512 153.23 128.684 153.126C128.856 153.022 129.038 152.946 129.23 152.898C129.426 152.85 129.624 152.826 129.824 152.826C130.144 152.826 130.428 152.878 130.676 152.982C130.928 153.082 131.14 153.23 131.312 153.426C131.488 153.622 131.622 153.864 131.714 154.152C131.806 154.436 131.852 154.762 131.852 155.13V159H130.778V155.13C130.778 154.654 130.674 154.294 130.466 154.05C130.258 153.802 129.958 153.678 129.566 153.678C129.39 153.678 129.222 153.71 129.062 153.774C128.906 153.834 128.768 153.924 128.648 154.044C128.528 154.164 128.432 154.316 128.36 154.5C128.292 154.68 128.258 154.89 128.258 155.13V159H127.184V155.13C127.184 154.642 127.086 154.278 126.89 154.038C126.694 153.798 126.408 153.678 126.032 153.678C125.768 153.678 125.524 153.75 125.3 153.894C125.076 154.034 124.87 154.226 124.682 154.47V159H123.608ZM134.549 157.536C134.745 157.8 134.959 157.986 135.191 158.094C135.423 158.202 135.683 158.256 135.971 158.256C136.539 158.256 136.975 158.054 137.279 157.65C137.583 157.246 137.735 156.67 137.735 155.922C137.735 155.526 137.699 155.186 137.627 154.902C137.559 154.618 137.459 154.386 137.327 154.206C137.195 154.022 137.033 153.888 136.841 153.804C136.649 153.72 136.431 153.678 136.187 153.678C135.839 153.678 135.533 153.758 135.269 153.918C135.009 154.078 134.769 154.304 134.549 154.596V157.536ZM134.495 153.864C134.751 153.548 135.047 153.294 135.383 153.102C135.719 152.91 136.103 152.814 136.535 152.814C136.887 152.814 137.205 152.882 137.489 153.018C137.773 153.15 138.015 153.348 138.215 153.612C138.415 153.872 138.569 154.196 138.677 154.584C138.785 154.972 138.839 155.418 138.839 155.922C138.839 156.37 138.779 156.788 138.659 157.176C138.539 157.56 138.365 157.894 138.137 158.178C137.913 158.458 137.637 158.68 137.309 158.844C136.985 159.004 136.619 159.084 136.211 159.084C135.839 159.084 135.519 159.022 135.251 158.898C134.987 158.77 134.753 158.594 134.549 158.37V161.058H133.475V152.922H134.117C134.269 152.922 134.363 152.996 134.399 153.144L134.495 153.864ZM141.305 150.162V159H140.237V150.162H141.305ZM145.599 152.826C146.043 152.826 146.443 152.9 146.799 153.048C147.155 153.196 147.459 153.406 147.711 153.678C147.963 153.95 148.155 154.28 148.287 154.668C148.423 155.052 148.491 155.482 148.491 155.958C148.491 156.438 148.423 156.87 148.287 157.254C148.155 157.638 147.963 157.966 147.711 158.238C147.459 158.51 147.155 158.72 146.799 158.868C146.443 159.012 146.043 159.084 145.599 159.084C145.151 159.084 144.747 159.012 144.387 158.868C144.031 158.72 143.727 158.51 143.475 158.238C143.223 157.966 143.029 157.638 142.893 157.254C142.761 156.87 142.695 156.438 142.695 155.958C142.695 155.482 142.761 155.052 142.893 154.668C143.029 154.28 143.223 153.95 143.475 153.678C143.727 153.406 144.031 153.196 144.387 153.048C144.747 152.9 145.151 152.826 145.599 152.826ZM145.599 158.25C146.199 158.25 146.647 158.05 146.943 157.65C147.239 157.246 147.387 156.684 147.387 155.964C147.387 155.24 147.239 154.676 146.943 154.272C146.647 153.868 146.199 153.666 145.599 153.666C145.295 153.666 145.029 153.718 144.801 153.822C144.577 153.926 144.389 154.076 144.237 154.272C144.089 154.468 143.977 154.71 143.901 154.998C143.829 155.282 143.793 155.604 143.793 155.964C143.793 156.684 143.941 157.246 144.237 157.65C144.537 158.05 144.991 158.25 145.599 158.25ZM154.903 152.922L151.513 160.794C151.477 160.874 151.431 160.938 151.375 160.986C151.323 161.034 151.241 161.058 151.129 161.058H150.337L151.447 158.646L148.939 152.922H149.863C149.955 152.922 150.027 152.946 150.079 152.994C150.135 153.038 150.173 153.088 150.193 153.144L151.819 156.972C151.883 157.14 151.937 157.316 151.98 157.5C152.037 157.312 152.097 157.134 152.161 156.966L153.739 153.144C153.763 153.08 153.803 153.028 153.859 152.988C153.919 152.944 153.985 152.922 154.057 152.922H154.903ZM159.75 155.298C159.75 155.05 159.714 154.824 159.642 154.62C159.574 154.412 159.472 154.234 159.336 154.086C159.204 153.934 159.042 153.818 158.85 153.738C158.658 153.654 158.44 153.612 158.196 153.612C157.684 153.612 157.278 153.762 156.978 154.062C156.682 154.358 156.498 154.77 156.426 155.298H159.75ZM160.614 158.148C160.482 158.308 160.324 158.448 160.14 158.568C159.956 158.684 159.758 158.78 159.546 158.856C159.338 158.932 159.122 158.988 158.898 159.024C158.674 159.064 158.452 159.084 158.232 159.084C157.812 159.084 157.424 159.014 157.068 158.874C156.716 158.73 156.41 158.522 156.15 158.25C155.894 157.974 155.694 157.634 155.55 157.23C155.406 156.826 155.334 156.362 155.334 155.838C155.334 155.414 155.398 155.018 155.526 154.65C155.658 154.282 155.846 153.964 156.09 153.696C156.334 153.424 156.632 153.212 156.984 153.06C157.336 152.904 157.732 152.826 158.172 152.826C158.536 152.826 158.872 152.888 159.18 153.012C159.492 153.132 159.76 153.308 159.984 153.54C160.212 153.768 160.39 154.052 160.518 154.392C160.646 154.728 160.71 155.112 160.71 155.544C160.71 155.712 160.692 155.824 160.656 155.88C160.62 155.936 160.552 155.964 160.452 155.964H156.39C156.402 156.348 156.454 156.682 156.546 156.966C156.642 157.25 156.774 157.488 156.942 157.68C157.11 157.868 157.31 158.01 157.542 158.106C157.774 158.198 158.034 158.244 158.322 158.244C158.59 158.244 158.82 158.214 159.012 158.154C159.208 158.09 159.376 158.022 159.516 157.95C159.656 157.878 159.772 157.812 159.864 157.752C159.96 157.688 160.042 157.656 160.11 157.656C160.198 157.656 160.266 157.69 160.314 157.758L160.614 158.148ZM166.09 155.298C166.09 155.05 166.054 154.824 165.982 154.62C165.914 154.412 165.812 154.234 165.676 154.086C165.544 153.934 165.382 153.818 165.19 153.738C164.998 153.654 164.78 153.612 164.536 153.612C164.024 153.612 163.618 153.762 163.318 154.062C163.022 154.358 162.838 154.77 162.766 155.298H166.09ZM166.954 158.148C166.822 158.308 166.664 158.448 166.48 158.568C166.296 158.684 166.098 158.78 165.886 158.856C165.678 158.932 165.462 158.988 165.238 159.024C165.014 159.064 164.792 159.084 164.572 159.084C164.152 159.084 163.764 159.014 163.408 158.874C163.056 158.73 162.75 158.522 162.49 158.25C162.234 157.974 162.034 157.634 161.89 157.23C161.746 156.826 161.674 156.362 161.674 155.838C161.674 155.414 161.738 155.018 161.866 154.65C161.998 154.282 162.186 153.964 162.43 153.696C162.674 153.424 162.972 153.212 163.324 153.06C163.676 152.904 164.072 152.826 164.512 152.826C164.876 152.826 165.212 152.888 165.52 153.012C165.832 153.132 166.1 153.308 166.324 153.54C166.552 153.768 166.73 154.052 166.858 154.392C166.986 154.728 167.05 155.112 167.05 155.544C167.05 155.712 167.032 155.824 166.996 155.88C166.96 155.936 166.892 155.964 166.792 155.964H162.73C162.742 156.348 162.794 156.682 162.886 156.966C162.982 157.25 163.114 157.488 163.282 157.68C163.45 157.868 163.65 158.01 163.882 158.106C164.114 158.198 164.374 158.244 164.662 158.244C164.93 158.244 165.16 158.214 165.352 158.154C165.548 158.09 165.716 158.022 165.856 157.95C165.996 157.878 166.112 157.812 166.204 157.752C166.3 157.688 166.382 157.656 166.45 157.656C166.538 157.656 166.606 157.69 166.654 157.758L166.954 158.148Z" fill="#3D4A5F"/>
<defs>
<filter id="filter0_d_251_4655" x="235" y="54" width="155" height="155" filterUnits="userSpaceOnUse" color-interpolation-filters="sRGB">
<feFlood flood-opacity="0" result="BackgroundImageFix"/>
<feColorMatrix in="SourceAlpha" type="matrix" values="0 0 0 0 0 0 0 0 0 0 0 0 0 0 0 0 0 0 127 0" result="hardAlpha"/>
<feOffset dy="15"/>
<feGaussianBlur stdDeviation="15"/>
<feComposite in2="hardAlpha" operator="out"/>
<feColorMatrix type="matrix" values="0 0 0 0 0.0823529 0 0 0 0 0.137255 0 0 0 0 0.223529 0 0 0 0.12 0"/>
<feBlend mode="normal" in2="BackgroundImageFix" result="effect1_dropShadow_251_4655"/>
<feBlend mode="normal" in="SourceGraphic" in2="effect1_dropShadow_251_4655" result="shape"/>
</filter>
<clipPath id="clip0_251_4655">
<rect width="16" height="16" fill="white" transform="translate(134 107.5)"/>
</clipPath>
</defs>
</svg>
