<svg width="137" height="44" viewBox="0 0 137 44" fill="none" xmlns="http://www.w3.org/2000/svg">
<g clip-path="url(#clip0_251_4428)">
<path d="M20.335 22.2113C20.338 22.8427 20.1255 23.4563 19.7326 23.9506L13.0865 31.9862L6.36744 23.9506C5.97451 23.456 5.76047 22.843 5.76015 22.2113V8.0542H0.610352V21.8518C0.610352 24.3101 0.969866 25.2089 2.22817 26.7101L8.54395 34.1481C9.6808 35.6056 10.2201 35.9457 12.6201 35.9457H13.4606C15.8606 35.9457 16.3755 35.5862 17.5415 34.1481L23.8573 26.7101C25.0573 25.2089 25.4751 24.3684 25.4751 21.8518V8.0542H20.335V22.2113Z" fill="#056FB0"/>
<path d="M54.2358 13.3207V12.8009C54.1144 11.8292 53.6917 11.4211 52.4334 10.5223L50.3346 8.94823C49.3905 8.44999 48.3413 8.18354 47.2739 8.1709H36.7168C34.7735 8.1709 33.418 8.46725 32.0382 9.91017L30.848 11.183C29.3905 12.6843 29.167 13.7628 29.167 16.6438V27.3806C29.167 30.1984 29.3467 31.2187 30.848 32.7247L32.0431 33.9879C33.4264 35.2167 35.2324 35.8611 37.0812 35.7855H45.8261C47.0462 35.8711 48.2555 35.5083 49.2269 34.7652L49.9751 34.2114V35.8292H54.2358V13.3207ZM49.8633 27.5992C49.8742 28.1769 49.6599 28.7362 49.2658 29.1588L48.1241 30.3588C47.9024 30.5909 47.6329 30.772 47.3343 30.8894C47.0356 31.0069 46.7149 31.0579 46.3945 31.0389H36.9014C36.5797 31.067 36.2558 31.0222 35.9539 30.9078C35.6519 30.7934 35.3796 30.6124 35.1573 30.3782L34.0204 29.1782C33.8083 28.981 33.6438 28.7381 33.5395 28.4679C33.4351 28.1977 33.3935 27.9073 33.418 27.6187V16.2357C33.4071 15.9484 33.4549 15.662 33.5585 15.3938C33.662 15.1257 33.8192 14.8815 34.0204 14.6762L35.1573 13.4762C35.3829 13.2464 35.6556 13.0683 35.9568 12.9542C36.2579 12.8402 36.5802 12.7928 36.9014 12.8154H46.3168C46.6381 12.7822 46.9628 12.8246 47.2649 12.9393C47.5669 13.0541 47.8378 13.2379 48.0561 13.4762L49.1929 14.6762C49.405 14.8734 49.5695 15.1163 49.6739 15.3865C49.7783 15.6567 49.8198 15.9471 49.7953 16.2357L49.8633 27.5992Z" fill="#056FB0"/>
<path d="M65.9055 8.11475H57.9282V8.2945L59.789 10.2378L60.1485 10.5973C60.9307 11.3164 61.6497 12.0548 61.6497 12.8759V35.8848H66.746V8.89693C66.746 8.17305 66.746 8.11475 65.9055 8.11475Z" fill="#056FB0"/>
<path d="M92.2717 9.91007C90.7705 8.35056 89.449 8.0542 87.6514 8.0542H78.2943C76.4336 8.0542 75.1753 8.35056 73.6741 9.91007L72.4158 11.1732C70.8563 12.791 70.4385 13.8696 70.4385 16.5708V27.4291C70.4385 30.1886 70.798 31.204 72.4158 32.8267L73.6741 34.085C75.1753 35.6445 76.4919 35.9457 78.2943 35.9457H87.6514C89.5122 35.9457 90.7705 35.6445 92.2717 34.085L93.53 32.8267C95.0895 31.204 95.5073 30.1255 95.5073 27.4291V16.6291C95.5073 13.8696 95.1478 12.8493 93.53 11.2315L92.2717 9.91007ZM90.4109 27.8469C90.4256 28.1399 90.3738 28.4324 90.2594 28.7024C90.145 28.9725 89.9709 29.2132 89.7502 29.4064L88.5502 30.6064C88.3173 30.8415 88.0355 31.0225 87.7249 31.1367C87.4143 31.2509 87.0824 31.2954 86.7526 31.2672H79.1348C78.8044 31.2951 78.4718 31.2505 78.1605 31.1363C77.8491 31.0222 77.5665 30.8413 77.3324 30.6064L76.1324 29.4064C75.9142 29.2114 75.7422 28.9703 75.6288 28.7006C75.5153 28.4308 75.4633 28.1392 75.4765 27.8469V16.2696C75.4633 15.9773 75.5153 15.6857 75.6288 15.4159C75.7422 15.1462 75.9142 14.9051 76.1324 14.7101L77.3324 13.5101C77.5665 13.2752 77.8491 13.0943 78.1605 12.9801C78.4718 12.866 78.8044 12.8214 79.1348 12.8493H86.7526C87.0824 12.8211 87.4143 12.8656 87.7249 12.9798C88.0355 13.094 88.3173 13.275 88.5502 13.5101L89.7502 14.7101C89.9709 14.9033 90.145 15.144 90.2594 15.4141C90.3738 15.6841 90.4256 15.9766 90.4109 16.2696V27.8469Z" fill="#48B061"/>
<path d="M120.673 9.85757C119.177 8.35635 117.856 8.06 115.995 8.06H106.22C105.192 7.99965 104.165 8.18449 103.222 8.59927L100.881 9.57093C99.5592 10.1102 99.1997 10.5912 99.1997 11.9126V35.8883H104.301V14.4147C104.289 14.1659 104.35 13.9191 104.478 13.7055C104.606 13.4919 104.795 13.3211 105.02 13.2147L105.681 12.9183C106.082 12.7665 106.511 12.7052 106.939 12.7385H115.096C115.426 12.7096 115.759 12.7533 116.07 12.8666C116.381 12.98 116.664 13.1601 116.898 13.3944L118.094 14.5944C118.314 14.7876 118.488 15.0283 118.603 15.2984C118.717 15.5685 118.769 15.861 118.754 16.1539V35.9515H123.88V16.4551C123.88 13.7539 123.52 12.7385 121.898 11.111L120.673 9.85757Z" fill="#48B061"/>
<path d="M135.55 8.11475H127.572V8.2945L129.433 10.2378L129.793 10.5973C130.575 11.3164 131.294 12.0548 131.294 12.8759V35.8848H136.39V8.89693C136.39 8.17305 136.39 8.11475 135.55 8.11475Z" fill="#056FB0"/>
</g>
<defs>
<clipPath id="clip0_251_4428">
<rect x="0.5" width="136" height="44" rx="4.92308" fill="white"/>
</clipPath>
</defs>
</svg>
