<svg width="25" height="24" viewBox="0 0 25 24" fill="none" xmlns="http://www.w3.org/2000/svg">
<g clip-path="url(#clip0_18002_3779)">
<path d="M24.5194 5.54199L16.1014 13.96C15.1628 14.8962 13.8912 15.422 12.5654 15.422C11.2397 15.422 9.96806 14.8962 9.02943 13.96L0.61143 5.54199C0.59743 5.69999 0.56543 5.84299 0.56543 5.99999V18C0.567018 19.3256 1.09431 20.5964 2.03165 21.5338C2.96899 22.4711 4.23983 22.9984 5.56543 23H19.5654C20.891 22.9984 22.1619 22.4711 23.0992 21.5338C24.0365 20.5964 24.5638 19.3256 24.5654 18V5.99999C24.5654 5.84299 24.5334 5.69999 24.5194 5.54199Z" fill="white"/>
<path d="M14.6876 12.546L23.8216 3.411C23.3791 2.67732 22.755 2.07004 22.0095 1.64773C21.2641 1.22542 20.4224 1.00234 19.5656 1H5.56557C4.70879 1.00234 3.86707 1.22542 3.1216 1.64773C2.37612 2.07004 1.75205 2.67732 1.30957 3.411L10.4436 12.546C11.0071 13.1073 11.7702 13.4225 12.5656 13.4225C13.361 13.4225 14.124 13.1073 14.6876 12.546Z" fill="white"/>
</g>
<defs>
<clipPath id="clip0_18002_3779">
<rect width="24" height="24" fill="white" transform="translate(0.56543)"/>
</clipPath>
</defs>
</svg>
