<svg width="25" height="24" viewBox="0 0 25 24" fill="none" xmlns="http://www.w3.org/2000/svg">
<g clip-path="url(#clip0_18002_3770)">
<path d="M23.5655 11C23.3003 11 23.0459 10.8946 22.8584 10.7071C22.6708 10.5196 22.5655 10.2652 22.5655 9.99999C22.5634 7.87891 21.7198 5.84531 20.22 4.34547C18.7202 2.84564 16.6866 2.00211 14.5655 1.99999C14.3003 1.99999 14.0459 1.89463 13.8584 1.7071C13.6708 1.51956 13.5655 1.26521 13.5655 0.99999C13.5655 0.734773 13.6708 0.480419 13.8584 0.292883C14.0459 0.105347 14.3003 -1.03539e-05 14.5655 -1.03539e-05C17.2168 0.00290124 19.7586 1.0574 21.6333 2.93214C23.5081 4.80687 24.5626 7.34872 24.5655 9.99999C24.5655 10.2652 24.4601 10.5196 24.2726 10.7071C24.0851 10.8946 23.8307 11 23.5655 11ZM20.5655 9.99999C20.5655 8.40869 19.9333 6.88257 18.8081 5.75735C17.6829 4.63213 16.1568 3.99999 14.5655 3.99999C14.3003 3.99999 14.0459 4.10535 13.8584 4.29288C13.6708 4.48042 13.5655 4.73477 13.5655 4.99999C13.5655 5.26521 13.6708 5.51956 13.8584 5.7071C14.0459 5.89463 14.3003 5.99999 14.5655 5.99999C15.6263 5.99999 16.6438 6.42142 17.3939 7.17156C18.1441 7.92171 18.5655 8.93912 18.5655 9.99999C18.5655 10.2652 18.6708 10.5196 18.8584 10.7071C19.0459 10.8946 19.3003 11 19.5655 11C19.8307 11 20.0851 10.8946 20.2726 10.7071C20.4601 10.5196 20.5655 10.2652 20.5655 9.99999ZM22.7485 22.164L23.6585 21.115C24.2377 20.5339 24.5629 19.7469 24.5629 18.9265C24.5629 18.1061 24.2377 17.3191 23.6585 16.738C23.6275 16.707 21.2215 14.856 21.2215 14.856C20.644 14.3063 19.877 14.0003 19.0798 14.0014C18.2825 14.0025 17.5164 14.3107 16.9405 14.862L15.0345 16.468C13.4787 15.8241 12.0654 14.8792 10.8758 13.6875C9.68617 12.4958 8.7437 11.0809 8.10248 9.52399L9.70248 7.62399C10.2542 7.04816 10.5628 6.28187 10.5641 5.48439C10.5654 4.68692 10.2593 3.91962 9.70948 3.34199C9.70948 3.34199 7.85648 0.93899 7.82548 0.90799C7.25493 0.333738 6.48136 0.00701166 5.67191 -0.00159557C4.86245 -0.0102028 4.08211 0.3 3.49948 0.86199L2.34948 1.86199C-4.44452 9.74399 10.1855 24.261 18.3275 24C19.1497 24.0048 19.9645 23.8447 20.7238 23.5294C21.4831 23.2141 22.1716 22.7498 22.7485 22.164Z" fill="white"/>
</g>
<defs>
<clipPath id="clip0_18002_3770">
<rect width="24" height="24" fill="white" transform="translate(0.56543)"/>
</clipPath>
</defs>
</svg>
