<svg width="14" height="14" viewBox="0 0 14 14" fill="none" xmlns="http://www.w3.org/2000/svg">
<path d="M3.5459 13.1248C3.5461 12.8928 3.63842 12.6704 3.80257 12.5065L8.2779 8.03114C8.41336 7.89572 8.52081 7.73493 8.59413 7.55798C8.66744 7.38102 8.70517 7.19135 8.70517 6.99981C8.70517 6.80826 8.66744 6.6186 8.59413 6.44164C8.52081 6.26468 8.41336 6.1039 8.2779 5.96847L3.8084 1.49606C3.64901 1.33103 3.56081 1.11 3.56281 0.88058C3.5648 0.651158 3.65683 0.431697 3.81906 0.269465C3.98129 0.107233 4.20075 0.0152103 4.43017 0.0132167C4.65959 0.0112231 4.88062 0.0994182 5.04565 0.258806L9.51515 4.72772C10.1161 5.32988 10.4536 6.14586 10.4536 6.9966C10.4536 7.84734 10.1161 8.66332 9.51515 9.26547L5.03982 13.7408C4.91762 13.8631 4.76194 13.9464 4.59243 13.9803C4.42291 14.0142 4.24716 13.9971 4.08734 13.9312C3.92753 13.8653 3.79081 13.7536 3.69445 13.61C3.59809 13.4665 3.5464 13.2977 3.5459 13.1248Z" fill="white"/>
</svg>
