<svg width="28" height="28" viewBox="0 0 28 28" fill="none" xmlns="http://www.w3.org/2000/svg">
<g clip-path="url(#clip0_18002_3629)">
<path d="M27.6304 25.532L24.4743 22.3758C25.0666 21.4817 25.4159 20.4134 25.4159 19.2637C25.4159 16.1471 22.8803 13.6116 19.7637 13.6116C16.6471 13.6116 14.1116 16.1471 14.1116 19.2637C14.1116 22.3803 16.6471 24.9159 19.7637 24.9159C20.9134 24.9159 21.9817 24.5666 22.8758 23.9743L26.032 27.1304L27.6304 25.532ZM24.2391 0H3.8913C2.02157 0 0.5 1.52157 0.5 3.3913V7.91304H27.6304V3.3913C27.6304 1.52157 26.1089 0 24.2391 0ZM4.45652 5.65217C3.52052 5.65217 2.76087 4.89252 2.76087 3.95652C2.76087 3.02052 3.52052 2.26087 4.45652 2.26087C5.39252 2.26087 6.15217 3.02052 6.15217 3.95652C6.15217 4.89252 5.39252 5.65217 4.45652 5.65217ZM8.97826 5.65217C8.04226 5.65217 7.28261 4.89252 7.28261 3.95652C7.28261 3.02052 8.04226 2.26087 8.97826 2.26087C9.91426 2.26087 10.6739 3.02052 10.6739 3.95652C10.6739 4.89252 9.91426 5.65217 8.97826 5.65217ZM0.5 10.1739H27.6304V19.2174C27.6304 14.8471 24.0877 11.3043 19.7174 11.3043C15.3471 11.3043 11.8043 14.8471 11.8043 19.2174C11.8043 21.433 12.7177 23.4328 14.185 24.8696H0.5V10.1739Z" fill="white"/>
</g>
<defs>
<clipPath id="clip0_18002_3629">
<rect width="27.1304" height="27.1304" fill="white" transform="translate(0.5)"/>
</clipPath>
</defs>
</svg>
