<svg width="28" height="28" viewBox="0 0 28 28" fill="none" xmlns="http://www.w3.org/2000/svg">
<g clip-path="url(#clip0_18002_3636)">
<path fill-rule="evenodd" clip-rule="evenodd" d="M0.435059 2.5687C0.435059 1.34556 1.42661 0.354004 2.64975 0.354004H25.3504C26.5735 0.354004 27.5651 1.34556 27.5651 2.5687V21.0245C27.5651 22.2476 26.5735 23.2392 25.3504 23.2392H21.161C21.1629 23.1778 21.1638 23.1163 21.1638 23.0545C21.1638 19.487 18.0455 16.595 14.1989 16.595C10.3523 16.595 7.23396 19.487 7.23396 23.0545C7.23396 23.1163 7.23489 23.1778 7.23675 23.2392H2.64975C1.42661 23.2392 0.435059 22.2476 0.435059 21.0245V2.5687ZM5.18631 2.93781C4.77859 2.93781 4.44808 3.26833 4.44808 3.67605V7.3672C4.44808 7.77491 4.77859 8.10543 5.18631 8.10543H22.8136C23.2213 8.10543 23.5518 7.77491 23.5518 7.3672V3.67605C23.5518 3.26833 23.2213 2.93781 22.8136 2.93781H5.18631ZM5.18631 9.95101C4.77859 9.95101 4.44808 10.2815 4.44808 10.6892V13.6422C4.44808 14.0499 4.77859 14.3804 5.18631 14.3804H8.50834C8.91606 14.3804 9.24658 14.0499 9.24658 13.6422V10.6892C9.24658 10.2815 8.91606 9.95101 8.50834 9.95101H5.18631ZM11.0928 10.6891C11.0928 10.2814 11.4233 9.9509 11.8311 9.9509H15.1531C15.5608 9.9509 15.8913 10.2814 15.8913 10.6891V13.642C15.8913 14.0498 15.5608 14.3803 15.1531 14.3803H11.8311C11.4233 14.3803 11.0928 14.0498 11.0928 13.642V10.6891ZM18.4748 9.95094C18.0671 9.95094 17.7366 10.2815 17.7366 10.6892V13.6421C17.7366 14.0498 18.0671 14.3803 18.4748 14.3803H21.7969C22.2046 14.3803 22.5351 14.0498 22.5351 13.6421V10.6892C22.5351 10.2815 22.2046 9.95094 21.7969 9.95094H18.4748Z" fill="white"/>
<g clip-path="url(#clip1_18002_3636)">
<path d="M10.8301 25.6358L11.9117 25.0578C12.3754 25.5213 12.9794 25.8576 13.6662 26.0033V27.1557H15.1992V26.0033C15.886 25.8576 16.4908 25.5213 16.9538 25.0578L18.0353 25.6358L18.8003 24.4038L17.7149 23.8237C17.8138 23.5266 17.882 23.2173 17.882 22.8903C17.882 22.5633 17.8138 22.2541 17.7149 21.9569L18.8003 21.3769L18.0353 20.1449L16.9538 20.7228C16.49 20.2593 15.886 19.9231 15.1992 19.7774V18.625H13.6662V19.7774C12.9794 19.9231 12.3747 20.2593 11.9117 20.7228L10.8301 20.1449L10.0652 21.3769L11.1505 21.9569C11.0517 22.2541 10.9834 22.5633 10.9834 22.8903C10.9834 23.2173 11.0517 23.5266 11.1505 23.8237L10.0652 24.4038L10.8301 25.6358ZM14.4327 21.824C15.0666 21.824 15.5825 22.3024 15.5825 22.8903C15.5825 23.4782 15.0666 23.9567 14.4327 23.9567C13.7988 23.9567 13.283 23.4782 13.283 22.8903C13.283 22.3024 13.7988 21.824 14.4327 21.824ZM15.1992 33.5537V34.2646H18.2653V35.6863H10.6002V34.2646H13.6662V33.5537H5.23462V24.3121C5.23462 23.1363 6.26634 22.1794 7.53415 22.1794H8.35354C8.32212 22.4126 8.30066 22.6493 8.30066 22.8903C8.30066 26.031 11.0463 28.5774 14.4327 28.5774C17.8192 28.5774 20.5648 26.031 20.5648 22.8903C20.5648 22.6493 20.5433 22.4126 20.5119 22.1794H21.3313C22.5991 22.1794 23.6308 23.1363 23.6308 24.3121V33.5537H15.1992Z" fill="white"/>
</g>
</g>
<defs>
<clipPath id="clip0_18002_3636">
<rect width="27.1304" height="27.1304" fill="white" transform="translate(0.5)"/>
</clipPath>
<clipPath id="clip1_18002_3636">
<rect x="9.79907" y="18.625" width="9.19811" height="8.85877" rx="4.42938" fill="white"/>
</clipPath>
</defs>
</svg>
