<svg width="28" height="28" viewBox="0 0 28 28" fill="none" xmlns="http://www.w3.org/2000/svg">
<g clip-path="url(#clip0_18002_3665)">
<path d="M8.50146 19.9867V21.8936L5.85768 23.3624C5.49364 23.068 5.03084 22.8912 4.52728 22.8912C3.35855 22.8912 2.40771 23.842 2.40771 25.0108C2.40771 26.1795 3.35855 27.1303 4.52728 27.1303C5.69601 27.1303 6.64685 26.1795 6.64685 25.0108C6.64685 24.923 6.64086 24.8366 6.63042 24.7516L9.68227 23.0561C9.93466 22.9159 10.0911 22.6499 10.0911 22.3613V19.4204L9.7129 19.6474C9.34669 19.8671 8.92813 19.984 8.50146 19.9867Z" fill="white"/>
<path d="M14.8602 23.0466V21.7256H13.2705V23.0466C12.4946 23.3617 11.9458 24.1232 11.9458 25.0109C11.9458 26.1796 12.8966 27.1305 14.0654 27.1305C15.2341 27.1305 16.1849 26.1796 16.1849 25.0109C16.1849 24.1232 15.6362 23.3617 14.8602 23.0466Z" fill="white"/>
<path d="M23.6034 22.8912C23.0999 22.8912 22.637 23.068 22.273 23.3624L19.6292 21.8936V19.9867C19.2026 19.984 18.784 19.8671 18.4178 19.6474L18.0396 19.4204V22.3613C18.0396 22.6499 18.196 22.9159 18.4484 23.0561L21.5003 24.7516C21.4898 24.8366 21.4838 24.923 21.4838 25.0108C21.4838 26.1795 22.4347 27.1303 23.6034 27.1303C24.7721 27.1303 25.723 26.1795 25.723 25.0108C25.723 23.842 24.7721 22.8912 23.6034 22.8912Z" fill="white"/>
<path d="M20.2066 18.1648L22.1621 16.2092C22.42 15.9513 22.4693 15.551 22.2817 15.2382L21.5554 14.0276C21.8013 13.5624 22.0038 13.0724 22.16 12.5646L23.5311 12.2218C23.8849 12.1334 24.1332 11.8155 24.1332 11.4507V8.68513C24.1332 8.32041 23.8849 8.00247 23.5311 7.91403L22.16 7.57125C22.0038 7.06345 21.8013 6.57346 21.5553 6.10822L22.2817 4.89757C22.4693 4.58483 22.42 4.1845 22.1621 3.9266L20.2066 1.97104C19.9487 1.71314 19.5484 1.66386 19.2357 1.85149L18.025 2.57787C17.5597 2.33184 17.0698 2.12937 16.562 1.97321L16.2192 0.602063C16.1307 0.248201 15.8128 0 15.4481 0H12.6824C12.3177 0 11.9998 0.248201 11.9113 0.602063L11.5686 1.97321C11.0609 2.12932 10.5708 2.33189 10.1056 2.57787L8.89489 1.85149C8.58215 1.66386 8.18181 1.71314 7.92397 1.97104L5.9684 3.9266C5.71051 4.1845 5.66123 4.58483 5.84886 4.89757L6.57524 6.10822C6.32921 6.57346 6.12674 7.06345 5.97058 7.57125L4.59943 7.91403C4.24552 8.00247 3.99731 8.32041 3.99731 8.68513V11.4507C3.99731 11.8155 4.24552 12.1334 4.59938 12.2218L5.97052 12.5646C6.12668 13.0724 6.32921 13.5624 6.57513 14.0276L5.84881 15.2382C5.66117 15.551 5.71045 15.9513 5.96835 16.2092L7.92392 18.1648C8.18181 18.4227 8.58215 18.472 8.89489 18.2844L10.1055 17.558C10.5708 17.804 11.0608 18.0066 11.5685 18.1627L11.9113 19.5339C11.9997 19.8877 12.3177 20.1359 12.6824 20.1359H15.448C15.8127 20.1359 16.1307 19.8877 16.2191 19.5339L16.5619 18.1627C17.0696 18.0066 17.5596 17.804 18.0249 17.558L19.2355 18.2844C19.5484 18.472 19.9487 18.4227 20.2066 18.1648ZM14.0652 13.7772C12.0167 13.7772 10.356 12.1165 10.356 10.0679C10.356 8.01938 12.0167 6.3587 14.0652 6.3587C16.1138 6.3587 17.7745 8.01938 17.7745 10.0679C17.7745 12.1165 16.1138 13.7772 14.0652 13.7772Z" fill="white"/>
</g>
<defs>
<clipPath id="clip0_18002_3665">
<rect width="27.1304" height="27.1304" fill="white" transform="translate(0.5)"/>
</clipPath>
</defs>
</svg>
