<svg width="24" height="24" viewBox="0 0 24 24" fill="none" xmlns="http://www.w3.org/2000/svg">
<g clip-path="url(#clip0_18002_3300)">
<path d="M16.792 17.836C17.378 18.422 17.378 19.372 16.792 19.957C16.206 20.543 15.256 20.543 14.671 19.957L8.85501 14.141L7.44101 15.555L12.834 20.948C13.42 21.534 13.42 22.484 12.834 23.069C12.248 23.655 11.298 23.655 10.713 23.069L6.04001 18.396C3.08301 15.511 0.0620117 11.667 0.0620117 8.005C0.0620117 4.145 2.97901 1.005 6.56201 1.005C8.33501 1.005 9.69301 1.667 10.727 2.402L7.08801 6.01C6.42601 6.67101 6.06201 7.551 6.06201 8.486C6.06201 9.421 6.42601 10.3 7.08601 10.96C7.74701 11.622 8.62601 11.986 9.56201 11.986C9.98801 11.986 10.399 11.901 10.787 11.757L16.792 17.836ZM14.484 8.53L12.392 10.608L18.502 16.626C19.088 17.212 20.038 17.212 20.623 16.626C21.519 15.73 20.752 14.738 20.752 14.738L14.483 8.53H14.484ZM17.52 1.063C15.886 1.073 14.334 1.783 13.138 2.897L8.50101 7.503C7.91501 8.089 7.91501 9.039 8.50101 9.624C9.08701 10.21 10.037 10.21 10.622 9.624L14.528 5.744L22.262 13.422C23.453 11.5 24.061 9.7 24.061 8.063C24.061 4.203 21.103 1.063 17.519 1.063H17.52Z" fill="white"/>
</g>
<defs>
<clipPath id="clip0_18002_3300">
<rect width="24" height="24" fill="white"/>
</clipPath>
</defs>
</svg>
