<svg width="24" height="24" viewBox="0 0 24 24" fill="none" xmlns="http://www.w3.org/2000/svg">
<g clip-path="url(#clip0_18002_3306)">
<path d="M23.9998 9.99982V22.9998H-0.000244141V9.99982H23.9998ZM-0.000244141 7.99982V3.99982C-0.000244141 2.34982 1.34976 0.999817 2.99976 0.999817H20.9998C22.6498 0.999817 23.9998 2.34982 23.9998 3.99982V7.99982H-0.000244141ZM18.9998 4.49982C18.9998 5.32982 19.6698 5.99982 20.4998 5.99982C21.3298 5.99982 21.9998 5.32982 21.9998 4.49982C21.9998 3.66982 21.3298 2.99982 20.4998 2.99982C19.6698 2.99982 18.9998 3.66982 18.9998 4.49982ZM14.9998 4.49982C14.9998 5.32982 15.6698 5.99982 16.4998 5.99982C17.3298 5.99982 17.9998 5.32982 17.9998 4.49982C17.9998 3.66982 17.3298 2.99982 16.4998 2.99982C15.6698 2.99982 14.9998 3.66982 14.9998 4.49982ZM10.9998 4.49982C10.9998 5.32982 11.6698 5.99982 12.4998 5.99982C13.3298 5.99982 13.9998 5.32982 13.9998 4.49982C13.9998 3.66982 13.3298 2.99982 12.4998 2.99982C11.6698 2.99982 10.9998 3.66982 10.9998 4.49982Z" fill="white"/>
</g>
<defs>
<clipPath id="clip0_18002_3306">
<rect width="24" height="24" fill="white"/>
</clipPath>
</defs>
</svg>
