<svg width="24" height="24" viewBox="0 0 24 24" fill="none" xmlns="http://www.w3.org/2000/svg">
<g clip-path="url(#clip0_18002_3331)">
<path d="M24.0001 11.983C23.9979 11.1689 23.7471 10.375 23.2812 9.70745C22.8152 9.03992 22.1565 8.5307 21.3931 8.248L21.3551 8.157C20.363 5.73044 18.4638 3.78638 16.0611 2.738L15.7321 2.594C15.4488 1.83292 14.9396 1.17666 14.2727 0.713269C13.6058 0.24988 12.8131 0.00152588 12.0011 0.00152588C11.189 0.00152588 10.3963 0.24988 9.72942 0.713269C9.06253 1.17666 8.5533 1.83292 8.27005 2.594L7.85205 2.782C5.4706 3.86365 3.59626 5.81963 2.61705 8.245C1.8524 8.5236 1.19153 9.0299 0.723506 9.69569C0.255485 10.3615 0.00281307 11.1547 -0.000456152 11.9685C-0.00372538 12.7824 0.242565 13.5776 0.705222 14.2472C1.16788 14.9167 1.82466 15.4283 2.58705 15.713L2.71505 16.013C3.7184 18.3419 5.5611 20.2081 7.87705 21.241L8.27005 21.417C8.5541 22.177 9.06352 22.8321 9.73013 23.2946C10.3967 23.7571 11.1887 24.0049 12.0001 24.0049C12.8114 24.0049 13.6034 23.7571 14.27 23.2946C14.9366 22.8321 15.446 22.177 15.7301 21.417L16.0971 21.254C18.5196 20.1708 20.4242 18.1854 21.4061 15.72C22.1669 15.4344 22.8226 14.9237 23.286 14.2562C23.7494 13.5886 23.9985 12.7957 24.0001 11.983ZM15.8931 19.114C15.694 18.23 15.2 17.4401 14.4924 16.8741C13.7848 16.3081 12.9057 15.9998 11.9996 15.9998C11.0934 15.9998 10.2143 16.3081 9.50668 16.8741C8.79907 17.4401 8.30512 18.23 8.10605 19.114C6.74065 18.3689 5.61889 17.2461 4.87505 15.88C5.75627 15.6809 6.54385 15.1887 7.10903 14.4839C7.67421 13.7791 7.98355 12.9034 7.98645 12C7.98935 11.0965 7.68565 10.2189 7.12501 9.51044C6.56438 8.80202 5.77997 8.30477 4.90005 8.1C5.64663 6.75314 6.7578 5.64405 8.10605 4.9C8.30595 5.783 8.80013 6.57179 9.50745 7.13689C10.2148 7.70198 11.0932 8.0098 11.9986 8.0098C12.9039 8.0098 13.7823 7.70198 14.4897 7.13689C15.197 6.57179 15.6912 5.783 15.8911 4.9C17.2383 5.64323 18.3501 6.74946 19.1001 8.093C18.2174 8.2946 17.4296 8.79029 16.8659 9.4987C16.3021 10.2071 15.996 11.0862 15.9977 11.9915C15.9995 12.8968 16.309 13.7747 16.8755 14.4809C17.4419 15.1872 18.2317 15.6798 19.1151 15.878C18.3688 17.2398 17.2516 18.3619 15.8931 19.114Z" fill="white"/>
</g>
<defs>
<clipPath id="clip0_18002_3331">
<rect width="24" height="24" fill="white"/>
</clipPath>
</defs>
</svg>
