<svg width="24" height="24" viewBox="0 0 24 24" fill="none" xmlns="http://www.w3.org/2000/svg">
<path d="M12.5661 24H8.71906L10.7191 16H6.58606C6.18664 15.9998 5.79279 15.9062 5.43599 15.7267C5.07919 15.5472 4.76933 15.2867 4.53117 14.966C4.29301 14.6454 4.13315 14.2734 4.06438 13.88C3.9956 13.4865 4.01981 13.0824 4.13506 12.7L7.97606 0H17.4431L14.4431 8H18.4661C18.9238 8.00029 19.3729 8.1246 19.7656 8.35972C20.1583 8.59484 20.48 8.93197 20.6964 9.33529C20.9128 9.73861 21.0159 10.193 20.9947 10.6503C20.9736 11.1075 20.8289 11.5504 20.5761 11.932L12.5661 24Z" fill="white"/>
</svg>
