<svg width="24" height="24" viewBox="0 0 24 24" fill="none" xmlns="http://www.w3.org/2000/svg">
<path d="M23.25 15C22.836 15 22.5 14.664 22.5 14.25C22.5 11.355 20.145 9.00003 17.25 9.00003H10V12.25C10 12.91 9.206 13.244 8.732 12.792L3.232 7.54203C3.084 7.40103 3 7.20503 3 7.00003C3 6.79503 3.084 6.59903 3.232 6.45803L8.732 1.20803C9.208 0.754028 10 1.09203 10 1.75003V5.00003H16.25C20.523 5.00003 24 8.47703 24 12.75V14.25C24 14.664 23.664 15 23.25 15Z" fill="white"/>
<path d="M14 22.25V19H7.75C3.477 19 0 15.523 0 11.25V9.75C0 9.336 0.336 9 0.75 9C1.164 9 1.5 9.336 1.5 9.75C1.5 12.645 3.855 15 6.75 15H14V11.75C14 11.093 14.791 10.752 15.268 11.208L20.768 16.458C20.916 16.599 21 16.795 21 17C21 17.205 20.916 17.401 20.768 17.542L15.268 22.792C14.791 23.246 14 22.908 14 22.25Z" fill="white"/>
</svg>
