<svg width="52" height="53" viewBox="0 0 52 53" fill="none" xmlns="http://www.w3.org/2000/svg">
<g clip-path="url(#clip0_251_3806)">
<path d="M26 0.5C11.6642 0.5 0 12.1642 0 26.5C0 40.8358 11.6642 52.5 26 52.5C40.3358 52.5 52 40.8358 52 26.5C52 12.1642 40.3358 0.5 26 0.5ZM40.5313 19.6579L23.9148 36.1441C22.9373 37.1216 21.3734 37.1867 20.3308 36.2093L11.5338 28.1942C10.4912 27.2168 10.4261 25.5877 11.3383 24.5451C12.3158 23.5025 13.9449 23.4373 14.9875 24.4148L21.9599 30.8008L36.817 15.9436C37.8596 14.901 39.4887 14.901 40.5313 15.9436C41.5739 16.9862 41.5739 18.6153 40.5313 19.6579Z" fill="#00B3FF"/>
</g>
<defs>
<clipPath id="clip0_251_3806">
<rect width="52" height="52" fill="white" transform="translate(0 0.5)"/>
</clipPath>
</defs>
</svg>
